<ttFont>
    <TTGlyph name=".notdef" xMin="102" yMin="-362" xMax="1126" yMax="1444">
      <contour>
        <pt x="102" y="-362" on="1"/>
        <pt x="102" y="1444" on="1"/>
        <pt x="1126" y="1444" on="1"/>
        <pt x="1126" y="-362" on="1"/>
      </contour>
      <contour>
        <pt x="217" y="-248" on="1"/>
        <pt x="1012" y="-248" on="1"/>
        <pt x="1012" y="1329" on="1"/>
        <pt x="217" y="1329" on="1"/>
      </contour>
    </TTGlyph>
    <TTGlyph name="Ghunna_above" xMin="-207" yMin="786" xMax="311" yMax="1358">
      <contour>
        <pt x="0" y="786" on="1"/>
        <pt x="-100" y="786" on="0"/>
        <pt x="-207" y="887" on="0"/>
        <pt x="-207" y="1004" on="1"/>
        <pt x="-207" y="1070" on="0"/>
        <pt x="-176" y="1178" on="1"/>
        <pt x="-90" y="1163" on="1"/>
        <pt x="-100" y="1121" on="0"/>
        <pt x="-100" y="1069" on="1"/>
        <pt x="-100" y="1007" on="0"/>
        <pt x="-39" y="948" on="0"/>
        <pt x="2" y="948" on="1"/>
        <pt x="68" y="948" on="0"/>
        <pt x="176" y="994" on="0"/>
        <pt x="199" y="1030" on="1"/>
        <pt x="175" y="1079" on="0"/>
        <pt x="135" y="1197" on="0"/>
        <pt x="135" y="1229" on="1"/>
        <pt x="135" y="1269" on="0"/>
        <pt x="189" y="1329" on="0"/>
        <pt x="270" y="1358" on="1"/>
        <pt x="282" y="1275" on="1"/>
        <pt x="295" y="1193" on="0"/>
        <pt x="311" y="1095" on="0"/>
        <pt x="309" y="1071" on="1"/>
        <pt x="309" y="993" on="0"/>
        <pt x="223" y="861" on="0"/>
        <pt x="79" y="786" on="0"/>
      </contour>
    </TTGlyph>
    <TTGlyph name="alef_alt.fina" xMin="90" yMin="-20" xMax="631" yMax="1462">
      <contour>
        <pt x="367" y="1462" on="1"/>
        <pt x="361" y="1233" on="1"/>
        <pt x="346" y="733" on="0"/>
        <pt x="346" y="334" on="1"/>
        <pt x="403" y="296" on="0"/>
        <pt x="526" y="266" on="0"/>
        <pt x="610" y="266" on="1"/>
        <pt x="631" y="266" on="0"/>
        <pt x="631" y="246" on="1"/>
        <pt x="631" y="0" on="1"/>
        <pt x="631" y="-20" on="0"/>
        <pt x="610" y="-20" on="1"/>
        <pt x="451" y="-20" on="0"/>
        <pt x="262" y="90" on="0"/>
        <pt x="244" y="197" on="1"/>
        <pt x="211" y="387" on="0"/>
        <pt x="153" y="783" on="0"/>
        <pt x="90" y="1307" on="1"/>
      </contour>
    </TTGlyph>
    <TTGlyph name="alef_alt.isol" xMin="146" yMin="-20" xMax="492" yMax="1464">
      <contour>
        <pt x="410" y="1104" on="1"/>
        <pt x="410" y="894" on="1"/>
        <pt x="397" y="0" on="1"/>
        <pt x="242" y="-20" on="1"/>
        <pt x="192" y="795" on="0"/>
        <pt x="173" y="974" on="1"/>
        <pt x="146" y="1212" on="0"/>
        <pt x="146" y="1257" on="1"/>
        <pt x="146" y="1351" on="0"/>
        <pt x="289" y="1464" on="0"/>
        <pt x="395" y="1464" on="1"/>
        <pt x="437" y="1312" on="0"/>
        <pt x="492" y="1167" on="1"/>
      </contour>
    </TTGlyph>
    <TTGlyph name="allah" xMin="164" yMin="-20" xMax="2701" yMax="2474">
      <contour>
        <pt x="684" y="51" on="1"/>
        <pt x="581" y="59" on="0"/>
        <pt x="482" y="78" on="0"/>
        <pt x="426" y="96" on="1"/>
        <pt x="328" y="134" on="0"/>
        <pt x="164" y="251" on="0"/>
        <pt x="164" y="293" on="1"/>
        <pt x="164" y="325" on="0"/>
        <pt x="244" y="551" on="0"/>
        <pt x="302" y="630" on="0"/>
        <pt x="424" y="734" on="0"/>
        <pt x="572" y="831" on="0"/>
        <pt x="649" y="868" on="1"/>
        <pt x="642" y="915" on="1"/>
        <pt x="637" y="963" on="1"/>
        <pt x="723" y="1033" on="0"/>
        <pt x="814" y="1095" on="0"/>
        <pt x="887" y="1139" on="1"/>
        <pt x="885" y="676" on="1"/>
        <pt x="887" y="330" on="1"/>
        <pt x="999" y="269" on="0"/>
        <pt x="1124" y="266" on="1"/>
        <pt x="1147" y="266" on="1"/>
        <pt x="1248" y="271" on="0"/>
        <pt x="1348" y="311" on="1"/>
        <pt x="1326" y="455" on="0"/>
        <pt x="1296" y="731" on="1"/>
        <pt x="1266" y="999" on="0"/>
        <pt x="1229" y="1217" on="1"/>
        <pt x="1353" y="1292" on="1"/>
        <pt x="1485" y="1370" on="1"/>
        <pt x="1476" y="973" on="1"/>
        <pt x="1468" y="671" on="0"/>
        <pt x="1468" y="334" on="1"/>
        <pt x="1523" y="296" on="0"/>
        <pt x="1646" y="266" on="0"/>
        <pt x="1729" y="266" on="1"/>
        <pt x="1845" y="275" on="0"/>
        <pt x="1966" y="319" on="1"/>
        <pt x="1928" y="610" on="0"/>
        <pt x="1827" y="1167" on="0"/>
        <pt x="1778" y="1438" on="1"/>
        <pt x="2064" y="1597" on="1"/>
        <pt x="2072" y="1199" on="0"/>
        <pt x="2093" y="583" on="0"/>
        <pt x="2093" y="362" on="1"/>
        <pt x="2093" y="282" on="0"/>
        <pt x="2049" y="133" on="0"/>
        <pt x="1999" y="55" on="1"/>
        <pt x="1976" y="21" on="0"/>
        <pt x="1824" y="-20" on="0"/>
        <pt x="1712" y="-20" on="1"/>
        <pt x="1706" y="-20" on="1"/>
        <pt x="1522" y="-13" on="0"/>
        <pt x="1438" y="63" on="1"/>
        <pt x="1289" y="-14" on="0"/>
        <pt x="1149" y="-20" on="1"/>
        <pt x="1122" y="-20" on="1"/>
        <pt x="989" y="-18" on="0"/>
        <pt x="817" y="75" on="0"/>
        <pt x="801" y="158" on="1"/>
        <pt x="780" y="248" on="1"/>
      </contour>
      <contour>
        <pt x="2619" y="1237" on="1"/>
        <pt x="2619" y="979" on="1"/>
        <pt x="2607" y="0" on="1"/>
        <pt x="2451" y="-20" on="1"/>
        <pt x="2424" y="363" on="1"/>
        <pt x="2346" y="1389" on="1"/>
        <pt x="2346" y="1450" on="0"/>
        <pt x="2412" y="1543" on="0"/>
        <pt x="2535" y="1597" on="0"/>
        <pt x="2605" y="1597" on="1"/>
        <pt x="2635" y="1486" on="0"/>
        <pt x="2665" y="1393" on="0"/>
        <pt x="2701" y="1300" on="1"/>
      </contour>
      <contour>
        <pt x="1520" y="1855" on="1"/>
        <pt x="1542" y="1809" on="0"/>
        <pt x="1573" y="1699" on="0"/>
        <pt x="1573" y="1665" on="1"/>
        <pt x="1573" y="1596" on="0"/>
        <pt x="1478" y="1483" on="0"/>
        <pt x="1413" y="1483" on="1"/>
        <pt x="1362" y="1483" on="0"/>
        <pt x="1325" y="1524" on="1"/>
        <pt x="1300" y="1477" on="0"/>
        <pt x="1228" y="1423" on="0"/>
        <pt x="1188" y="1423" on="1"/>
        <pt x="1131" y="1423" on="0"/>
        <pt x="1057" y="1497" on="0"/>
        <pt x="1057" y="1565" on="1"/>
        <pt x="1057" y="1593" on="0"/>
        <pt x="1077" y="1668" on="0"/>
        <pt x="1094" y="1698" on="1"/>
        <pt x="1145" y="1688" on="1"/>
        <pt x="1137" y="1646" on="0"/>
        <pt x="1137" y="1610" on="1"/>
        <pt x="1137" y="1542" on="0"/>
        <pt x="1194" y="1542" on="1"/>
        <pt x="1222" y="1542" on="0"/>
        <pt x="1257" y="1582" on="0"/>
        <pt x="1257" y="1616" on="1"/>
        <pt x="1253" y="1714" on="1"/>
        <pt x="1333" y="1763" on="1"/>
        <pt x="1346" y="1667" on="0"/>
        <pt x="1392" y="1602" on="0"/>
        <pt x="1434" y="1602" on="1"/>
        <pt x="1448" y="1602" on="0"/>
        <pt x="1474" y="1617" on="0"/>
        <pt x="1479" y="1628" on="1"/>
        <pt x="1470" y="1656" on="0"/>
        <pt x="1436" y="1729" on="1"/>
        <pt x="1430" y="1742" on="0"/>
        <pt x="1430" y="1755" on="1"/>
        <pt x="1430" y="1789" on="0"/>
        <pt x="1486" y="1852" on="0"/>
      </contour>
      <contour>
        <pt x="758" y="336" on="1"/>
        <pt x="716" y="508" on="0"/>
        <pt x="688" y="651" on="1"/>
        <pt x="557" y="606" on="0"/>
        <pt x="397" y="513" on="0"/>
        <pt x="336" y="453" on="1"/>
        <pt x="396" y="410" on="0"/>
        <pt x="520" y="366" on="0"/>
        <pt x="675" y="339" on="0"/>
      </contour>
      <contour>
        <pt x="1325" y="2474" on="1"/>
        <pt x="1348" y="2354" on="0"/>
        <pt x="1364" y="2192" on="0"/>
        <pt x="1364" y="2087" on="1"/>
        <pt x="1364" y="2028" on="0"/>
        <pt x="1318" y="1908" on="0"/>
        <pt x="1278" y="1860" on="1"/>
        <pt x="1251" y="1870" on="1"/>
        <pt x="1251" y="2097" on="0"/>
        <pt x="1207" y="2270" on="1"/>
        <pt x="1198" y="2303" on="0"/>
        <pt x="1198" y="2329" on="1"/>
        <pt x="1198" y="2371" on="0"/>
        <pt x="1271" y="2454" on="0"/>
      </contour>
    </TTGlyph>
    <TTGlyph name="beh_dotless_alt.init" xMin="-20" yMin="-20" xMax="735" yMax="963">
      <contour>
        <pt x="0" y="-20" on="1"/>
        <pt x="-20" y="-20" on="0"/>
        <pt x="-20" y="0" on="1"/>
        <pt x="-20" y="246" on="1"/>
        <pt x="-20" y="266" on="0"/>
        <pt x="0" y="266" on="1"/>
        <pt x="183" y="266" on="0"/>
        <pt x="520" y="302" on="0"/>
        <pt x="594" y="334" on="1"/>
        <pt x="562" y="404" on="0"/>
        <pt x="498" y="518" on="0"/>
        <pt x="447" y="611" on="0"/>
        <pt x="416" y="687" on="0"/>
        <pt x="416" y="719" on="1"/>
        <pt x="416" y="778" on="0"/>
        <pt x="548" y="921" on="0"/>
        <pt x="635" y="963" on="1"/>
        <pt x="666" y="806" on="1"/>
        <pt x="735" y="480" on="0"/>
        <pt x="735" y="403" on="1"/>
        <pt x="735" y="301" on="0"/>
        <pt x="641" y="113" on="1"/>
        <pt x="540" y="52" on="0"/>
        <pt x="180" y="-20" on="0"/>
      </contour>
    </TTGlyph>
    <TTGlyph name="beh_dotless_alt.medi" xMin="-20" yMin="-20" xMax="909" yMax="610">
      <contour>
        <pt x="0" y="-20" on="1"/>
        <pt x="-20" y="-20" on="0"/>
        <pt x="-20" y="0" on="1"/>
        <pt x="-20" y="246" on="1"/>
        <pt x="-20" y="266" on="0"/>
        <pt x="0" y="266" on="1"/>
        <pt x="175" y="266" on="0"/>
        <pt x="320" y="284" on="0"/>
        <pt x="411" y="324" on="0"/>
        <pt x="458" y="387" on="0"/>
        <pt x="511" y="495" on="1"/>
        <pt x="547" y="570" on="0"/>
        <pt x="604" y="610" on="0"/>
        <pt x="645" y="610" on="1"/>
        <pt x="704" y="610" on="0"/>
        <pt x="741" y="575" on="1"/>
        <pt x="718" y="521" on="0"/>
        <pt x="666" y="393" on="0"/>
        <pt x="635" y="328" on="1"/>
        <pt x="752" y="266" on="0"/>
        <pt x="889" y="266" on="1"/>
        <pt x="909" y="266" on="0"/>
        <pt x="909" y="246" on="1"/>
        <pt x="909" y="0" on="1"/>
        <pt x="909" y="-20" on="0"/>
        <pt x="889" y="-20" on="1"/>
        <pt x="798" y="-20" on="0"/>
        <pt x="628" y="58" on="0"/>
        <pt x="541" y="145" on="1"/>
        <pt x="516" y="103" on="0"/>
        <pt x="485" y="68" on="1"/>
        <pt x="451" y="29" on="0"/>
        <pt x="172" y="-20" on="0"/>
      </contour>
    </TTGlyph>
    <TTGlyph name="circumflex.arabic" xMin="2" yMin="954" xMax="582" yMax="1475">
      <contour>
        <pt x="215" y="1305" on="1"/>
        <pt x="203" y="1223" on="0"/>
        <pt x="137" y="1027" on="0"/>
        <pt x="90" y="954" on="1"/>
        <pt x="47" y="954" on="0"/>
        <pt x="2" y="1012" on="0"/>
        <pt x="2" y="1057" on="1"/>
        <pt x="2" y="1076" on="0"/>
        <pt x="45" y="1166" on="1"/>
        <pt x="100" y="1280" on="0"/>
        <pt x="147" y="1411" on="1"/>
        <pt x="236" y="1462" on="0"/>
        <pt x="315" y="1475" on="1"/>
        <pt x="379" y="1334" on="0"/>
        <pt x="523" y="1085" on="0"/>
        <pt x="582" y="1012" on="1"/>
        <pt x="559" y="1007" on="0"/>
        <pt x="500" y="993" on="0"/>
        <pt x="469" y="992" on="1"/>
        <pt x="463" y="992" on="1"/>
        <pt x="407" y="992" on="0"/>
        <pt x="339" y="1042" on="0"/>
        <pt x="256" y="1191" on="0"/>
      </contour>
    </TTGlyph>
    <TTGlyph name="damma_01" xMin="-104" yMin="936" xMax="432" yMax="1489">
      <component glyphName="uni064F" x="0" y="0" flags="0x204"/>
    </TTGlyph>
    <TTGlyph name="dammatan_01" xMin="-193" yMin="936" xMax="473" yMax="1489">
      <component glyphName="uni064C" x="0" y="0" flags="0x204"/>
    </TTGlyph>
    <TTGlyph name="diagonal" xMin="-6" yMin="1270" xMax="875" yMax="1784">
      <contour>
        <pt x="10" y="1270" on="1"/>
        <pt x="-6" y="1337" on="0"/>
        <pt x="-6" y="1364" on="1"/>
        <pt x="-6" y="1376" on="0"/>
        <pt x="-2" y="1378" on="1"/>
        <pt x="238" y="1496" on="1"/>
        <pt x="842" y="1784" on="1"/>
        <pt x="875" y="1759" on="0"/>
        <pt x="875" y="1723" on="1"/>
        <pt x="874" y="1708" on="1"/>
        <pt x="864" y="1664" on="0"/>
        <pt x="815" y="1642" on="1"/>
        <pt x="338" y="1428" on="0"/>
      </contour>
    </TTGlyph>
    <TTGlyph name="fatha_01" xMin="-57" yMin="1006" xMax="498" yMax="1350">
      <component glyphName="uni064E" x="0" y="0" flags="0x204"/>
    </TTGlyph>
    <TTGlyph name="fathatan_01" xMin="-88" yMin="987" xMax="498" yMax="1542">
      <component glyphName="uni064B" x="0" y="0" flags="0x204"/>
    </TTGlyph>
    <TTGlyph name="feh_dotless.isol" xMin="152" yMin="-41" xMax="1942" yMax="1217">
      <contour>
        <pt x="739" y="-41" on="1"/>
        <pt x="452" y="-41" on="0"/>
        <pt x="152" y="220" on="0"/>
        <pt x="152" y="473" on="1"/>
        <pt x="152" y="523" on="0"/>
        <pt x="181" y="680" on="0"/>
        <pt x="199" y="737" on="1"/>
        <pt x="307" y="737" on="1"/>
        <pt x="304" y="711" on="1"/>
        <pt x="299" y="618" on="1"/>
        <pt x="299" y="477" on="0"/>
        <pt x="411" y="319" on="0"/>
        <pt x="647" y="244" on="0"/>
        <pt x="827" y="244" on="1"/>
        <pt x="1145" y="244" on="0"/>
        <pt x="1667" y="320" on="0"/>
        <pt x="1817" y="387" on="1"/>
        <pt x="1799" y="463" on="0"/>
        <pt x="1772" y="543" on="1"/>
        <pt x="1703" y="492" on="0"/>
        <pt x="1533" y="430" on="0"/>
        <pt x="1442" y="430" on="1"/>
        <pt x="1355" y="430" on="0"/>
        <pt x="1231" y="501" on="0"/>
        <pt x="1165" y="628" on="0"/>
        <pt x="1165" y="711" on="1"/>
        <pt x="1165" y="836" on="0"/>
        <pt x="1259" y="1075" on="0"/>
        <pt x="1413" y="1217" on="0"/>
        <pt x="1495" y="1217" on="1"/>
        <pt x="1611" y="1217" on="0"/>
        <pt x="1820" y="1005" on="0"/>
        <pt x="1942" y="633" on="0"/>
        <pt x="1942" y="399" on="1"/>
        <pt x="1942" y="322" on="0"/>
        <pt x="1858" y="154" on="1"/>
        <pt x="1629" y="63" on="0"/>
        <pt x="1047" y="-41" on="0"/>
      </contour>
      <contour>
        <pt x="1489" y="633" on="1"/>
        <pt x="1585" y="633" on="0"/>
        <pt x="1718" y="678" on="1"/>
        <pt x="1597" y="930" on="0"/>
        <pt x="1446" y="930" on="1"/>
        <pt x="1383" y="930" on="0"/>
        <pt x="1290" y="839" on="0"/>
        <pt x="1290" y="772" on="1"/>
        <pt x="1290" y="714" on="0"/>
        <pt x="1407" y="633" on="0"/>
      </contour>
    </TTGlyph>
    <TTGlyph name="fourdots.above" xMin="37" yMin="809" xMax="928" yMax="1634">
      <contour>
        <pt x="526" y="1020" on="1"/>
        <pt x="465" y="926" on="0"/>
        <pt x="342" y="809" on="1"/>
        <pt x="213" y="911" on="0"/>
        <pt x="137" y="999" on="1"/>
        <pt x="216" y="1072" on="0"/>
        <pt x="295" y="1159" on="1"/>
        <pt x="338" y="1206" on="1"/>
        <pt x="409" y="1129" on="0"/>
      </contour>
      <contour>
        <pt x="928" y="1065" on="1"/>
        <pt x="865" y="969" on="0"/>
        <pt x="745" y="854" on="1"/>
        <pt x="613" y="957" on="0"/>
        <pt x="541" y="1042" on="1"/>
        <pt x="628" y="1123" on="0"/>
        <pt x="739" y="1251" on="1"/>
        <pt x="805" y="1183" on="0"/>
      </contour>
      <contour>
        <pt x="426" y="1403" on="1"/>
        <pt x="365" y="1309" on="0"/>
        <pt x="242" y="1192" on="1"/>
        <pt x="113" y="1294" on="0"/>
        <pt x="37" y="1382" on="1"/>
        <pt x="91" y="1432" on="0"/>
        <pt x="197" y="1546" on="0"/>
        <pt x="238" y="1589" on="1"/>
        <pt x="309" y="1512" on="0"/>
      </contour>
      <contour>
        <pt x="827" y="1448" on="1"/>
        <pt x="762" y="1349" on="0"/>
        <pt x="645" y="1237" on="1"/>
        <pt x="515" y="1338" on="0"/>
        <pt x="440" y="1425" on="1"/>
        <pt x="532" y="1511" on="0"/>
        <pt x="639" y="1634" on="1"/>
        <pt x="716" y="1554" on="0"/>
      </contour>
    </TTGlyph>
    <TTGlyph name="fourdots.below" xMin="41" yMin="-1016" xMax="932" yMax="-190">
      <contour>
        <pt x="530" y="-805" on="1"/>
        <pt x="469" y="-899" on="0"/>
        <pt x="346" y="-1016" on="1"/>
        <pt x="215" y="-912" on="0"/>
        <pt x="141" y="-825" on="1"/>
        <pt x="208" y="-766" on="0"/>
        <pt x="342" y="-618" on="1"/>
        <pt x="411" y="-694" on="0"/>
      </contour>
      <contour>
        <pt x="932" y="-760" on="1"/>
        <pt x="867" y="-859" on="0"/>
        <pt x="750" y="-971" on="1"/>
        <pt x="617" y="-868" on="0"/>
        <pt x="545" y="-782" on="1"/>
        <pt x="590" y="-742" on="0"/>
        <pt x="721" y="-601" on="0"/>
        <pt x="743" y="-573" on="1"/>
        <pt x="771" y="-602" on="0"/>
      </contour>
      <contour>
        <pt x="430" y="-422" on="1"/>
        <pt x="369" y="-516" on="0"/>
        <pt x="246" y="-633" on="1"/>
        <pt x="115" y="-529" on="0"/>
        <pt x="41" y="-442" on="1"/>
        <pt x="57" y="-428" on="0"/>
        <pt x="88" y="-398" on="0"/>
        <pt x="242" y="-236" on="1"/>
        <pt x="313" y="-313" on="0"/>
      </contour>
      <contour>
        <pt x="831" y="-377" on="1"/>
        <pt x="766" y="-476" on="0"/>
        <pt x="649" y="-588" on="1"/>
        <pt x="522" y="-489" on="0"/>
        <pt x="444" y="-399" on="1"/>
        <pt x="494" y="-355" on="0"/>
        <pt x="609" y="-231" on="0"/>
        <pt x="643" y="-190" on="1"/>
        <pt x="683" y="-233" on="0"/>
      </contour>
    </TTGlyph>
    <TTGlyph name="hah_alt.fina" xMin="164" yMin="-694" xMax="1806" yMax="854">
      <contour>
        <pt x="1786" y="-20" on="1"/>
        <pt x="1584" y="-20" on="0"/>
        <pt x="1300" y="51" on="0"/>
        <pt x="1300" y="98" on="1"/>
        <pt x="1300" y="144" on="0"/>
        <pt x="1329" y="270" on="1"/>
        <pt x="1235" y="287" on="1"/>
        <pt x="1009" y="256" on="0"/>
        <pt x="613" y="51" on="0"/>
        <pt x="410" y="-220" on="0"/>
        <pt x="410" y="-373" on="1"/>
        <pt x="410" y="-437" on="0"/>
        <pt x="430" y="-538" on="0"/>
        <pt x="463" y="-627" on="1"/>
        <pt x="317" y="-694" on="1"/>
        <pt x="284" y="-612" on="0"/>
        <pt x="242" y="-422" on="0"/>
        <pt x="242" y="-356" on="1"/>
        <pt x="242" y="-79" on="0"/>
        <pt x="550" y="316" on="0"/>
        <pt x="854" y="426" on="1"/>
        <pt x="765" y="479" on="1"/>
        <pt x="689" y="525" on="0"/>
        <pt x="565" y="567" on="0"/>
        <pt x="504" y="567" on="1"/>
        <pt x="433" y="567" on="0"/>
        <pt x="313" y="531" on="0"/>
        <pt x="219" y="473" on="1"/>
        <pt x="198" y="494" on="0"/>
        <pt x="164" y="581" on="0"/>
        <pt x="164" y="618" on="1"/>
        <pt x="164" y="688" on="0"/>
        <pt x="251" y="794" on="0"/>
        <pt x="406" y="854" on="0"/>
        <pt x="496" y="854" on="1"/>
        <pt x="590" y="854" on="0"/>
        <pt x="762" y="799" on="0"/>
        <pt x="856" y="741" on="1"/>
        <pt x="1033" y="631" on="0"/>
        <pt x="1240" y="550" on="0"/>
        <pt x="1523" y="502" on="0"/>
        <pt x="1679" y="502" on="1"/>
        <pt x="1569" y="270" on="1"/>
        <pt x="1625" y="266" on="0"/>
        <pt x="1786" y="266" on="1"/>
        <pt x="1806" y="266" on="0"/>
        <pt x="1806" y="246" on="1"/>
        <pt x="1806" y="0" on="1"/>
        <pt x="1806" y="-20" on="0"/>
      </contour>
    </TTGlyph>
    <TTGlyph name="hah_alt.isol" xMin="164" yMin="-694" xMax="1679" yMax="854">
      <contour>
        <pt x="1556" y="246" on="1"/>
        <pt x="1373" y="260" on="0"/>
        <pt x="1235" y="287" on="1"/>
        <pt x="1009" y="256" on="0"/>
        <pt x="613" y="51" on="0"/>
        <pt x="410" y="-220" on="0"/>
        <pt x="410" y="-373" on="1"/>
        <pt x="410" y="-437" on="0"/>
        <pt x="430" y="-538" on="0"/>
        <pt x="463" y="-627" on="1"/>
        <pt x="317" y="-694" on="1"/>
        <pt x="284" y="-612" on="0"/>
        <pt x="242" y="-422" on="0"/>
        <pt x="242" y="-356" on="1"/>
        <pt x="242" y="-79" on="0"/>
        <pt x="550" y="316" on="0"/>
        <pt x="854" y="426" on="1"/>
        <pt x="765" y="479" on="1"/>
        <pt x="689" y="525" on="0"/>
        <pt x="565" y="567" on="0"/>
        <pt x="504" y="567" on="1"/>
        <pt x="433" y="567" on="0"/>
        <pt x="313" y="531" on="0"/>
        <pt x="219" y="473" on="1"/>
        <pt x="198" y="494" on="0"/>
        <pt x="164" y="581" on="0"/>
        <pt x="164" y="618" on="1"/>
        <pt x="164" y="688" on="0"/>
        <pt x="251" y="794" on="0"/>
        <pt x="406" y="854" on="0"/>
        <pt x="496" y="854" on="1"/>
        <pt x="590" y="854" on="0"/>
        <pt x="762" y="799" on="0"/>
        <pt x="856" y="741" on="1"/>
        <pt x="1033" y="631" on="0"/>
        <pt x="1240" y="550" on="0"/>
        <pt x="1523" y="502" on="0"/>
        <pt x="1679" y="502" on="1"/>
      </contour>
    </TTGlyph>
    <TTGlyph name="hamza_medial" xMin="12" yMin="801" xMax="420" yMax="1372">
      <contour>
        <pt x="287" y="1180" on="1"/>
        <pt x="288" y="1190" on="1"/>
        <pt x="288" y="1204" on="0"/>
        <pt x="271" y="1225" on="0"/>
        <pt x="254" y="1225" on="1"/>
        <pt x="187" y="1225" on="0"/>
        <pt x="137" y="1130" on="1"/>
        <pt x="191" y="1081" on="0"/>
        <pt x="279" y="1081" on="1"/>
        <pt x="338" y="1081" on="0"/>
        <pt x="420" y="1100" on="1"/>
        <pt x="408" y="948" on="1"/>
        <pt x="254" y="906" on="0"/>
        <pt x="96" y="843" on="0"/>
        <pt x="18" y="801" on="1"/>
        <pt x="12" y="938" on="1"/>
        <pt x="71" y="979" on="0"/>
        <pt x="117" y="1001" on="1"/>
        <pt x="65" y="1027" on="0"/>
        <pt x="23" y="1086" on="0"/>
        <pt x="23" y="1126" on="1"/>
        <pt x="23" y="1188" on="0"/>
        <pt x="91" y="1301" on="0"/>
        <pt x="202" y="1372" on="0"/>
        <pt x="254" y="1372" on="1"/>
        <pt x="308" y="1372" on="0"/>
        <pt x="369" y="1304" on="0"/>
        <pt x="369" y="1253" on="1"/>
        <pt x="369" y="1230" on="0"/>
        <pt x="352" y="1180" on="0"/>
        <pt x="344" y="1167" on="1"/>
      </contour>
    </TTGlyph>
    <TTGlyph name="heh_ae.fina" xMin="164" yMin="-20" xMax="1163" yMax="1139">
      <component glyphName="uni0647.fina" x="0" y="0" flags="0x204"/>
    </TTGlyph>
    <TTGlyph name="kasra_01" xMin="-57" yMin="-526" xMax="498" yMax="-182">
      <component glyphName="uni0650" x="0" y="0" flags="0x204"/>
    </TTGlyph>
    <TTGlyph name="kasratan_01" xMin="-88" yMin="-676" xMax="498" yMax="-121">
      <component glyphName="uni064D" x="0" y="0" flags="0x204"/>
    </TTGlyph>
    <TTGlyph name="onedot.above" xMin="266" yMin="786" xMax="684" yMax="1214">
      <contour>
        <pt x="684" y="1012" on="1"/>
        <pt x="611" y="904" on="0"/>
        <pt x="485" y="786" on="1"/>
        <pt x="335" y="910" on="0"/>
        <pt x="266" y="989" on="1"/>
        <pt x="411" y="1134" on="0"/>
        <pt x="481" y="1214" on="1"/>
        <pt x="564" y="1120" on="0"/>
      </contour>
    </TTGlyph>
    <TTGlyph name="onedot.below" xMin="225" yMin="-590" xMax="643" yMax="-162">
      <contour>
        <pt x="643" y="-365" on="1"/>
        <pt x="565" y="-476" on="0"/>
        <pt x="444" y="-590" on="1"/>
        <pt x="294" y="-466" on="0"/>
        <pt x="225" y="-387" on="1"/>
        <pt x="370" y="-242" on="0"/>
        <pt x="440" y="-162" on="1"/>
        <pt x="510" y="-243" on="0"/>
      </contour>
    </TTGlyph>
    <TTGlyph name="patah.wide" xMin="0" yMin="287" xMax="700" yMax="551">
      <contour>
        <pt x="0" y="287" on="1"/>
        <pt x="0" y="551" on="1"/>
        <pt x="700" y="551" on="1"/>
        <pt x="700" y="287" on="1"/>
      </contour>
    </TTGlyph>
    <TTGlyph name="riyal" xMin="164" yMin="-573" xMax="2312" yMax="1802">
      <contour>
        <pt x="1126" y="315" on="1"/>
        <pt x="1013" y="165" on="0"/>
        <pt x="828" y="31" on="0"/>
        <pt x="748" y="31" on="1"/>
        <pt x="424" y="31" on="0"/>
        <pt x="424" y="487" on="1"/>
        <pt x="424" y="669" on="0"/>
        <pt x="539" y="936" on="1"/>
        <pt x="662" y="897" on="1"/>
        <pt x="588" y="705" on="0"/>
        <pt x="588" y="569" on="1"/>
        <pt x="588" y="455" on="0"/>
        <pt x="660" y="317" on="0"/>
        <pt x="725" y="317" on="1"/>
        <pt x="811" y="317" on="0"/>
        <pt x="973" y="435" on="0"/>
        <pt x="1079" y="582" on="1"/>
        <pt x="1075" y="606" on="1"/>
        <pt x="1027" y="888" on="1"/>
        <pt x="934" y="1448" on="1"/>
        <pt x="930" y="1495" on="1"/>
        <pt x="930" y="1597" on="0"/>
        <pt x="1085" y="1741" on="0"/>
        <pt x="1190" y="1741" on="1"/>
        <pt x="1223" y="1620" on="0"/>
        <pt x="1251" y="1536" on="0"/>
        <pt x="1286" y="1444" on="1"/>
        <pt x="1210" y="1384" on="1"/>
        <pt x="1231" y="1112" on="0"/>
        <pt x="1260" y="834" on="1"/>
        <pt x="1351" y="956" on="0"/>
        <pt x="1417" y="1028" on="1"/>
        <pt x="1356" y="1642" on="1"/>
        <pt x="1642" y="1802" on="1"/>
        <pt x="1630" y="1229" on="1"/>
        <pt x="1760" y="1317" on="0"/>
        <pt x="1901" y="1317" on="1"/>
        <pt x="1992" y="1317" on="0"/>
        <pt x="2116" y="1201" on="0"/>
        <pt x="2116" y="1118" on="1"/>
        <pt x="2116" y="1083" on="0"/>
        <pt x="2086" y="1008" on="0"/>
        <pt x="2040" y="950" on="0"/>
        <pt x="2028" y="950" on="1"/>
        <pt x="2000" y="1000" on="0"/>
        <pt x="1920" y="1040" on="0"/>
        <pt x="1862" y="1040" on="1"/>
        <pt x="1737" y="1040" on="0"/>
        <pt x="1626" y="961" on="1"/>
        <pt x="1622" y="649" on="0"/>
        <pt x="1622" y="334" on="1"/>
        <pt x="1679" y="296" on="0"/>
        <pt x="1802" y="266" on="0"/>
        <pt x="1886" y="266" on="1"/>
        <pt x="2024" y="266" on="0"/>
        <pt x="2134" y="313" on="1"/>
        <pt x="2102" y="384" on="0"/>
        <pt x="2039" y="489" on="0"/>
        <pt x="1989" y="571" on="0"/>
        <pt x="1958" y="638" on="0"/>
        <pt x="1958" y="670" on="1"/>
        <pt x="1958" y="730" on="0"/>
        <pt x="2091" y="871" on="0"/>
        <pt x="2177" y="913" on="1"/>
        <pt x="2207" y="761" on="1"/>
        <pt x="2247" y="576" on="0"/>
        <pt x="2275" y="423" on="0"/>
        <pt x="2275" y="383" on="1"/>
        <pt x="2275" y="280" on="0"/>
        <pt x="2181" y="92" on="1"/>
        <pt x="2100" y="43" on="0"/>
        <pt x="1905" y="-20" on="0"/>
        <pt x="1841" y="-20" on="1"/>
        <pt x="1698" y="-20" on="0"/>
        <pt x="1539" y="80" on="0"/>
        <pt x="1520" y="197" on="1"/>
        <pt x="1483" y="408" on="0"/>
        <pt x="1444" y="776" on="1"/>
        <pt x="1374" y="691" on="0"/>
        <pt x="1290" y="557" on="1"/>
        <pt x="1306" y="404" on="0"/>
        <pt x="1331" y="143" on="0"/>
        <pt x="1331" y="37" on="1"/>
        <pt x="1331" y="-123" on="0"/>
        <pt x="1139" y="-397" on="0"/>
        <pt x="806" y="-553" on="0"/>
        <pt x="606" y="-553" on="1"/>
        <pt x="390" y="-553" on="0"/>
        <pt x="164" y="-300" on="0"/>
        <pt x="164" y="-57" on="1"/>
        <pt x="164" y="68" on="0"/>
        <pt x="223" y="291" on="1"/>
        <pt x="330" y="264" on="1"/>
        <pt x="297" y="156" on="0"/>
        <pt x="297" y="74" on="1"/>
        <pt x="297" y="-99" on="0"/>
        <pt x="451" y="-266" on="0"/>
        <pt x="612" y="-266" on="1"/>
        <pt x="809" y="-266" on="0"/>
        <pt x="1077" y="-164" on="0"/>
        <pt x="1196" y="-53" on="1"/>
      </contour>
      <contour>
        <pt x="1911" y="-362" on="1"/>
        <pt x="1851" y="-453" on="0"/>
        <pt x="1726" y="-573" on="1"/>
        <pt x="1590" y="-463" on="0"/>
        <pt x="1522" y="-383" on="1"/>
        <pt x="1595" y="-316" on="0"/>
        <pt x="1679" y="-223" on="1"/>
        <pt x="1722" y="-176" on="1"/>
        <pt x="1793" y="-254" on="0"/>
      </contour>
      <contour>
        <pt x="2312" y="-317" on="1"/>
        <pt x="2247" y="-416" on="0"/>
        <pt x="2130" y="-528" on="1"/>
        <pt x="1995" y="-423" on="0"/>
        <pt x="1925" y="-340" on="1"/>
        <pt x="2017" y="-254" on="0"/>
        <pt x="2124" y="-131" on="1"/>
        <pt x="2176" y="-187" on="0"/>
      </contour>
    </TTGlyph>
    <TTGlyph name="shadda_01" xMin="-78" yMin="977" xMax="438" yMax="1409">
      <component glyphName="uni0651" x="0" y="0" flags="0x204"/>
    </TTGlyph>
    <TTGlyph name="smallv.arabic" xMin="-16" yMin="954" xMax="563" yMax="1475">
      <contour>
        <pt x="350" y="1122" on="1"/>
        <pt x="362" y="1203" on="0"/>
        <pt x="427" y="1398" on="0"/>
        <pt x="475" y="1475" on="1"/>
        <pt x="518" y="1475" on="0"/>
        <pt x="563" y="1417" on="0"/>
        <pt x="563" y="1372" on="1"/>
        <pt x="563" y="1357" on="0"/>
        <pt x="540" y="1305" on="0"/>
        <pt x="501" y="1222" on="0"/>
        <pt x="448" y="1102" on="0"/>
        <pt x="418" y="1018" on="1"/>
        <pt x="333" y="968" on="0"/>
        <pt x="250" y="954" on="1"/>
        <pt x="186" y="1094" on="0"/>
        <pt x="40" y="1347" on="0"/>
        <pt x="-16" y="1417" on="1"/>
        <pt x="68" y="1436" on="0"/>
        <pt x="98" y="1437" on="1"/>
        <pt x="103" y="1437" on="1"/>
        <pt x="158" y="1437" on="0"/>
        <pt x="225" y="1389" on="0"/>
        <pt x="313" y="1225" on="0"/>
      </contour>
    </TTGlyph>
    <TTGlyph name="sukun_01" xMin="16" yMin="1010" xMax="348" yMax="1403">
      <component glyphName="uni0652" x="0" y="0" flags="0x204"/>
    </TTGlyph>
    <TTGlyph name="threedots.above" xMin="139" yMin="805" xMax="971" yMax="1495">
      <contour>
        <pt x="733" y="1307" on="1"/>
        <pt x="617" y="1177" on="0"/>
        <pt x="555" y="1137" on="1"/>
        <pt x="512" y="1164" on="0"/>
        <pt x="400" y="1259" on="0"/>
        <pt x="360" y="1307" on="1"/>
        <pt x="459" y="1395" on="0"/>
        <pt x="545" y="1495" on="1"/>
        <pt x="615" y="1404" on="0"/>
      </contour>
      <contour>
        <pt x="528" y="1014" on="1"/>
        <pt x="459" y="913" on="0"/>
        <pt x="344" y="805" on="1"/>
        <pt x="214" y="908" on="0"/>
        <pt x="139" y="993" on="1"/>
        <pt x="218" y="1066" on="0"/>
        <pt x="297" y="1153" on="1"/>
        <pt x="340" y="1200" on="1"/>
        <pt x="403" y="1131" on="0"/>
      </contour>
      <contour>
        <pt x="971" y="1059" on="1"/>
        <pt x="901" y="955" on="0"/>
        <pt x="788" y="850" on="1"/>
        <pt x="656" y="953" on="0"/>
        <pt x="584" y="1038" on="1"/>
        <pt x="650" y="1099" on="0"/>
        <pt x="782" y="1245" on="1"/>
        <pt x="835" y="1189" on="0"/>
      </contour>
    </TTGlyph>
    <TTGlyph name="threedots.below" xMin="119" yMin="-838" xMax="950" yMax="-131">
      <contour>
        <pt x="508" y="-362" on="1"/>
        <pt x="445" y="-457" on="0"/>
        <pt x="324" y="-571" on="1"/>
        <pt x="194" y="-468" on="0"/>
        <pt x="119" y="-383" on="1"/>
        <pt x="192" y="-316" on="0"/>
        <pt x="276" y="-223" on="1"/>
        <pt x="319" y="-176" on="1"/>
        <pt x="390" y="-254" on="0"/>
      </contour>
      <contour>
        <pt x="950" y="-317" on="1"/>
        <pt x="885" y="-416" on="0"/>
        <pt x="768" y="-528" on="1"/>
        <pt x="635" y="-424" on="0"/>
        <pt x="563" y="-338" on="1"/>
        <pt x="635" y="-271" on="0"/>
        <pt x="762" y="-131" on="1"/>
        <pt x="814" y="-187" on="0"/>
      </contour>
      <contour>
        <pt x="750" y="-668" on="1"/>
        <pt x="623" y="-803" on="0"/>
        <pt x="571" y="-838" on="1"/>
        <pt x="465" y="-769" on="0"/>
        <pt x="377" y="-668" on="1"/>
        <pt x="479" y="-572" on="0"/>
        <pt x="561" y="-477" on="1"/>
        <pt x="596" y="-524" on="0"/>
        <pt x="703" y="-632" on="0"/>
      </contour>
    </TTGlyph>
    <TTGlyph name="threedots.horz.below" xMin="31" yMin="-684" xMax="1223" yMax="-190">
      <contour>
        <pt x="821" y="-422" on="1"/>
        <pt x="760" y="-516" on="0"/>
        <pt x="637" y="-633" on="1"/>
        <pt x="506" y="-529" on="0"/>
        <pt x="432" y="-442" on="1"/>
        <pt x="502" y="-380" on="0"/>
        <pt x="590" y="-283" on="1"/>
        <pt x="633" y="-236" on="1"/>
        <pt x="704" y="-313" on="0"/>
      </contour>
      <contour>
        <pt x="1223" y="-377" on="1"/>
        <pt x="1160" y="-473" on="0"/>
        <pt x="1040" y="-588" on="1"/>
        <pt x="910" y="-487" on="0"/>
        <pt x="836" y="-399" on="1"/>
        <pt x="881" y="-359" on="0"/>
        <pt x="1012" y="-218" on="0"/>
        <pt x="1034" y="-190" on="1"/>
        <pt x="1062" y="-219" on="0"/>
      </contour>
      <contour>
        <pt x="420" y="-473" on="1"/>
        <pt x="359" y="-567" on="0"/>
        <pt x="236" y="-684" on="1"/>
        <pt x="107" y="-582" on="0"/>
        <pt x="31" y="-494" on="1"/>
        <pt x="104" y="-427" on="0"/>
        <pt x="188" y="-334" on="1"/>
        <pt x="231" y="-287" on="1"/>
        <pt x="311" y="-373" on="0"/>
      </contour>
    </TTGlyph>
    <TTGlyph name="threedots.horz_alt1.below" xMin="-15" yMin="-684" xMax="1177" yMax="-190">
      <component glyphName="threedots.horz.below" x="-46" y="0" flags="0x4"/>
    </TTGlyph>
    <TTGlyph name="threedots.rev.above" xMin="147" yMin="799" xMax="979" yMax="1505">
      <contour>
        <pt x="537" y="1274" on="1"/>
        <pt x="470" y="1175" on="0"/>
        <pt x="352" y="1065" on="1"/>
        <pt x="216" y="1175" on="0"/>
        <pt x="147" y="1253" on="1"/>
        <pt x="226" y="1326" on="0"/>
        <pt x="305" y="1413" on="1"/>
        <pt x="348" y="1460" on="1"/>
        <pt x="419" y="1382" on="0"/>
      </contour>
      <contour>
        <pt x="979" y="1319" on="1"/>
        <pt x="914" y="1220" on="0"/>
        <pt x="797" y="1108" on="1"/>
        <pt x="663" y="1212" on="0"/>
        <pt x="592" y="1298" on="1"/>
        <pt x="672" y="1372" on="0"/>
        <pt x="748" y="1458" on="1"/>
        <pt x="791" y="1505" on="1"/>
        <pt x="853" y="1439" on="0"/>
      </contour>
      <contour>
        <pt x="778" y="969" on="1"/>
        <pt x="660" y="840" on="0"/>
        <pt x="600" y="799" on="1"/>
        <pt x="489" y="872" on="0"/>
        <pt x="406" y="969" on="1"/>
        <pt x="495" y="1053" on="0"/>
        <pt x="590" y="1159" on="1"/>
        <pt x="628" y="1109" on="0"/>
        <pt x="734" y="1004" on="0"/>
      </contour>
    </TTGlyph>
    <TTGlyph name="threedots.rev.below" xMin="139" yMin="-819" xMax="971" yMax="-129">
      <contour>
        <pt x="733" y="-317" on="1"/>
        <pt x="617" y="-447" on="0"/>
        <pt x="555" y="-487" on="1"/>
        <pt x="512" y="-460" on="0"/>
        <pt x="400" y="-365" on="0"/>
        <pt x="360" y="-317" on="1"/>
        <pt x="459" y="-229" on="0"/>
        <pt x="545" y="-129" on="1"/>
        <pt x="615" y="-220" on="0"/>
      </contour>
      <contour>
        <pt x="528" y="-610" on="1"/>
        <pt x="465" y="-705" on="0"/>
        <pt x="344" y="-819" on="1"/>
        <pt x="214" y="-716" on="0"/>
        <pt x="139" y="-631" on="1"/>
        <pt x="218" y="-558" on="0"/>
        <pt x="297" y="-471" on="1"/>
        <pt x="340" y="-424" on="1"/>
        <pt x="403" y="-493" on="0"/>
      </contour>
      <contour>
        <pt x="971" y="-565" on="1"/>
        <pt x="901" y="-669" on="0"/>
        <pt x="788" y="-774" on="1"/>
        <pt x="656" y="-671" on="0"/>
        <pt x="584" y="-586" on="1"/>
        <pt x="650" y="-525" on="0"/>
        <pt x="782" y="-379" on="1"/>
        <pt x="835" y="-435" on="0"/>
      </contour>
    </TTGlyph>
    <TTGlyph name="threedots.rev_alt1.below" xMin="-63" yMin="-819" xMax="769" yMax="-129">
      <component glyphName="threedots.rev.below" x="-202" y="0" flags="0x4"/>
    </TTGlyph>
    <TTGlyph name="threedots.small.above" xMin="264" yMin="909" xMax="846" yMax="1391">
      <contour>
        <pt x="680" y="1260" on="1"/>
        <pt x="593" y="1166" on="0"/>
        <pt x="555" y="1141" on="1"/>
        <pt x="477" y="1192" on="0"/>
        <pt x="418" y="1260" on="1"/>
        <pt x="487" y="1321" on="0"/>
        <pt x="547" y="1391" on="1"/>
        <pt x="597" y="1329" on="0"/>
      </contour>
      <contour>
        <pt x="537" y="1055" on="1"/>
        <pt x="486" y="982" on="0"/>
        <pt x="408" y="909" on="1"/>
        <pt x="327" y="968" on="0"/>
        <pt x="264" y="1040" on="1"/>
        <pt x="323" y="1094" on="0"/>
        <pt x="403" y="1186" on="1"/>
        <pt x="417" y="1171" on="0"/>
      </contour>
      <contour>
        <pt x="846" y="1085" on="1"/>
        <pt x="803" y="1019" on="0"/>
        <pt x="719" y="940" on="1"/>
        <pt x="623" y="1014" on="0"/>
        <pt x="575" y="1071" on="1"/>
        <pt x="623" y="1116" on="0"/>
        <pt x="715" y="1217" on="1"/>
        <pt x="783" y="1147" on="1"/>
      </contour>
    </TTGlyph>
    <TTGlyph name="threedots.small.below" xMin="244" yMin="-731" xMax="825" yMax="-238">
      <contour>
        <pt x="516" y="-399" on="1"/>
        <pt x="465" y="-472" on="0"/>
        <pt x="387" y="-545" on="1"/>
        <pt x="299" y="-476" on="0"/>
        <pt x="244" y="-414" on="1"/>
        <pt x="293" y="-368" on="0"/>
        <pt x="383" y="-268" on="1"/>
      </contour>
      <contour>
        <pt x="825" y="-367" on="1"/>
        <pt x="779" y="-437" on="0"/>
        <pt x="698" y="-516" on="1"/>
        <pt x="605" y="-445" on="0"/>
        <pt x="555" y="-381" on="1"/>
        <pt x="592" y="-347" on="0"/>
        <pt x="666" y="-267" on="0"/>
        <pt x="694" y="-238" on="1"/>
        <pt x="737" y="-285" on="0"/>
      </contour>
      <contour>
        <pt x="684" y="-612" on="1"/>
        <pt x="594" y="-709" on="0"/>
        <pt x="561" y="-731" on="1"/>
        <pt x="482" y="-682" on="0"/>
        <pt x="424" y="-612" on="1"/>
        <pt x="486" y="-557" on="0"/>
        <pt x="553" y="-479" on="1"/>
        <pt x="599" y="-542" on="0"/>
      </contour>
    </TTGlyph>
    <TTGlyph name="threedots_alt1.below" xMin="-62" yMin="-838" xMax="769" yMax="-131">
      <component glyphName="threedots.below" x="-181" y="0" flags="0x4"/>
    </TTGlyph>
    <TTGlyph name="threedots_alt2.below" xMin="-40" yMin="-731" xMax="541" yMax="-238">
      <component glyphName="threedots.small.below" x="-284" y="0" flags="0x4"/>
    </TTGlyph>
    <TTGlyph name="twodots.above" xMin="82" yMin="809" xMax="872" yMax="1251">
      <contour>
        <pt x="471" y="1020" on="1"/>
        <pt x="410" y="926" on="0"/>
        <pt x="287" y="809" on="1"/>
        <pt x="158" y="911" on="0"/>
        <pt x="82" y="999" on="1"/>
        <pt x="136" y="1049" on="0"/>
        <pt x="242" y="1163" on="0"/>
        <pt x="283" y="1206" on="1"/>
        <pt x="354" y="1129" on="0"/>
      </contour>
      <contour>
        <pt x="872" y="1065" on="1"/>
        <pt x="807" y="966" on="0"/>
        <pt x="690" y="854" on="1"/>
        <pt x="560" y="955" on="0"/>
        <pt x="485" y="1042" on="1"/>
        <pt x="577" y="1128" on="0"/>
        <pt x="684" y="1251" on="1"/>
        <pt x="761" y="1171" on="0"/>
      </contour>
    </TTGlyph>
    <TTGlyph name="twodots.below" xMin="41" yMin="-633" xMax="831" yMax="-190">
      <contour>
        <pt x="430" y="-422" on="1"/>
        <pt x="369" y="-516" on="0"/>
        <pt x="246" y="-633" on="1"/>
        <pt x="115" y="-529" on="0"/>
        <pt x="41" y="-442" on="1"/>
        <pt x="57" y="-428" on="0"/>
        <pt x="88" y="-398" on="0"/>
        <pt x="242" y="-236" on="1"/>
        <pt x="313" y="-313" on="0"/>
      </contour>
      <contour>
        <pt x="831" y="-377" on="1"/>
        <pt x="766" y="-476" on="0"/>
        <pt x="649" y="-588" on="1"/>
        <pt x="522" y="-489" on="0"/>
        <pt x="444" y="-399" on="1"/>
        <pt x="494" y="-355" on="0"/>
        <pt x="609" y="-231" on="0"/>
        <pt x="643" y="-190" on="1"/>
        <pt x="683" y="-233" on="0"/>
      </contour>
    </TTGlyph>
    <TTGlyph name="twodots.small.above" xMin="201" yMin="874" xMax="754" yMax="1186">
      <contour>
        <pt x="473" y="1022" on="1"/>
        <pt x="414" y="942" on="0"/>
        <pt x="344" y="874" on="1"/>
        <pt x="264" y="936" on="0"/>
        <pt x="201" y="1008" on="1"/>
        <pt x="275" y="1084" on="1"/>
        <pt x="340" y="1153" on="1"/>
      </contour>
      <contour>
        <pt x="754" y="1055" on="1"/>
        <pt x="703" y="981" on="0"/>
        <pt x="627" y="907" on="1"/>
        <pt x="535" y="976" on="0"/>
        <pt x="483" y="1038" on="1"/>
        <pt x="544" y="1096" on="0"/>
        <pt x="623" y="1186" on="1"/>
        <pt x="664" y="1139" on="0"/>
      </contour>
    </TTGlyph>
    <TTGlyph name="twodots.small.below" xMin="160" yMin="-567" xMax="713" yMax="-256">
      <contour>
        <pt x="432" y="-420" on="1"/>
        <pt x="384" y="-488" on="0"/>
        <pt x="303" y="-567" on="1"/>
        <pt x="221" y="-502" on="0"/>
        <pt x="160" y="-434" on="1"/>
        <pt x="234" y="-358" on="1"/>
        <pt x="299" y="-289" on="1"/>
      </contour>
      <contour>
        <pt x="713" y="-387" on="1"/>
        <pt x="662" y="-461" on="0"/>
        <pt x="586" y="-535" on="1"/>
        <pt x="488" y="-460" on="0"/>
        <pt x="442" y="-403" on="1"/>
        <pt x="501" y="-349" on="0"/>
        <pt x="582" y="-256" on="1"/>
        <pt x="623" y="-303" on="0"/>
      </contour>
    </TTGlyph>
    <TTGlyph name="twodots.vert.above" xMin="25" yMin="809" xMax="471" yMax="1618">
      <contour>
        <pt x="471" y="1020" on="1"/>
        <pt x="410" y="926" on="0"/>
        <pt x="287" y="809" on="1"/>
        <pt x="158" y="911" on="0"/>
        <pt x="82" y="999" on="1"/>
        <pt x="136" y="1049" on="0"/>
        <pt x="242" y="1163" on="0"/>
        <pt x="283" y="1206" on="1"/>
        <pt x="354" y="1129" on="0"/>
      </contour>
      <contour>
        <pt x="412" y="1432" on="1"/>
        <pt x="349" y="1336" on="0"/>
        <pt x="229" y="1221" on="1"/>
        <pt x="97" y="1324" on="0"/>
        <pt x="25" y="1409" on="1"/>
        <pt x="112" y="1490" on="0"/>
        <pt x="223" y="1618" on="1"/>
        <pt x="276" y="1562" on="0"/>
      </contour>
    </TTGlyph>
    <TTGlyph name="twodots.vert.below" xMin="35" yMin="-1022" xMax="481" yMax="-213">
      <contour>
        <pt x="481" y="-811" on="1"/>
        <pt x="420" y="-905" on="0"/>
        <pt x="297" y="-1022" on="1"/>
        <pt x="166" y="-918" on="0"/>
        <pt x="92" y="-831" on="1"/>
        <pt x="162" y="-769" on="0"/>
        <pt x="250" y="-672" on="1"/>
        <pt x="293" y="-625" on="1"/>
        <pt x="364" y="-702" on="0"/>
      </contour>
      <contour>
        <pt x="422" y="-399" on="1"/>
        <pt x="357" y="-498" on="0"/>
        <pt x="240" y="-610" on="1"/>
        <pt x="105" y="-505" on="0"/>
        <pt x="35" y="-422" on="1"/>
        <pt x="122" y="-341" on="0"/>
        <pt x="233" y="-213" on="1"/>
        <pt x="286" y="-269" on="0"/>
      </contour>
    </TTGlyph>
    <TTGlyph name="twodots.vert.small.above" xMin="92" yMin="930" xMax="403" yMax="1497">
      <contour>
        <pt x="403" y="1077" on="1"/>
        <pt x="355" y="1009" on="0"/>
        <pt x="274" y="930" on="1"/>
        <pt x="198" y="989" on="0"/>
        <pt x="131" y="1063" on="1"/>
        <pt x="205" y="1131" on="0"/>
        <pt x="272" y="1208" on="1"/>
        <pt x="307" y="1170" on="0"/>
      </contour>
      <contour>
        <pt x="362" y="1366" on="1"/>
        <pt x="307" y="1285" on="0"/>
        <pt x="236" y="1219" on="1"/>
        <pt x="144" y="1288" on="0"/>
        <pt x="92" y="1350" on="1"/>
        <pt x="166" y="1420" on="0"/>
        <pt x="231" y="1497" on="1"/>
      </contour>
    </TTGlyph>
    <TTGlyph name="twodots.vert.small.below" xMin="102" yMin="-901" xMax="414" yMax="-334">
      <contour>
        <pt x="414" y="-754" on="1"/>
        <pt x="366" y="-822" on="0"/>
        <pt x="285" y="-901" on="1"/>
        <pt x="206" y="-839" on="0"/>
        <pt x="141" y="-768" on="1"/>
        <pt x="199" y="-716" on="0"/>
        <pt x="283" y="-623" on="1"/>
        <pt x="318" y="-661" on="0"/>
      </contour>
      <contour>
        <pt x="373" y="-465" on="1"/>
        <pt x="331" y="-530" on="0"/>
        <pt x="246" y="-612" on="1"/>
        <pt x="150" y="-538" on="0"/>
        <pt x="102" y="-481" on="1"/>
        <pt x="161" y="-427" on="0"/>
        <pt x="242" y="-334" on="1"/>
        <pt x="310" y="-403" on="1"/>
      </contour>
    </TTGlyph>
    <TTGlyph name="twodots.vert_alt1.below" xMin="-54" yMin="-1022" xMax="392" yMax="-213">
      <component glyphName="twodots.vert.below" x="-89" y="0" flags="0x4"/>
    </TTGlyph>
    <TTGlyph name="twodots_alt1.below" xMin="-21" yMin="-633" xMax="769" yMax="-190">
      <component glyphName="twodots.below" x="-62" y="0" flags="0x4"/>
    </TTGlyph>
    <TTGlyph name="uni0600" xMin="43" yMin="-471" xMax="1536" yMax="346">
      <contour>
        <pt x="1536" y="-150" on="1"/>
        <pt x="1527" y="-203" on="0"/>
        <pt x="1456" y="-395" on="0"/>
        <pt x="1436" y="-426" on="1"/>
        <pt x="1358" y="-444" on="0"/>
        <pt x="949" y="-471" on="0"/>
        <pt x="788" y="-471" on="1"/>
        <pt x="434" y="-471" on="0"/>
        <pt x="195" y="-426" on="1"/>
        <pt x="124" y="-412" on="0"/>
        <pt x="43" y="-288" on="0"/>
        <pt x="43" y="-193" on="1"/>
        <pt x="45" y="-152" on="1"/>
        <pt x="457" y="-195" on="0"/>
        <pt x="928" y="-195" on="1"/>
        <pt x="928" y="-131" on="0"/>
        <pt x="962" y="0" on="0"/>
        <pt x="1026" y="109" on="0"/>
        <pt x="1131" y="196" on="0"/>
        <pt x="1303" y="313" on="0"/>
        <pt x="1370" y="346" on="1"/>
        <pt x="1410" y="297" on="0"/>
        <pt x="1410" y="211" on="1"/>
        <pt x="1410" y="152" on="0"/>
        <pt x="1365" y="46" on="0"/>
        <pt x="1275" y="-9" on="0"/>
        <pt x="1148" y="-68" on="1"/>
        <pt x="1057" y="-111" on="0"/>
        <pt x="1057" y="-135" on="1"/>
        <pt x="1057" y="-188" on="0"/>
        <pt x="1184" y="-188" on="1"/>
        <pt x="1363" y="-188" on="0"/>
      </contour>
    </TTGlyph>
    <TTGlyph name="uni0601" xMin="57" yMin="-768" xMax="3914" yMax="-35">
      <contour>
        <pt x="3623" y="-492" on="1"/>
        <pt x="3686" y="-429" on="0"/>
        <pt x="3766" y="-320" on="0"/>
        <pt x="3766" y="-295" on="1"/>
        <pt x="3766" y="-285" on="0"/>
        <pt x="3756" y="-285" on="1"/>
        <pt x="3733" y="-285" on="0"/>
        <pt x="3676" y="-303" on="1"/>
        <pt x="3587" y="-331" on="0"/>
        <pt x="3179" y="-441" on="0"/>
        <pt x="2738" y="-535" on="0"/>
        <pt x="2317" y="-584" on="0"/>
        <pt x="2142" y="-584" on="1"/>
        <pt x="1877" y="-584" on="0"/>
        <pt x="1440" y="-510" on="0"/>
        <pt x="1237" y="-424" on="1"/>
        <pt x="1207" y="-412" on="0"/>
        <pt x="1194" y="-412" on="1"/>
        <pt x="1183" y="-412" on="0"/>
        <pt x="1150" y="-461" on="1"/>
        <pt x="1119" y="-507" on="1"/>
        <pt x="1054" y="-602" on="0"/>
        <pt x="987" y="-602" on="1"/>
        <pt x="894" y="-602" on="0"/>
        <pt x="806" y="-468" on="1"/>
        <pt x="758" y="-395" on="0"/>
        <pt x="701" y="-334" on="0"/>
        <pt x="678" y="-334" on="1"/>
        <pt x="624" y="-334" on="0"/>
        <pt x="514" y="-445" on="0"/>
        <pt x="456" y="-551" on="1"/>
        <pt x="391" y="-669" on="0"/>
        <pt x="304" y="-768" on="0"/>
        <pt x="264" y="-768" on="1"/>
        <pt x="170" y="-768" on="0"/>
        <pt x="57" y="-597" on="0"/>
        <pt x="57" y="-451" on="1"/>
        <pt x="57" y="-385" on="0"/>
        <pt x="101" y="-221" on="0"/>
        <pt x="158" y="-102" on="1"/>
        <pt x="266" y="-158" on="1"/>
        <pt x="203" y="-275" on="0"/>
        <pt x="203" y="-381" on="1"/>
        <pt x="203" y="-426" on="0"/>
        <pt x="235" y="-481" on="0"/>
        <pt x="260" y="-481" on="1"/>
        <pt x="292" y="-481" on="0"/>
        <pt x="363" y="-396" on="0"/>
        <pt x="443" y="-264" on="1"/>
        <pt x="572" y="-47" on="0"/>
        <pt x="707" y="-47" on="1"/>
        <pt x="744" y="-47" on="0"/>
        <pt x="810" y="-112" on="0"/>
        <pt x="849" y="-181" on="1"/>
        <pt x="886" y="-246" on="0"/>
        <pt x="971" y="-315" on="0"/>
        <pt x="1024" y="-315" on="1"/>
        <pt x="1086" y="-315" on="0"/>
        <pt x="1136" y="-219" on="1"/>
        <pt x="1164" y="-164" on="0"/>
        <pt x="1193" y="-123" on="0"/>
        <pt x="1206" y="-123" on="1"/>
        <pt x="1217" y="-123" on="0"/>
        <pt x="1246" y="-136" on="1"/>
        <pt x="1319" y="-170" on="0"/>
        <pt x="1580" y="-249" on="0"/>
        <pt x="1964" y="-297" on="0"/>
        <pt x="2183" y="-297" on="1"/>
        <pt x="2756" y="-297" on="0"/>
        <pt x="3512" y="-92" on="1"/>
        <pt x="3721" y="-35" on="0"/>
        <pt x="3785" y="-35" on="1"/>
        <pt x="3842" y="-35" on="0"/>
        <pt x="3914" y="-113" on="0"/>
        <pt x="3914" y="-170" on="1"/>
        <pt x="3914" y="-383" on="0"/>
        <pt x="3715" y="-573" on="1"/>
      </contour>
    </TTGlyph>
    <TTGlyph name="uni0602" xMin="94" yMin="-469" xMax="1627" yMax="252">
      <contour>
        <pt x="694" y="-29" on="1"/>
        <pt x="694" y="-112" on="0"/>
        <pt x="649" y="-193" on="1"/>
        <pt x="950" y="-189" on="0"/>
        <pt x="1385" y="-158" on="0"/>
        <pt x="1618" y="-127" on="1"/>
        <pt x="1627" y="-176" on="0"/>
        <pt x="1627" y="-215" on="1"/>
        <pt x="1627" y="-376" on="0"/>
        <pt x="1491" y="-408" on="1"/>
        <pt x="1388" y="-432" on="0"/>
        <pt x="758" y="-469" on="0"/>
        <pt x="510" y="-469" on="1"/>
        <pt x="307" y="-469" on="0"/>
        <pt x="94" y="-288" on="0"/>
        <pt x="94" y="-119" on="1"/>
        <pt x="94" y="42" on="0"/>
        <pt x="291" y="252" on="0"/>
        <pt x="442" y="252" on="1"/>
        <pt x="547" y="252" on="0"/>
        <pt x="694" y="95" on="0"/>
      </contour>
      <contour>
        <pt x="223" y="-84" on="1"/>
        <pt x="223" y="-136" on="0"/>
        <pt x="352" y="-189" on="0"/>
        <pt x="522" y="-193" on="1"/>
        <pt x="539" y="-149" on="0"/>
        <pt x="539" y="-111" on="1"/>
        <pt x="539" y="-44" on="0"/>
        <pt x="467" y="29" on="0"/>
        <pt x="406" y="29" on="1"/>
        <pt x="327" y="29" on="0"/>
        <pt x="223" y="-33" on="0"/>
      </contour>
    </TTGlyph>
    <TTGlyph name="uni0603" xMin="39" yMin="-545" xMax="1870" yMax="240">
      <contour>
        <pt x="618" y="-461" on="1"/>
        <pt x="484" y="-461" on="0"/>
        <pt x="303" y="-442" on="0"/>
        <pt x="193" y="-420" on="1"/>
        <pt x="122" y="-404" on="0"/>
        <pt x="39" y="-294" on="0"/>
        <pt x="39" y="-213" on="1"/>
        <pt x="39" y="-177" on="0"/>
        <pt x="49" y="-135" on="1"/>
        <pt x="271" y="-173" on="0"/>
        <pt x="496" y="-195" on="0"/>
        <pt x="618" y="-195" on="1"/>
        <pt x="753" y="-195" on="0"/>
        <pt x="865" y="-138" on="0"/>
        <pt x="918" y="-57" on="1"/>
        <pt x="944" y="-20" on="1"/>
        <pt x="990" y="44" on="0"/>
        <pt x="1056" y="44" on="1"/>
        <pt x="1093" y="44" on="0"/>
        <pt x="1128" y="20" on="1"/>
        <pt x="1057" y="-152" on="1"/>
        <pt x="1120" y="-174" on="0"/>
        <pt x="1169" y="-184" on="1"/>
        <pt x="1304" y="38" on="0"/>
        <pt x="1507" y="240" on="0"/>
        <pt x="1589" y="240" on="1"/>
        <pt x="1667" y="240" on="0"/>
        <pt x="1795" y="150" on="0"/>
        <pt x="1870" y="-1" on="0"/>
        <pt x="1870" y="-76" on="1"/>
        <pt x="1870" y="-188" on="0"/>
        <pt x="1746" y="-379" on="0"/>
        <pt x="1541" y="-489" on="0"/>
        <pt x="1427" y="-489" on="1"/>
        <pt x="1287" y="-489" on="0"/>
        <pt x="1159" y="-457" on="1"/>
        <pt x="1104" y="-545" on="1"/>
        <pt x="999" y="-479" on="1"/>
        <pt x="1034" y="-416" on="1"/>
        <pt x="959" y="-388" on="0"/>
        <pt x="926" y="-371" on="1"/>
        <pt x="924" y="-373" on="1"/>
        <pt x="886" y="-411" on="0"/>
        <pt x="716" y="-461" on="0"/>
      </contour>
      <contour>
        <pt x="1581" y="-20" on="1"/>
        <pt x="1469" y="-20" on="0"/>
        <pt x="1325" y="-207" on="1"/>
        <pt x="1383" y="-213" on="0"/>
        <pt x="1432" y="-213" on="1"/>
        <pt x="1615" y="-213" on="0"/>
        <pt x="1747" y="-111" on="1"/>
        <pt x="1701" y="-66" on="0"/>
        <pt x="1626" y="-20" on="0"/>
      </contour>
    </TTGlyph>
    <TTGlyph name="uni060B" xMin="-20" yMin="-684" xMax="907" yMax="1707">
      <component glyphName="uni066F.init" x="0" y="0" flags="0x4"/>
      <component glyphName="onedot.above" x="-110" y="493" flags="0x4"/>
      <component glyphName="uni0656" x="532" y="117" flags="0x4"/>
    </TTGlyph>
    <TTGlyph name="uni060C" xMin="82" yMin="-41" xMax="449" yMax="586">
      <contour>
        <pt x="82" y="184" on="1"/>
        <pt x="82" y="331" on="0"/>
        <pt x="267" y="537" on="0"/>
        <pt x="449" y="586" on="1"/>
        <pt x="449" y="479" on="1"/>
        <pt x="349" y="443" on="0"/>
        <pt x="268" y="372" on="0"/>
        <pt x="268" y="319" on="1"/>
        <pt x="268" y="289" on="0"/>
        <pt x="307" y="265" on="1"/>
        <pt x="343" y="242" on="1"/>
        <pt x="418" y="195" on="0"/>
        <pt x="418" y="100" on="1"/>
        <pt x="418" y="31" on="0"/>
        <pt x="333" y="-41" on="0"/>
        <pt x="270" y="-41" on="1"/>
        <pt x="184" y="-41" on="0"/>
        <pt x="82" y="79" on="0"/>
      </contour>
    </TTGlyph>
    <TTGlyph name="uni060D" xMin="70" yMin="-426" xMax="561" yMax="416">
      <contour>
        <pt x="561" y="168" on="1"/>
        <pt x="416" y="25" on="0"/>
        <pt x="233" y="-263" on="0"/>
        <pt x="180" y="-426" on="1"/>
        <pt x="70" y="-395" on="0"/>
        <pt x="70" y="-276" on="1"/>
        <pt x="70" y="-205" on="0"/>
        <pt x="165" y="20" on="0"/>
        <pt x="356" y="278" on="0"/>
        <pt x="487" y="416" on="1"/>
      </contour>
    </TTGlyph>
    <TTGlyph name="uni060E" xMin="150" yMin="-41" xMax="2058" yMax="772">
      <contour>
        <pt x="944" y="348" on="1"/>
        <pt x="944" y="308" on="0"/>
        <pt x="932" y="236" on="1"/>
        <pt x="1154" y="241" on="0"/>
        <pt x="1610" y="303" on="0"/>
        <pt x="1914" y="409" on="0"/>
        <pt x="1968" y="477" on="1"/>
        <pt x="2058" y="399" on="1"/>
        <pt x="1964" y="224" on="0"/>
        <pt x="1794" y="88" on="0"/>
        <pt x="1514" y="1" on="0"/>
        <pt x="1113" y="-41" on="0"/>
        <pt x="823" y="-41" on="1"/>
        <pt x="454" y="-41" on="0"/>
        <pt x="150" y="123" on="0"/>
        <pt x="150" y="315" on="1"/>
        <pt x="150" y="424" on="0"/>
        <pt x="263" y="636" on="0"/>
        <pt x="483" y="772" on="0"/>
        <pt x="608" y="772" on="1"/>
        <pt x="710" y="772" on="0"/>
        <pt x="862" y="660" on="0"/>
        <pt x="944" y="465" on="0"/>
      </contour>
      <contour>
        <pt x="279" y="352" on="1"/>
        <pt x="279" y="289" on="0"/>
        <pt x="495" y="236" on="0"/>
        <pt x="801" y="236" on="1"/>
        <pt x="803" y="266" on="1"/>
        <pt x="803" y="368" on="0"/>
        <pt x="676" y="489" on="0"/>
        <pt x="571" y="489" on="1"/>
        <pt x="495" y="489" on="0"/>
        <pt x="358" y="449" on="0"/>
        <pt x="279" y="385" on="0"/>
      </contour>
    </TTGlyph>
    <TTGlyph name="uni060F" xMin="78" yMin="-748" xMax="1393" yMax="1315">
      <contour>
        <pt x="815" y="-696" on="1"/>
        <pt x="520" y="-696" on="0"/>
        <pt x="377" y="-481" on="1"/>
        <pt x="266" y="-607" on="0"/>
        <pt x="176" y="-748" on="1"/>
        <pt x="78" y="-674" on="1"/>
        <pt x="175" y="-492" on="0"/>
        <pt x="301" y="-303" on="1"/>
        <pt x="274" y="-195" on="0"/>
        <pt x="274" y="-68" on="1"/>
        <pt x="274" y="212" on="0"/>
        <pt x="492" y="444" on="1"/>
        <pt x="395" y="470" on="0"/>
        <pt x="246" y="580" on="0"/>
        <pt x="164" y="728" on="0"/>
        <pt x="164" y="799" on="1"/>
        <pt x="164" y="912" on="0"/>
        <pt x="292" y="1170" on="0"/>
        <pt x="472" y="1315" on="0"/>
        <pt x="567" y="1315" on="1"/>
        <pt x="736" y="1315" on="0"/>
        <pt x="934" y="1092" on="1"/>
        <pt x="883" y="995" on="1"/>
        <pt x="738" y="1051" on="0"/>
        <pt x="629" y="1051" on="1"/>
        <pt x="546" y="1051" on="0"/>
        <pt x="417" y="1016" on="0"/>
        <pt x="336" y="973" on="1"/>
        <pt x="344" y="831" on="0"/>
        <pt x="542" y="659" on="0"/>
        <pt x="725" y="639" on="1"/>
        <pt x="918" y="763" on="0"/>
        <pt x="1155" y="838" on="1"/>
        <pt x="1184" y="803" on="0"/>
        <pt x="1184" y="717" on="1"/>
        <pt x="1184" y="647" on="0"/>
        <pt x="1108" y="552" on="0"/>
        <pt x="1025" y="516" on="1"/>
        <pt x="775" y="410" on="0"/>
        <pt x="519" y="232" on="0"/>
        <pt x="397" y="49" on="0"/>
        <pt x="397" y="-41" on="1"/>
        <pt x="397" y="-101" on="0"/>
        <pt x="416" y="-152" on="1"/>
        <pt x="571" y="40" on="0"/>
        <pt x="870" y="215" on="0"/>
        <pt x="1024" y="215" on="1"/>
        <pt x="1195" y="215" on="0"/>
        <pt x="1393" y="-23" on="0"/>
        <pt x="1393" y="-221" on="1"/>
        <pt x="1393" y="-358" on="0"/>
        <pt x="1245" y="-576" on="0"/>
        <pt x="979" y="-696" on="0"/>
      </contour>
      <contour>
        <pt x="1040" y="-74" on="1"/>
        <pt x="801" y="-74" on="0"/>
        <pt x="535" y="-317" on="1"/>
        <pt x="601" y="-371" on="0"/>
        <pt x="771" y="-428" on="0"/>
        <pt x="858" y="-428" on="1"/>
        <pt x="1041" y="-428" on="0"/>
        <pt x="1266" y="-320" on="0"/>
        <pt x="1266" y="-227" on="1"/>
        <pt x="1266" y="-166" on="0"/>
        <pt x="1133" y="-74" on="0"/>
      </contour>
    </TTGlyph>
    <TTGlyph name="uni0610" xMin="-100" yMin="918" xMax="449" yMax="1503">
      <contour>
        <pt x="-27" y="1430" on="1"/>
        <pt x="9" y="1325" on="0"/>
        <pt x="29" y="1286" on="1"/>
        <pt x="159" y="1503" on="0"/>
        <pt x="293" y="1503" on="1"/>
        <pt x="352" y="1503" on="0"/>
        <pt x="449" y="1404" on="0"/>
        <pt x="449" y="1352" on="1"/>
        <pt x="449" y="1235" on="0"/>
        <pt x="289" y="1094" on="0"/>
        <pt x="156" y="1094" on="1"/>
        <pt x="96" y="1094" on="0"/>
        <pt x="53" y="1104" on="1"/>
        <pt x="53" y="1003" on="0"/>
        <pt x="-2" y="921" on="0"/>
        <pt x="-55" y="918" on="1"/>
        <pt x="-43" y="1001" on="0"/>
        <pt x="-43" y="1063" on="1"/>
        <pt x="-43" y="1155" on="0"/>
        <pt x="-100" y="1290" on="1"/>
        <pt x="-83" y="1340" on="0"/>
        <pt x="-53" y="1397" on="0"/>
      </contour>
      <contour>
        <pt x="264" y="1372" on="1"/>
        <pt x="159" y="1372" on="0"/>
        <pt x="74" y="1225" on="1"/>
        <pt x="107" y="1214" on="0"/>
        <pt x="158" y="1214" on="1"/>
        <pt x="320" y="1214" on="0"/>
        <pt x="373" y="1292" on="1"/>
        <pt x="362" y="1330" on="0"/>
        <pt x="302" y="1372" on="0"/>
      </contour>
    </TTGlyph>
    <TTGlyph name="uni0611" xMin="-113" yMin="918" xMax="466" yMax="1499">
      <contour>
        <pt x="129" y="1087" on="1"/>
        <pt x="94" y="1087" on="0"/>
        <pt x="47" y="1094" on="1"/>
        <pt x="47" y="1002" on="0"/>
        <pt x="-8" y="922" on="0"/>
        <pt x="-63" y="918" on="1"/>
        <pt x="-55" y="1011" on="1"/>
        <pt x="-53" y="1063" on="1"/>
        <pt x="-53" y="1156" on="0"/>
        <pt x="-113" y="1292" on="1"/>
        <pt x="-107" y="1306" on="0"/>
        <pt x="-96" y="1334" on="0"/>
        <pt x="-79" y="1366" on="0"/>
        <pt x="-56" y="1403" on="0"/>
        <pt x="-39" y="1427" on="1"/>
        <pt x="-19" y="1379" on="1"/>
        <pt x="20" y="1284" on="0"/>
        <pt x="27" y="1272" on="1"/>
        <pt x="55" y="1210" on="0"/>
        <pt x="111" y="1206" on="1"/>
        <pt x="82" y="1244" on="0"/>
        <pt x="82" y="1288" on="1"/>
        <pt x="82" y="1333" on="0"/>
        <pt x="133" y="1436" on="0"/>
        <pt x="212" y="1499" on="0"/>
        <pt x="254" y="1499" on="1"/>
        <pt x="288" y="1499" on="0"/>
        <pt x="357" y="1463" on="0"/>
        <pt x="414" y="1415" on="1"/>
        <pt x="377" y="1364" on="1"/>
        <pt x="309" y="1391" on="0"/>
        <pt x="270" y="1391" on="1"/>
        <pt x="230" y="1391" on="0"/>
        <pt x="170" y="1362" on="1"/>
        <pt x="172" y="1319" on="0"/>
        <pt x="214" y="1257" on="0"/>
        <pt x="268" y="1241" on="1"/>
        <pt x="297" y="1235" on="1"/>
        <pt x="391" y="1260" on="0"/>
        <pt x="457" y="1292" on="1"/>
        <pt x="466" y="1269" on="0"/>
        <pt x="466" y="1248" on="1"/>
        <pt x="466" y="1202" on="0"/>
        <pt x="406" y="1141" on="0"/>
        <pt x="213" y="1087" on="0"/>
      </contour>
    </TTGlyph>
    <TTGlyph name="uni0612" xMin="-242" yMin="997" xMax="496" yMax="1602">
      <contour>
        <pt x="-201" y="1008" on="1"/>
        <pt x="-201" y="1122" on="0"/>
        <pt x="-90" y="1296" on="0"/>
        <pt x="4" y="1346" on="1"/>
        <pt x="-60" y="1368" on="0"/>
        <pt x="-98" y="1368" on="1"/>
        <pt x="-164" y="1368" on="0"/>
        <pt x="-205" y="1321" on="1"/>
        <pt x="-222" y="1332" on="0"/>
        <pt x="-242" y="1367" on="0"/>
        <pt x="-242" y="1384" on="1"/>
        <pt x="-242" y="1431" on="0"/>
        <pt x="-164" y="1487" on="0"/>
        <pt x="-100" y="1487" on="1"/>
        <pt x="-27" y="1487" on="0"/>
        <pt x="63" y="1454" on="1"/>
        <pt x="104" y="1440" on="0"/>
        <pt x="184" y="1417" on="0"/>
        <pt x="227" y="1417" on="1"/>
        <pt x="276" y="1417" on="0"/>
        <pt x="326" y="1425" on="1"/>
        <pt x="272" y="1303" on="1"/>
        <pt x="234" y="1296" on="0"/>
        <pt x="197" y="1296" on="1"/>
        <pt x="109" y="1279" on="0"/>
        <pt x="-43" y="1195" on="0"/>
        <pt x="-134" y="1075" on="0"/>
        <pt x="-135" y="1008" on="1"/>
      </contour>
      <contour>
        <pt x="250" y="997" on="1"/>
        <pt x="224" y="997" on="0"/>
        <pt x="118" y="1049" on="0"/>
        <pt x="78" y="1081" on="1"/>
        <pt x="100" y="1137" on="1"/>
        <pt x="119" y="1135" on="1"/>
        <pt x="209" y="1116" on="0"/>
        <pt x="225" y="1116" on="1"/>
        <pt x="300" y="1116" on="0"/>
        <pt x="397" y="1203" on="0"/>
        <pt x="420" y="1274" on="1"/>
        <pt x="391" y="1330" on="1"/>
        <pt x="322" y="1453" on="0"/>
        <pt x="322" y="1503" on="1"/>
        <pt x="322" y="1538" on="0"/>
        <pt x="367" y="1583" on="0"/>
        <pt x="414" y="1602" on="1"/>
        <pt x="449" y="1491" on="1"/>
        <pt x="464" y="1446" on="0"/>
        <pt x="496" y="1349" on="0"/>
        <pt x="496" y="1307" on="1"/>
        <pt x="496" y="1179" on="0"/>
        <pt x="356" y="997" on="0"/>
      </contour>
    </TTGlyph>
    <TTGlyph name="uni0613" xMin="-225" yMin="901" xMax="559" yMax="1604">
      <contour>
        <pt x="-84" y="1604" on="1"/>
        <pt x="-40" y="1576" on="0"/>
        <pt x="20" y="1516" on="1"/>
        <pt x="-9" y="1477" on="0"/>
        <pt x="-42" y="1433" on="0"/>
        <pt x="-61" y="1421" on="1"/>
        <pt x="-91" y="1455" on="0"/>
        <pt x="-160" y="1509" on="1"/>
        <pt x="-139" y="1534" on="1"/>
        <pt x="-107" y="1581" on="0"/>
      </contour>
      <contour>
        <pt x="313" y="913" on="1"/>
        <pt x="286" y="913" on="0"/>
        <pt x="172" y="970" on="0"/>
        <pt x="139" y="999" on="1"/>
        <pt x="164" y="1055" on="1"/>
        <pt x="256" y="1034" on="0"/>
        <pt x="287" y="1034" on="1"/>
        <pt x="361" y="1034" on="0"/>
        <pt x="460" y="1121" on="0"/>
        <pt x="481" y="1190" on="1"/>
        <pt x="453" y="1245" on="1"/>
        <pt x="383" y="1366" on="0"/>
        <pt x="383" y="1421" on="1"/>
        <pt x="383" y="1455" on="0"/>
        <pt x="430" y="1498" on="0"/>
        <pt x="475" y="1518" on="1"/>
        <pt x="487" y="1467" on="0"/>
        <pt x="527" y="1361" on="1"/>
        <pt x="559" y="1276" on="0"/>
        <pt x="559" y="1225" on="1"/>
        <pt x="559" y="1093" on="0"/>
        <pt x="418" y="913" on="0"/>
      </contour>
      <contour>
        <pt x="-92" y="1270" on="1"/>
        <pt x="37" y="1485" on="0"/>
        <pt x="170" y="1485" on="1"/>
        <pt x="228" y="1485" on="0"/>
        <pt x="326" y="1389" on="0"/>
        <pt x="326" y="1335" on="1"/>
        <pt x="326" y="1218" on="0"/>
        <pt x="166" y="1077" on="0"/>
        <pt x="33" y="1077" on="1"/>
        <pt x="-20" y="1077" on="0"/>
        <pt x="-70" y="1087" on="1"/>
        <pt x="-70" y="993" on="0"/>
        <pt x="-90" y="950" on="1"/>
        <pt x="-122" y="905" on="0"/>
        <pt x="-178" y="901" on="1"/>
        <pt x="-168" y="994" on="0"/>
        <pt x="-168" y="1047" on="1"/>
        <pt x="-168" y="1149" on="0"/>
        <pt x="-225" y="1274" on="1"/>
        <pt x="-203" y="1345" on="0"/>
        <pt x="-152" y="1411" on="1"/>
      </contour>
      <contour>
        <pt x="141" y="1354" on="1"/>
        <pt x="31" y="1354" on="0"/>
        <pt x="-49" y="1208" on="1"/>
        <pt x="-22" y="1196" on="0"/>
        <pt x="35" y="1196" on="1"/>
        <pt x="114" y="1196" on="0"/>
        <pt x="222" y="1238" on="0"/>
        <pt x="248" y="1274" on="1"/>
        <pt x="237" y="1314" on="0"/>
        <pt x="180" y="1354" on="0"/>
      </contour>
    </TTGlyph>
    <TTGlyph name="uni0614" xMin="-399" yMin="1065" xMax="578" yMax="1354">
      <contour>
        <pt x="578" y="1315" on="1"/>
        <pt x="482" y="1065" on="0"/>
        <pt x="348" y="1065" on="1"/>
        <pt x="266" y="1065" on="0"/>
        <pt x="213" y="1159" on="1"/>
        <pt x="153" y="1115" on="0"/>
        <pt x="-4" y="1087" on="0"/>
        <pt x="-102" y="1087" on="1"/>
        <pt x="-196" y="1087" on="0"/>
        <pt x="-356" y="1107" on="0"/>
        <pt x="-399" y="1151" on="0"/>
        <pt x="-399" y="1184" on="1"/>
        <pt x="-397" y="1208" on="1"/>
        <pt x="-231" y="1204" on="1"/>
        <pt x="-168" y="1204" on="0"/>
        <pt x="24" y="1218" on="0"/>
        <pt x="133" y="1241" on="0"/>
        <pt x="207" y="1286" on="0"/>
        <pt x="258" y="1350" on="1"/>
        <pt x="309" y="1329" on="1"/>
        <pt x="309" y="1296" on="1"/>
        <pt x="309" y="1262" on="0"/>
        <pt x="352" y="1208" on="0"/>
        <pt x="381" y="1208" on="1"/>
        <pt x="443" y="1208" on="0"/>
        <pt x="528" y="1354" on="1"/>
      </contour>
    </TTGlyph>
    <TTGlyph name="uni0615" xMin="-254" yMin="686" xMax="483" yMax="1462">
      <contour>
        <pt x="-229" y="911" on="1"/>
        <pt x="-161" y="896" on="0"/>
        <pt x="-104" y="891" on="1"/>
        <pt x="-41" y="975" on="1"/>
        <pt x="-73" y="1107" on="1"/>
        <pt x="-124" y="1312" on="0"/>
        <pt x="-124" y="1341" on="1"/>
        <pt x="-124" y="1387" on="0"/>
        <pt x="-47" y="1451" on="0"/>
        <pt x="23" y="1462" on="1"/>
        <pt x="52" y="1369" on="0"/>
        <pt x="72" y="1319" on="1"/>
        <pt x="45" y="1298" on="1"/>
        <pt x="48" y="1183" on="1"/>
        <pt x="45" y="1067" on="1"/>
        <pt x="171" y="1182" on="0"/>
        <pt x="250" y="1182" on="1"/>
        <pt x="288" y="1182" on="0"/>
        <pt x="392" y="1110" on="0"/>
        <pt x="483" y="990" on="0"/>
        <pt x="483" y="954" on="1"/>
        <pt x="483" y="884" on="0"/>
        <pt x="375" y="759" on="0"/>
        <pt x="209" y="686" on="0"/>
        <pt x="135" y="686" on="1"/>
        <pt x="72" y="686" on="0"/>
        <pt x="-42" y="711" on="0"/>
        <pt x="-148" y="755" on="0"/>
        <pt x="-254" y="815" on="1"/>
      </contour>
      <contour>
        <pt x="233" y="1001" on="1"/>
        <pt x="184" y="1001" on="0"/>
        <pt x="67" y="936" on="0"/>
        <pt x="10" y="879" on="1"/>
        <pt x="80" y="872" on="0"/>
        <pt x="141" y="872" on="1"/>
        <pt x="261" y="872" on="0"/>
        <pt x="381" y="918" on="1"/>
        <pt x="357" y="955" on="0"/>
        <pt x="273" y="1001" on="0"/>
      </contour>
    </TTGlyph>
    <TTGlyph name="uni061B" xMin="117" yMin="-41" xMax="483" yMax="1176">
      <contour>
        <pt x="143" y="123" on="1"/>
        <pt x="143" y="287" on="0"/>
        <pt x="311" y="287" on="1"/>
        <pt x="479" y="287" on="0"/>
        <pt x="479" y="123" on="1"/>
        <pt x="479" y="42" on="0"/>
        <pt x="391" y="-41" on="0"/>
        <pt x="311" y="-41" on="1"/>
        <pt x="143" y="-41" on="0"/>
      </contour>
      <contour>
        <pt x="117" y="774" on="1"/>
        <pt x="117" y="921" on="0"/>
        <pt x="302" y="1127" on="0"/>
        <pt x="483" y="1176" on="1"/>
        <pt x="483" y="1069" on="1"/>
        <pt x="378" y="1031" on="0"/>
        <pt x="303" y="960" on="0"/>
        <pt x="303" y="909" on="1"/>
        <pt x="303" y="888" on="0"/>
        <pt x="331" y="860" on="0"/>
        <pt x="378" y="832" on="1"/>
        <pt x="453" y="786" on="0"/>
        <pt x="453" y="690" on="1"/>
        <pt x="453" y="621" on="0"/>
        <pt x="368" y="549" on="0"/>
        <pt x="305" y="549" on="1"/>
        <pt x="218" y="549" on="0"/>
        <pt x="117" y="669" on="0"/>
      </contour>
    </TTGlyph>
    <TTGlyph name="uni061E" xMin="-134" yMin="-101" xMax="698" yMax="589">
      <component glyphName="threedots.above" x="-273" y="-906" flags="0x4"/>
    </TTGlyph>
    <TTGlyph name="uni061F" xMin="76" yMin="-16" xMax="1014" yMax="1483">
      <contour>
        <pt x="76" y="1106" on="1"/>
        <pt x="76" y="1277" on="0"/>
        <pt x="353" y="1483" on="0"/>
        <pt x="578" y="1483" on="1"/>
        <pt x="783" y="1483" on="0"/>
        <pt x="1014" y="1356" on="0"/>
        <pt x="1014" y="1245" on="1"/>
        <pt x="1014" y="1176" on="0"/>
        <pt x="856" y="1102" on="0"/>
        <pt x="725" y="1102" on="1"/>
        <pt x="725" y="1228" on="0"/>
        <pt x="640" y="1360" on="0"/>
        <pt x="561" y="1360" on="1"/>
        <pt x="482" y="1360" on="0"/>
        <pt x="401" y="1246" on="0"/>
        <pt x="401" y="1139" on="1"/>
        <pt x="401" y="982" on="0"/>
        <pt x="545" y="778" on="0"/>
        <pt x="690" y="719" on="1"/>
        <pt x="649" y="467" on="1"/>
        <pt x="524" y="467" on="1"/>
        <pt x="483" y="653" on="1"/>
        <pt x="261" y="744" on="0"/>
        <pt x="76" y="955" on="0"/>
      </contour>
      <contour>
        <pt x="758" y="147" on="1"/>
        <pt x="758" y="-16" on="0"/>
        <pt x="590" y="-16" on="1"/>
        <pt x="509" y="-16" on="0"/>
        <pt x="422" y="68" on="0"/>
        <pt x="422" y="147" on="1"/>
        <pt x="422" y="311" on="0"/>
        <pt x="590" y="311" on="1"/>
        <pt x="758" y="311" on="0"/>
      </contour>
    </TTGlyph>
    <TTGlyph name="uni0621" xMin="164" yMin="-119" xMax="1238" yMax="860">
      <contour>
        <pt x="164" y="0" on="1"/>
        <pt x="260" y="46" on="0"/>
        <pt x="373" y="90" on="1"/>
        <pt x="272" y="191" on="0"/>
        <pt x="272" y="319" on="1"/>
        <pt x="272" y="438" on="0"/>
        <pt x="407" y="703" on="0"/>
        <pt x="612" y="860" on="0"/>
        <pt x="717" y="860" on="1"/>
        <pt x="834" y="860" on="0"/>
        <pt x="987" y="717" on="0"/>
        <pt x="987" y="602" on="1"/>
        <pt x="987" y="557" on="0"/>
        <pt x="956" y="465" on="0"/>
        <pt x="930" y="438" on="1"/>
        <pt x="854" y="467" on="0"/>
        <pt x="821" y="483" on="1"/>
        <pt x="834" y="551" on="1"/>
        <pt x="773" y="573" on="0"/>
        <pt x="719" y="573" on="1"/>
        <pt x="647" y="573" on="0"/>
        <pt x="483" y="485" on="0"/>
        <pt x="406" y="385" on="1"/>
        <pt x="439" y="304" on="0"/>
        <pt x="569" y="219" on="0"/>
        <pt x="698" y="203" on="1"/>
        <pt x="952" y="275" on="0"/>
        <pt x="1184" y="305" on="1"/>
        <pt x="1238" y="246" on="0"/>
        <pt x="1238" y="168" on="1"/>
        <pt x="1238" y="105" on="0"/>
        <pt x="1154" y="14" on="0"/>
        <pt x="1071" y="6" on="1"/>
        <pt x="914" y="-7" on="1"/>
        <pt x="662" y="-28" on="0"/>
        <pt x="423" y="-68" on="0"/>
        <pt x="205" y="-119" on="1"/>
      </contour>
    </TTGlyph>
    <TTGlyph name="uni0622" xMin="-92" yMin="-20" xMax="732" yMax="1812">
      <component glyphName="alef_alt.isol" x="43" y="0" flags="0x4"/>
      <component glyphName="uni0653" x="150" y="264" flags="0x4"/>
    </TTGlyph>
    <TTGlyph name="uni0622.fina" xMin="-88" yMin="-20" xMax="736" yMax="1812">
      <component glyphName="alef_alt.fina" x="68" y="0" flags="0x4"/>
      <component glyphName="uni0653" x="154" y="264" flags="0x4"/>
    </TTGlyph>
    <TTGlyph name="uni0623" xMin="121" yMin="-20" xMax="553" yMax="1997">
      <component glyphName="alef_alt.isol" x="61" y="0" flags="0x4"/>
      <component glyphName="uni0654" x="162" y="338" flags="0x4"/>
    </TTGlyph>
    <TTGlyph name="uni0623.fina" xMin="131" yMin="-20" xMax="735" yMax="1997">
      <component glyphName="alef_alt.fina" x="104" y="0" flags="0x4"/>
      <component glyphName="uni0654" x="172" y="338" flags="0x4"/>
    </TTGlyph>
    <TTGlyph name="uni0624" xMin="123" yMin="-512" xMax="1073" yMax="1501">
      <component glyphName="uni0648" x="0" y="0" flags="0x204"/>
      <component glyphName="hamza_medial" x="315" y="129" flags="0x4"/>
    </TTGlyph>
    <TTGlyph name="uni0624.fina" xMin="123" yMin="-512" xMax="1217" yMax="1540">
      <component glyphName="uni0648.fina" x="0" y="0" flags="0x204"/>
      <component glyphName="hamza_medial" x="317" y="168" flags="0x4"/>
    </TTGlyph>
    <TTGlyph name="uni0625" xMin="185" yMin="-642" xMax="592" yMax="1464">
      <component glyphName="alef_alt.isol" x="39" y="0" flags="0x4"/>
      <component glyphName="uni0654" x="246" y="-1756" flags="0x4"/>
    </TTGlyph>
    <TTGlyph name="uni0625.fina" xMin="194" yMin="-642" xMax="735" yMax="1462">
      <component glyphName="alef_alt.fina" x="104" y="0" flags="0x4"/>
      <component glyphName="uni0654" x="371" y="-1756" flags="0x4"/>
    </TTGlyph>
    <TTGlyph name="uni0626" xMin="164" yMin="-696" xMax="1450" yMax="898">
      <component glyphName="uni0649" x="0" y="0" flags="0x204"/>
      <component glyphName="hamza_medial" x="297" y="-474" flags="0x4"/>
    </TTGlyph>
    <TTGlyph name="uni0626.fina" xMin="164" yMin="-696" xMax="1704" yMax="836">
      <component glyphName="uni0649.fina" x="0" y="0" flags="0x204"/>
      <component glyphName="hamza_medial" x="672" y="-536" flags="0x4"/>
    </TTGlyph>
    <TTGlyph name="uni0626.init" xMin="-20" yMin="-20" xMax="571" yMax="1593">
      <component glyphName="uni066E.init" x="0" y="0" flags="0x4"/>
      <component glyphName="hamza_medial" x="74" y="221" flags="0x4"/>
    </TTGlyph>
    <TTGlyph name="uni0626.medi" xMin="-20" yMin="-20" xMax="745" yMax="1299">
      <component glyphName="uni066E.medi" x="0" y="0" flags="0x204"/>
      <component glyphName="hamza_medial" x="96" y="-73" flags="0x4"/>
    </TTGlyph>
    <TTGlyph name="uni0627" xMin="185" yMin="-20" xMax="541" yMax="1597">
      <contour>
        <pt x="459" y="1237" on="1"/>
        <pt x="459" y="979" on="1"/>
        <pt x="457" y="782" on="1"/>
        <pt x="446" y="0" on="1"/>
        <pt x="291" y="-20" on="1"/>
        <pt x="277" y="217" on="0"/>
        <pt x="248" y="569" on="1"/>
        <pt x="185" y="1389" on="1"/>
        <pt x="185" y="1450" on="0"/>
        <pt x="251" y="1543" on="0"/>
        <pt x="374" y="1597" on="0"/>
        <pt x="444" y="1597" on="1"/>
        <pt x="486" y="1445" on="0"/>
        <pt x="541" y="1300" on="1"/>
      </contour>
    </TTGlyph>
    <TTGlyph name="uni0627.fina" xMin="184" yMin="-20" xMax="735" yMax="1597">
      <contour>
        <pt x="471" y="1597" on="1"/>
        <pt x="451" y="717" on="0"/>
        <pt x="451" y="334" on="1"/>
        <pt x="504" y="298" on="0"/>
        <pt x="626" y="266" on="0"/>
        <pt x="715" y="266" on="1"/>
        <pt x="735" y="266" on="0"/>
        <pt x="735" y="246" on="1"/>
        <pt x="735" y="0" on="1"/>
        <pt x="735" y="-20" on="0"/>
        <pt x="715" y="-20" on="1"/>
        <pt x="552" y="-20" on="0"/>
        <pt x="365" y="93" on="0"/>
        <pt x="348" y="197" on="1"/>
        <pt x="251" y="792" on="0"/>
        <pt x="184" y="1438" on="1"/>
      </contour>
    </TTGlyph>
    <TTGlyph name="uni0628" xMin="165" yMin="-610" xMax="1764" yMax="1026">
      <component glyphName="uni066E" x="-81" y="0" flags="0x4"/>
      <component glyphName="onedot.above" x="553" y="-1396" flags="0x4"/>
    </TTGlyph>
    <TTGlyph name="uni0628.fina" xMin="165" yMin="-610" xMax="2010" yMax="737">
      <component glyphName="uni066E.fina" x="-81" y="0" flags="0x4"/>
      <component glyphName="onedot.above" x="553" y="-1396" flags="0x4"/>
    </TTGlyph>
    <TTGlyph name="uni0628.init" xMin="-20" yMin="-610" xMax="571" yMax="963">
      <component glyphName="uni066E.init" x="0" y="0" flags="0x4"/>
      <component glyphName="onedot.above" x="-198" y="-1396" flags="0x4"/>
    </TTGlyph>
    <TTGlyph name="uni0628.medi" xMin="-20" yMin="-610" xMax="745" yMax="610">
      <component glyphName="uni066E.medi" x="0" y="0" flags="0x204"/>
      <component glyphName="onedot.above" x="-136" y="-1396" flags="0x4"/>
    </TTGlyph>
    <TTGlyph name="uni0629" xMin="164" yMin="-41" xMax="1053" yMax="1583">
      <component glyphName="uni0647" x="152" y="0" flags="0x4"/>
      <component glyphName="twodots.above" x="82" y="332" flags="0x4"/>
    </TTGlyph>
    <TTGlyph name="uni0629.fina" xMin="164" yMin="-20" xMax="1261" yMax="1671">
      <component glyphName="uni0647.fina" x="98" y="0" flags="0x4"/>
      <component glyphName="twodots.above" x="82" y="420" flags="0x4"/>
    </TTGlyph>
    <TTGlyph name="uni062A" xMin="165" yMin="-41" xMax="1764" yMax="1292">
      <component glyphName="uni066E" x="-81" y="0" flags="0x4"/>
      <component glyphName="twodots.above" x="410" y="41" flags="0x4"/>
    </TTGlyph>
    <TTGlyph name="uni062A.fina" xMin="165" yMin="-41" xMax="2010" yMax="1143">
      <component glyphName="uni066E.fina" x="-81" y="0" flags="0x4"/>
      <component glyphName="twodots.above" x="520" y="-108" flags="0x4"/>
    </TTGlyph>
    <TTGlyph name="uni062A.init" xMin="-93" yMin="-20" xMax="697" yMax="1536">
      <component glyphName="twodots.above" x="-175" y="285" flags="0x4"/>
      <component glyphName="uni066E.init" x="0" y="0" flags="0x4"/>
    </TTGlyph>
    <TTGlyph name="uni062A.medi" xMin="-20" yMin="-20" xMax="909" yMax="1236">
      <component glyphName="beh_dotless_alt.medi" x="0" y="0" flags="0x204"/>
      <component glyphName="twodots.above" x="-73" y="-15" flags="0x4"/>
    </TTGlyph>
    <TTGlyph name="uni062B" xMin="165" yMin="-41" xMax="1764" yMax="1536">
      <component glyphName="uni066E" x="-81" y="0" flags="0x4"/>
      <component glyphName="threedots.above" x="313" y="41" flags="0x4"/>
    </TTGlyph>
    <TTGlyph name="uni062B.fina" xMin="165" yMin="-41" xMax="2010" yMax="1387">
      <component glyphName="uni066E.fina" x="-81" y="0" flags="0x4"/>
      <component glyphName="threedots.above" x="444" y="-108" flags="0x4"/>
    </TTGlyph>
    <TTGlyph name="uni062B.init" xMin="-114" yMin="-20" xMax="718" yMax="1759">
      <component glyphName="uni066E.init" x="0" y="0" flags="0x4"/>
      <component glyphName="threedots.above" x="-253" y="264" flags="0x4"/>
    </TTGlyph>
    <TTGlyph name="uni062B.medi" xMin="-20" yMin="-20" xMax="909" yMax="1484">
      <component glyphName="beh_dotless_alt.medi" x="0" y="0" flags="0x204"/>
      <component glyphName="threedots.above" x="-151" y="-11" flags="0x4"/>
    </TTGlyph>
    <TTGlyph name="uni062C" xMin="164" yMin="-696" xMax="1518" yMax="1018">
      <component glyphName="uni062D" x="0" y="0" flags="0x204"/>
      <component glyphName="onedot.above" x="410" y="-1052" flags="0x4"/>
    </TTGlyph>
    <TTGlyph name="uni062C.fina" xMin="164" yMin="-860" xMax="1786" yMax="854">
      <component glyphName="uni062D.fina" x="0" y="0" flags="0x204"/>
      <component glyphName="onedot.above" x="360" y="-1089" flags="0x4"/>
    </TTGlyph>
    <TTGlyph name="uni062C.init" xMin="-20" yMin="-538" xMax="1481" yMax="854">
      <component glyphName="uni062D.init" x="0" y="0" flags="0x204"/>
      <component glyphName="onedot.above" x="254" y="-1324" flags="0x4"/>
    </TTGlyph>
    <TTGlyph name="uni062C.medi" xMin="-20" yMin="-538" xMax="1624" yMax="854">
      <component glyphName="uni062D.medi" x="0" y="0" flags="0x204"/>
      <component glyphName="onedot.above" x="254" y="-1324" flags="0x4"/>
    </TTGlyph>
    <TTGlyph name="uni062D" xMin="164" yMin="-696" xMax="1518" yMax="1018">
      <contour>
        <pt x="494" y="731" on="1"/>
        <pt x="446" y="731" on="0"/>
        <pt x="372" y="717" on="0"/>
        <pt x="306" y="690" on="0"/>
        <pt x="219" y="637" on="1"/>
        <pt x="197" y="659" on="0"/>
        <pt x="164" y="743" on="0"/>
        <pt x="164" y="782" on="1"/>
        <pt x="164" y="894" on="0"/>
        <pt x="339" y="1018" on="0"/>
        <pt x="485" y="1018" on="1"/>
        <pt x="564" y="1018" on="0"/>
        <pt x="734" y="979" on="0"/>
        <pt x="871" y="929" on="1"/>
        <pt x="995" y="883" on="0"/>
        <pt x="1191" y="840" on="0"/>
        <pt x="1290" y="840" on="1"/>
        <pt x="1338" y="840" on="1"/>
        <pt x="1457" y="840" on="0"/>
        <pt x="1509" y="844" on="1"/>
        <pt x="1411" y="573" on="1"/>
        <pt x="1347" y="565" on="0"/>
        <pt x="1233" y="565" on="1"/>
        <pt x="1176" y="565" on="0"/>
        <pt x="1124" y="569" on="1"/>
        <pt x="939" y="533" on="0"/>
        <pt x="581" y="340" on="0"/>
        <pt x="377" y="89" on="0"/>
        <pt x="377" y="-41" on="1"/>
        <pt x="377" y="-216" on="0"/>
        <pt x="675" y="-420" on="0"/>
        <pt x="905" y="-420" on="1"/>
        <pt x="1032" y="-420" on="0"/>
        <pt x="1293" y="-388" on="0"/>
        <pt x="1485" y="-344" on="1"/>
        <pt x="1518" y="-446" on="1"/>
        <pt x="1332" y="-551" on="0"/>
        <pt x="983" y="-696" on="0"/>
        <pt x="899" y="-696" on="1"/>
        <pt x="582" y="-696" on="0"/>
        <pt x="254" y="-379" on="0"/>
        <pt x="254" y="-68" on="1"/>
        <pt x="254" y="155" on="0"/>
        <pt x="529" y="549" on="0"/>
        <pt x="756" y="662" on="1"/>
        <pt x="680" y="689" on="0"/>
        <pt x="552" y="731" on="0"/>
      </contour>
    </TTGlyph>
    <TTGlyph name="uni062D.fina" xMin="164" yMin="-860" xMax="1786" yMax="854">
      <contour>
        <pt x="494" y="567" on="1"/>
        <pt x="446" y="567" on="0"/>
        <pt x="372" y="553" on="0"/>
        <pt x="306" y="526" on="0"/>
        <pt x="219" y="473" on="1"/>
        <pt x="198" y="494" on="0"/>
        <pt x="164" y="581" on="0"/>
        <pt x="164" y="618" on="1"/>
        <pt x="164" y="730" on="0"/>
        <pt x="339" y="854" on="0"/>
        <pt x="485" y="854" on="1"/>
        <pt x="564" y="854" on="0"/>
        <pt x="734" y="815" on="0"/>
        <pt x="871" y="765" on="1"/>
        <pt x="995" y="719" on="0"/>
        <pt x="1191" y="676" on="0"/>
        <pt x="1290" y="676" on="1"/>
        <pt x="1338" y="676" on="1"/>
        <pt x="1457" y="676" on="0"/>
        <pt x="1509" y="680" on="1"/>
        <pt x="1411" y="410" on="1"/>
        <pt x="1363" y="401" on="0"/>
        <pt x="1233" y="401" on="1"/>
        <pt x="1176" y="401" on="1"/>
        <pt x="1210" y="338" on="0"/>
        <pt x="1302" y="286" on="0"/>
        <pt x="1477" y="266" on="0"/>
        <pt x="1765" y="266" on="1"/>
        <pt x="1786" y="266" on="0"/>
        <pt x="1786" y="246" on="1"/>
        <pt x="1786" y="0" on="1"/>
        <pt x="1786" y="-20" on="0"/>
        <pt x="1765" y="-20" on="1"/>
        <pt x="1554" y="-20" on="0"/>
        <pt x="1348" y="17" on="0"/>
        <pt x="1212" y="100" on="0"/>
        <pt x="1106" y="254" on="0"/>
        <pt x="1055" y="391" on="1"/>
        <pt x="868" y="342" on="0"/>
        <pt x="544" y="143" on="0"/>
        <pt x="377" y="-87" on="0"/>
        <pt x="377" y="-205" on="1"/>
        <pt x="377" y="-380" on="0"/>
        <pt x="675" y="-584" on="0"/>
        <pt x="905" y="-584" on="1"/>
        <pt x="1079" y="-584" on="0"/>
        <pt x="1366" y="-518" on="1"/>
        <pt x="1399" y="-621" on="1"/>
        <pt x="1127" y="-781" on="0"/>
        <pt x="945" y="-860" on="0"/>
        <pt x="891" y="-860" on="1"/>
        <pt x="254" y="-860" on="0"/>
        <pt x="254" y="-231" on="1"/>
        <pt x="254" y="-10" on="0"/>
        <pt x="528" y="384" on="0"/>
        <pt x="756" y="498" on="1"/>
        <pt x="680" y="526" on="0"/>
        <pt x="552" y="567" on="0"/>
      </contour>
    </TTGlyph>
    <TTGlyph name="uni062D.init" xMin="-20" yMin="-20" xMax="1481" yMax="854">
      <contour>
        <pt x="0" y="-20" on="1"/>
        <pt x="-20" y="-20" on="0"/>
        <pt x="-20" y="0" on="1"/>
        <pt x="-20" y="246" on="1"/>
        <pt x="-20" y="266" on="0"/>
        <pt x="0" y="266" on="1"/>
        <pt x="214" y="266" on="0"/>
        <pt x="359" y="275" on="0"/>
        <pt x="482" y="294" on="0"/>
        <pt x="537" y="311" on="1"/>
        <pt x="728" y="370" on="0"/>
        <pt x="831" y="391" on="1"/>
        <pt x="772" y="422" on="0"/>
        <pt x="679" y="484" on="0"/>
        <pt x="596" y="535" on="0"/>
        <pt x="513" y="567" on="0"/>
        <pt x="465" y="567" on="1"/>
        <pt x="394" y="567" on="0"/>
        <pt x="274" y="531" on="0"/>
        <pt x="180" y="473" on="1"/>
        <pt x="159" y="494" on="0"/>
        <pt x="125" y="581" on="0"/>
        <pt x="125" y="618" on="1"/>
        <pt x="125" y="688" on="0"/>
        <pt x="212" y="794" on="0"/>
        <pt x="367" y="854" on="0"/>
        <pt x="457" y="854" on="1"/>
        <pt x="532" y="854" on="0"/>
        <pt x="677" y="800" on="0"/>
        <pt x="765" y="741" on="1"/>
        <pt x="843" y="688" on="0"/>
        <pt x="977" y="614" on="0"/>
        <pt x="1077" y="574" on="0"/>
        <pt x="1234" y="530" on="0"/>
        <pt x="1378" y="514" on="0"/>
        <pt x="1481" y="514" on="1"/>
        <pt x="1358" y="258" on="1"/>
        <pt x="1199" y="270" on="0"/>
        <pt x="1112" y="291" on="1"/>
        <pt x="1023" y="274" on="0"/>
        <pt x="850" y="197" on="0"/>
        <pt x="750" y="135" on="1"/>
        <pt x="674" y="89" on="0"/>
        <pt x="545" y="31" on="0"/>
        <pt x="409" y="-4" on="0"/>
        <pt x="244" y="-20" on="0"/>
      </contour>
    </TTGlyph>
    <TTGlyph name="uni062D.medi" xMin="-20" yMin="-20" xMax="1624" yMax="854">
      <contour>
        <pt x="0" y="-20" on="1"/>
        <pt x="-20" y="-20" on="0"/>
        <pt x="-20" y="0" on="1"/>
        <pt x="-20" y="246" on="1"/>
        <pt x="-20" y="266" on="0"/>
        <pt x="0" y="266" on="1"/>
        <pt x="214" y="266" on="0"/>
        <pt x="359" y="275" on="0"/>
        <pt x="482" y="294" on="0"/>
        <pt x="537" y="311" on="1"/>
        <pt x="728" y="370" on="0"/>
        <pt x="831" y="391" on="1"/>
        <pt x="772" y="422" on="0"/>
        <pt x="679" y="484" on="0"/>
        <pt x="596" y="535" on="0"/>
        <pt x="513" y="567" on="0"/>
        <pt x="465" y="567" on="1"/>
        <pt x="394" y="567" on="0"/>
        <pt x="274" y="531" on="0"/>
        <pt x="180" y="473" on="1"/>
        <pt x="159" y="494" on="0"/>
        <pt x="125" y="581" on="0"/>
        <pt x="125" y="618" on="1"/>
        <pt x="125" y="688" on="0"/>
        <pt x="212" y="794" on="0"/>
        <pt x="367" y="854" on="0"/>
        <pt x="457" y="854" on="1"/>
        <pt x="532" y="854" on="0"/>
        <pt x="677" y="800" on="0"/>
        <pt x="765" y="741" on="1"/>
        <pt x="843" y="688" on="0"/>
        <pt x="977" y="614" on="0"/>
        <pt x="1077" y="574" on="0"/>
        <pt x="1234" y="530" on="0"/>
        <pt x="1378" y="514" on="0"/>
        <pt x="1481" y="514" on="1"/>
        <pt x="1364" y="274" on="1"/>
        <pt x="1424" y="266" on="0"/>
        <pt x="1604" y="266" on="1"/>
        <pt x="1624" y="266" on="0"/>
        <pt x="1624" y="246" on="1"/>
        <pt x="1624" y="0" on="1"/>
        <pt x="1624" y="-20" on="0"/>
        <pt x="1604" y="-20" on="1"/>
        <pt x="1400" y="-20" on="0"/>
        <pt x="1118" y="51" on="0"/>
        <pt x="1118" y="98" on="1"/>
        <pt x="1118" y="151" on="0"/>
        <pt x="1151" y="283" on="1"/>
        <pt x="1112" y="291" on="1"/>
        <pt x="1023" y="274" on="0"/>
        <pt x="850" y="197" on="0"/>
        <pt x="750" y="135" on="1"/>
        <pt x="674" y="89" on="0"/>
        <pt x="545" y="31" on="0"/>
        <pt x="409" y="-4" on="0"/>
        <pt x="244" y="-20" on="0"/>
      </contour>
    </TTGlyph>
    <TTGlyph name="uni062E" xMin="164" yMin="-696" xMax="1518" yMax="1566">
      <component glyphName="uni062D" x="0" y="0" flags="0x204"/>
      <component glyphName="onedot.above" x="403" y="352" flags="0x4"/>
    </TTGlyph>
    <TTGlyph name="uni062E.fina" xMin="164" yMin="-860" xMax="1786" yMax="1388">
      <component glyphName="uni062D.fina" x="0" y="0" flags="0x204"/>
      <component glyphName="onedot.above" x="496" y="174" flags="0x4"/>
    </TTGlyph>
    <TTGlyph name="uni062E.init" xMin="-20" yMin="-20" xMax="1481" yMax="1390">
      <component glyphName="uni062D.init" x="0" y="0" flags="0x204"/>
      <component glyphName="onedot.above" x="475" y="176" flags="0x4"/>
    </TTGlyph>
    <TTGlyph name="uni062E.medi" xMin="-20" yMin="-20" xMax="1624" yMax="1390">
      <component glyphName="uni062D.medi" x="0" y="0" flags="0x204"/>
      <component glyphName="onedot.above" x="475" y="176" flags="0x4"/>
    </TTGlyph>
    <TTGlyph name="uni062F" xMin="82" yMin="-41" xMax="944" yMax="1044">
      <contour>
        <pt x="406" y="-41" on="1"/>
        <pt x="82" y="-41" on="0"/>
        <pt x="82" y="147" on="1"/>
        <pt x="82" y="198" on="0"/>
        <pt x="120" y="302" on="0"/>
        <pt x="154" y="342" on="1"/>
        <pt x="213" y="292" on="0"/>
        <pt x="368" y="246" on="0"/>
        <pt x="481" y="246" on="1"/>
        <pt x="638" y="246" on="0"/>
        <pt x="797" y="295" on="1"/>
        <pt x="736" y="409" on="0"/>
        <pt x="668" y="509" on="1"/>
        <pt x="567" y="658" on="0"/>
        <pt x="514" y="767" on="0"/>
        <pt x="514" y="801" on="1"/>
        <pt x="514" y="854" on="0"/>
        <pt x="569" y="951" on="0"/>
        <pt x="665" y="1028" on="0"/>
        <pt x="715" y="1044" on="1"/>
        <pt x="747" y="930" on="0"/>
        <pt x="827" y="724" on="0"/>
        <pt x="897" y="541" on="0"/>
        <pt x="944" y="384" on="0"/>
        <pt x="944" y="319" on="1"/>
        <pt x="944" y="285" on="0"/>
        <pt x="890" y="113" on="0"/>
        <pt x="860" y="53" on="1"/>
        <pt x="774" y="8" on="0"/>
        <pt x="529" y="-41" on="0"/>
      </contour>
    </TTGlyph>
    <TTGlyph name="uni062F.fina" xMin="82" yMin="-41" xMax="1210" yMax="1044">
      <contour>
        <pt x="1190" y="-20" on="1"/>
        <pt x="1094" y="-20" on="0"/>
        <pt x="962" y="37" on="0"/>
        <pt x="909" y="90" on="1"/>
        <pt x="634" y="-41" on="0"/>
        <pt x="406" y="-41" on="1"/>
        <pt x="82" y="-41" on="0"/>
        <pt x="82" y="147" on="1"/>
        <pt x="82" y="198" on="0"/>
        <pt x="120" y="302" on="0"/>
        <pt x="154" y="342" on="1"/>
        <pt x="213" y="292" on="0"/>
        <pt x="368" y="246" on="0"/>
        <pt x="481" y="246" on="1"/>
        <pt x="630" y="246" on="0"/>
        <pt x="772" y="279" on="1"/>
        <pt x="692" y="413" on="0"/>
        <pt x="565" y="725" on="0"/>
        <pt x="565" y="803" on="1"/>
        <pt x="565" y="894" on="0"/>
        <pt x="653" y="1020" on="0"/>
        <pt x="733" y="1044" on="1"/>
        <pt x="805" y="740" on="0"/>
        <pt x="957" y="366" on="0"/>
        <pt x="1075" y="266" on="0"/>
        <pt x="1190" y="266" on="1"/>
        <pt x="1210" y="266" on="0"/>
        <pt x="1210" y="246" on="1"/>
        <pt x="1210" y="0" on="1"/>
        <pt x="1210" y="-20" on="0"/>
      </contour>
    </TTGlyph>
    <TTGlyph name="uni0630" xMin="82" yMin="-41" xMax="944" yMax="1607">
      <component glyphName="uni062F" x="0" y="0" flags="0x204"/>
      <component glyphName="onedot.above" x="33" y="393" flags="0x4"/>
    </TTGlyph>
    <TTGlyph name="uni0630.fina" xMin="82" yMin="-41" xMax="1210" yMax="1607">
      <component glyphName="uni062F.fina" x="0" y="0" flags="0x204"/>
      <component glyphName="onedot.above" x="74" y="393" flags="0x4"/>
    </TTGlyph>
    <TTGlyph name="uni0631" xMin="-82" yMin="-512" xMax="807" yMax="881">
      <contour>
        <pt x="246" y="-512" on="1"/>
        <pt x="201" y="-512" on="0"/>
        <pt x="11" y="-395" on="0"/>
        <pt x="-82" y="-315" on="1"/>
        <pt x="-43" y="-215" on="1"/>
        <pt x="86" y="-248" on="0"/>
        <pt x="201" y="-248" on="1"/>
        <pt x="378" y="-248" on="0"/>
        <pt x="626" y="-69" on="0"/>
        <pt x="680" y="98" on="1"/>
        <pt x="659" y="142" on="0"/>
        <pt x="621" y="206" on="0"/>
        <pt x="549" y="318" on="1"/>
        <pt x="481" y="422" on="0"/>
        <pt x="416" y="571" on="0"/>
        <pt x="416" y="629" on="1"/>
        <pt x="416" y="699" on="0"/>
        <pt x="530" y="838" on="0"/>
        <pt x="618" y="881" on="1"/>
        <pt x="640" y="789" on="0"/>
        <pt x="704" y="603" on="0"/>
        <pt x="764" y="422" on="0"/>
        <pt x="807" y="251" on="0"/>
        <pt x="807" y="174" on="1"/>
        <pt x="807" y="-15" on="0"/>
        <pt x="662" y="-333" on="0"/>
        <pt x="405" y="-512" on="0"/>
      </contour>
    </TTGlyph>
    <TTGlyph name="uni0631.fina" xMin="-82" yMin="-512" xMax="993" yMax="881">
      <contour>
        <pt x="973" y="-20" on="1"/>
        <pt x="878" y="-20" on="0"/>
        <pt x="795" y="27" on="1"/>
        <pt x="751" y="-219" on="0"/>
        <pt x="451" y="-512" on="0"/>
        <pt x="246" y="-512" on="1"/>
        <pt x="201" y="-512" on="0"/>
        <pt x="11" y="-395" on="0"/>
        <pt x="-82" y="-315" on="1"/>
        <pt x="-43" y="-215" on="1"/>
        <pt x="86" y="-248" on="0"/>
        <pt x="201" y="-248" on="1"/>
        <pt x="378" y="-248" on="0"/>
        <pt x="626" y="-69" on="0"/>
        <pt x="680" y="98" on="1"/>
        <pt x="659" y="142" on="0"/>
        <pt x="621" y="206" on="0"/>
        <pt x="549" y="318" on="1"/>
        <pt x="481" y="422" on="0"/>
        <pt x="416" y="571" on="0"/>
        <pt x="416" y="629" on="1"/>
        <pt x="416" y="699" on="0"/>
        <pt x="530" y="838" on="0"/>
        <pt x="618" y="881" on="1"/>
        <pt x="641" y="784" on="0"/>
        <pt x="708" y="590" on="1"/>
        <pt x="770" y="410" on="0"/>
        <pt x="791" y="309" on="1"/>
        <pt x="870" y="266" on="0"/>
        <pt x="973" y="266" on="1"/>
        <pt x="993" y="266" on="0"/>
        <pt x="993" y="246" on="1"/>
        <pt x="993" y="0" on="1"/>
        <pt x="993" y="-20" on="0"/>
      </contour>
    </TTGlyph>
    <TTGlyph name="uni0632" xMin="-82" yMin="-512" xMax="807" yMax="1466">
      <component glyphName="uni0631" x="0" y="0" flags="0x204"/>
      <component glyphName="onedot.above" x="-81" y="252" flags="0x4"/>
    </TTGlyph>
    <TTGlyph name="uni0632.fina" xMin="-82" yMin="-512" xMax="993" yMax="1466">
      <component glyphName="uni0631.fina" x="0" y="0" flags="0x4"/>
      <component glyphName="onedot.above" x="-149" y="252" flags="0x4"/>
    </TTGlyph>
    <TTGlyph name="uni0633" xMin="164" yMin="-696" xMax="2433" yMax="881">
      <contour>
        <pt x="2333" y="-41" on="1"/>
        <pt x="2182" y="-41" on="0"/>
        <pt x="1875" y="28" on="0"/>
        <pt x="1757" y="82" on="1"/>
        <pt x="1729" y="25" on="1"/>
        <pt x="1711" y="-5" on="0"/>
        <pt x="1527" y="-41" on="0"/>
        <pt x="1411" y="-41" on="1"/>
        <pt x="1370" y="-41" on="0"/>
        <pt x="1327" y="-35" on="1"/>
        <pt x="1331" y="-106" on="1"/>
        <pt x="1331" y="-266" on="0"/>
        <pt x="1139" y="-540" on="0"/>
        <pt x="806" y="-696" on="0"/>
        <pt x="606" y="-696" on="1"/>
        <pt x="390" y="-696" on="0"/>
        <pt x="164" y="-443" on="0"/>
        <pt x="164" y="-201" on="1"/>
        <pt x="164" y="-76" on="0"/>
        <pt x="223" y="147" on="1"/>
        <pt x="330" y="121" on="1"/>
        <pt x="297" y="10" on="0"/>
        <pt x="297" y="-70" on="1"/>
        <pt x="297" y="-243" on="0"/>
        <pt x="451" y="-410" on="0"/>
        <pt x="612" y="-410" on="1"/>
        <pt x="809" y="-410" on="0"/>
        <pt x="1077" y="-308" on="0"/>
        <pt x="1196" y="-197" on="1"/>
        <pt x="1164" y="-127" on="0"/>
        <pt x="1092" y="5" on="0"/>
        <pt x="1032" y="119" on="0"/>
        <pt x="993" y="212" on="0"/>
        <pt x="993" y="244" on="1"/>
        <pt x="993" y="446" on="0"/>
        <pt x="1237" y="561" on="1"/>
        <pt x="1250" y="451" on="0"/>
        <pt x="1286" y="260" on="1"/>
        <pt x="1351" y="246" on="0"/>
        <pt x="1438" y="246" on="1"/>
        <pt x="1497" y="246" on="0"/>
        <pt x="1558" y="255" on="0"/>
        <pt x="1610" y="272" on="1"/>
        <pt x="1641" y="324" on="0"/>
        <pt x="1711" y="516" on="1"/>
        <pt x="1743" y="605" on="0"/>
        <pt x="1775" y="644" on="0"/>
        <pt x="1821" y="666" on="0"/>
        <pt x="1854" y="666" on="1"/>
        <pt x="1901" y="666" on="0"/>
        <pt x="1946" y="641" on="1"/>
        <pt x="1918" y="573" on="0"/>
        <pt x="1845" y="332" on="1"/>
        <pt x="1938" y="285" on="0"/>
        <pt x="2161" y="237" on="0"/>
        <pt x="2294" y="223" on="1"/>
        <pt x="2262" y="294" on="0"/>
        <pt x="2197" y="417" on="0"/>
        <pt x="2146" y="520" on="0"/>
        <pt x="2114" y="605" on="0"/>
        <pt x="2114" y="637" on="1"/>
        <pt x="2114" y="696" on="0"/>
        <pt x="2246" y="839" on="0"/>
        <pt x="2333" y="881" on="1"/>
        <pt x="2363" y="721" on="1"/>
        <pt x="2403" y="520" on="0"/>
        <pt x="2433" y="343" on="0"/>
        <pt x="2433" y="301" on="1"/>
        <pt x="2433" y="244" on="0"/>
        <pt x="2368" y="29" on="0"/>
      </contour>
    </TTGlyph>
    <TTGlyph name="uni0633.fina" xMin="164" yMin="-696" xMax="2544" yMax="690">
      <contour>
        <pt x="2523" y="-20" on="1"/>
        <pt x="2424" y="-20" on="0"/>
        <pt x="2226" y="64" on="0"/>
        <pt x="2169" y="125" on="1"/>
        <pt x="2133" y="38" on="0"/>
        <pt x="2124" y="25" on="1"/>
        <pt x="2105" y="-4" on="0"/>
        <pt x="1965" y="-41" on="0"/>
        <pt x="1862" y="-41" on="1"/>
        <pt x="1827" y="-41" on="0"/>
        <pt x="1711" y="-8" on="0"/>
        <pt x="1667" y="10" on="1"/>
        <pt x="1632" y="-12" on="0"/>
        <pt x="1464" y="-41" on="0"/>
        <pt x="1378" y="-41" on="1"/>
        <pt x="1327" y="-37" on="1"/>
        <pt x="1331" y="-106" on="1"/>
        <pt x="1331" y="-266" on="0"/>
        <pt x="1139" y="-540" on="0"/>
        <pt x="806" y="-696" on="0"/>
        <pt x="606" y="-696" on="1"/>
        <pt x="390" y="-696" on="0"/>
        <pt x="164" y="-443" on="0"/>
        <pt x="164" y="-201" on="1"/>
        <pt x="164" y="-76" on="0"/>
        <pt x="223" y="147" on="1"/>
        <pt x="330" y="121" on="1"/>
        <pt x="297" y="10" on="0"/>
        <pt x="297" y="-70" on="1"/>
        <pt x="297" y="-243" on="0"/>
        <pt x="451" y="-410" on="0"/>
        <pt x="612" y="-410" on="1"/>
        <pt x="809" y="-410" on="0"/>
        <pt x="1077" y="-308" on="0"/>
        <pt x="1196" y="-197" on="1"/>
        <pt x="1164" y="-127" on="0"/>
        <pt x="1092" y="5" on="0"/>
        <pt x="1032" y="119" on="0"/>
        <pt x="993" y="212" on="0"/>
        <pt x="993" y="244" on="1"/>
        <pt x="993" y="446" on="0"/>
        <pt x="1237" y="561" on="1"/>
        <pt x="1247" y="480" on="0"/>
        <pt x="1288" y="250" on="1"/>
        <pt x="1391" y="246" on="1"/>
        <pt x="1453" y="246" on="0"/>
        <pt x="1516" y="257" on="0"/>
        <pt x="1563" y="272" on="1"/>
        <pt x="1591" y="322" on="0"/>
        <pt x="1664" y="516" on="1"/>
        <pt x="1696" y="598" on="1"/>
        <pt x="1708" y="628" on="0"/>
        <pt x="1772" y="670" on="0"/>
        <pt x="1813" y="670" on="1"/>
        <pt x="1859" y="670" on="0"/>
        <pt x="1898" y="643" on="1"/>
        <pt x="1870" y="573" on="0"/>
        <pt x="1801" y="347" on="1"/>
        <pt x="1767" y="238" on="1"/>
        <pt x="1804" y="236" on="1"/>
        <pt x="1833" y="236" on="1"/>
        <pt x="1922" y="236" on="0"/>
        <pt x="2005" y="262" on="1"/>
        <pt x="2033" y="308" on="0"/>
        <pt x="2111" y="532" on="1"/>
        <pt x="2144" y="618" on="1"/>
        <pt x="2157" y="648" on="0"/>
        <pt x="2220" y="690" on="0"/>
        <pt x="2263" y="690" on="1"/>
        <pt x="2308" y="690" on="0"/>
        <pt x="2347" y="666" on="1"/>
        <pt x="2316" y="588" on="0"/>
        <pt x="2267" y="424" on="1"/>
        <pt x="2238" y="330" on="1"/>
        <pt x="2295" y="295" on="0"/>
        <pt x="2428" y="266" on="0"/>
        <pt x="2523" y="266" on="1"/>
        <pt x="2544" y="266" on="0"/>
        <pt x="2544" y="246" on="1"/>
        <pt x="2544" y="0" on="1"/>
        <pt x="2544" y="-20" on="0"/>
      </contour>
    </TTGlyph>
    <TTGlyph name="uni0633.init" xMin="-20" yMin="-41" xMax="1563" yMax="881">
      <contour>
        <pt x="1462" y="-41" on="1"/>
        <pt x="1309" y="-41" on="0"/>
        <pt x="1002" y="29" on="0"/>
        <pt x="887" y="82" on="1"/>
        <pt x="858" y="25" on="1"/>
        <pt x="842" y="-2" on="0"/>
        <pt x="653" y="-41" on="0"/>
        <pt x="555" y="-41" on="1"/>
        <pt x="435" y="-41" on="0"/>
        <pt x="276" y="35" on="1"/>
        <pt x="233" y="13" on="0"/>
        <pt x="88" y="-20" on="0"/>
        <pt x="0" y="-20" on="1"/>
        <pt x="-20" y="-20" on="0"/>
        <pt x="-20" y="0" on="1"/>
        <pt x="-20" y="246" on="1"/>
        <pt x="-20" y="266" on="0"/>
        <pt x="0" y="266" on="1"/>
        <pt x="107" y="266" on="0"/>
        <pt x="221" y="293" on="0"/>
        <pt x="292" y="362" on="0"/>
        <pt x="339" y="444" on="1"/>
        <pt x="377" y="510" on="1"/>
        <pt x="393" y="536" on="0"/>
        <pt x="445" y="570" on="0"/>
        <pt x="477" y="570" on="1"/>
        <pt x="514" y="570" on="0"/>
        <pt x="551" y="545" on="1"/>
        <pt x="523" y="477" on="0"/>
        <pt x="466" y="325" on="0"/>
        <pt x="434" y="254" on="1"/>
        <pt x="488" y="246" on="0"/>
        <pt x="567" y="246" on="1"/>
        <pt x="629" y="246" on="0"/>
        <pt x="690" y="256" on="0"/>
        <pt x="739" y="272" on="1"/>
        <pt x="766" y="317" on="0"/>
        <pt x="841" y="516" on="1"/>
        <pt x="872" y="598" on="1"/>
        <pt x="885" y="628" on="0"/>
        <pt x="946" y="670" on="0"/>
        <pt x="989" y="670" on="1"/>
        <pt x="1036" y="670" on="0"/>
        <pt x="1075" y="643" on="1"/>
        <pt x="1045" y="572" on="0"/>
        <pt x="1000" y="420" on="1"/>
        <pt x="973" y="332" on="1"/>
        <pt x="1066" y="285" on="0"/>
        <pt x="1290" y="237" on="0"/>
        <pt x="1423" y="223" on="1"/>
        <pt x="1391" y="294" on="0"/>
        <pt x="1326" y="417" on="0"/>
        <pt x="1275" y="520" on="0"/>
        <pt x="1243" y="605" on="0"/>
        <pt x="1243" y="637" on="1"/>
        <pt x="1243" y="696" on="0"/>
        <pt x="1375" y="839" on="0"/>
        <pt x="1462" y="881" on="1"/>
        <pt x="1493" y="721" on="1"/>
        <pt x="1563" y="376" on="0"/>
        <pt x="1563" y="301" on="1"/>
        <pt x="1563" y="246" on="0"/>
        <pt x="1502" y="39" on="0"/>
      </contour>
    </TTGlyph>
    <TTGlyph name="uni0633.medi" xMin="-20" yMin="-41" xMax="1720" yMax="690">
      <contour>
        <pt x="477" y="570" on="1"/>
        <pt x="514" y="570" on="0"/>
        <pt x="551" y="545" on="1"/>
        <pt x="523" y="477" on="0"/>
        <pt x="466" y="325" on="0"/>
        <pt x="434" y="254" on="1"/>
        <pt x="488" y="246" on="0"/>
        <pt x="567" y="246" on="1"/>
        <pt x="629" y="246" on="0"/>
        <pt x="690" y="256" on="0"/>
        <pt x="739" y="272" on="1"/>
        <pt x="766" y="317" on="0"/>
        <pt x="841" y="516" on="1"/>
        <pt x="872" y="598" on="1"/>
        <pt x="885" y="628" on="0"/>
        <pt x="946" y="670" on="0"/>
        <pt x="989" y="670" on="1"/>
        <pt x="1036" y="670" on="0"/>
        <pt x="1075" y="643" on="1"/>
        <pt x="1037" y="550" on="0"/>
        <pt x="978" y="347" on="1"/>
        <pt x="944" y="238" on="1"/>
        <pt x="980" y="236" on="1"/>
        <pt x="1010" y="236" on="1"/>
        <pt x="1099" y="236" on="0"/>
        <pt x="1182" y="262" on="1"/>
        <pt x="1210" y="308" on="0"/>
        <pt x="1288" y="532" on="1"/>
        <pt x="1321" y="618" on="1"/>
        <pt x="1334" y="648" on="0"/>
        <pt x="1397" y="690" on="0"/>
        <pt x="1440" y="690" on="1"/>
        <pt x="1485" y="690" on="0"/>
        <pt x="1524" y="666" on="1"/>
        <pt x="1493" y="589" on="0"/>
        <pt x="1444" y="424" on="1"/>
        <pt x="1415" y="330" on="1"/>
        <pt x="1472" y="295" on="0"/>
        <pt x="1605" y="266" on="0"/>
        <pt x="1700" y="266" on="1"/>
        <pt x="1720" y="266" on="0"/>
        <pt x="1720" y="246" on="1"/>
        <pt x="1720" y="0" on="1"/>
        <pt x="1720" y="-20" on="0"/>
        <pt x="1700" y="-20" on="1"/>
        <pt x="1601" y="-20" on="0"/>
        <pt x="1403" y="64" on="0"/>
        <pt x="1346" y="125" on="1"/>
        <pt x="1312" y="43" on="0"/>
        <pt x="1300" y="25" on="1"/>
        <pt x="1281" y="-6" on="0"/>
        <pt x="1134" y="-41" on="0"/>
        <pt x="1038" y="-41" on="1"/>
        <pt x="1004" y="-41" on="0"/>
        <pt x="891" y="-10" on="0"/>
        <pt x="844" y="10" on="1"/>
        <pt x="809" y="-12" on="0"/>
        <pt x="641" y="-41" on="0"/>
        <pt x="555" y="-41" on="1"/>
        <pt x="435" y="-41" on="0"/>
        <pt x="276" y="35" on="1"/>
        <pt x="233" y="13" on="0"/>
        <pt x="88" y="-20" on="0"/>
        <pt x="0" y="-20" on="1"/>
        <pt x="-20" y="-20" on="0"/>
        <pt x="-20" y="0" on="1"/>
        <pt x="-20" y="246" on="1"/>
        <pt x="-20" y="266" on="0"/>
        <pt x="0" y="266" on="1"/>
        <pt x="107" y="266" on="0"/>
        <pt x="221" y="293" on="0"/>
        <pt x="292" y="362" on="0"/>
        <pt x="339" y="444" on="1"/>
        <pt x="377" y="510" on="1"/>
        <pt x="393" y="536" on="0"/>
        <pt x="445" y="570" on="0"/>
      </contour>
    </TTGlyph>
    <TTGlyph name="uni0634" xMin="164" yMin="-696" xMax="2433" yMax="1536">
      <component glyphName="uni0633" x="0" y="0" flags="0x204"/>
      <component glyphName="threedots.above" x="995" y="41" flags="0x4"/>
    </TTGlyph>
    <TTGlyph name="uni0634.fina" xMin="164" yMin="-696" xMax="2544" yMax="1536">
      <component glyphName="uni0633.fina" x="0" y="0" flags="0x204"/>
      <component glyphName="threedots.above" x="1157" y="41" flags="0x4"/>
    </TTGlyph>
    <TTGlyph name="uni0634.init" xMin="-20" yMin="-41" xMax="1563" yMax="1536">
      <component glyphName="uni0633.init" x="0" y="0" flags="0x204"/>
      <component glyphName="threedots.above" x="154" y="41" flags="0x4"/>
    </TTGlyph>
    <TTGlyph name="uni0634.medi" xMin="-20" yMin="-41" xMax="1720" yMax="1536">
      <component glyphName="uni0633.medi" x="0" y="0" flags="0x204"/>
      <component glyphName="threedots.above" x="240" y="41" flags="0x4"/>
    </TTGlyph>
    <TTGlyph name="uni0635" xMin="164" yMin="-696" xMax="2603" yMax="922">
      <contour>
        <pt x="606" y="-696" on="1"/>
        <pt x="390" y="-696" on="0"/>
        <pt x="164" y="-443" on="0"/>
        <pt x="164" y="-201" on="1"/>
        <pt x="164" y="-76" on="0"/>
        <pt x="223" y="147" on="1"/>
        <pt x="330" y="121" on="1"/>
        <pt x="297" y="10" on="0"/>
        <pt x="297" y="-70" on="1"/>
        <pt x="297" y="-243" on="0"/>
        <pt x="451" y="-410" on="0"/>
        <pt x="612" y="-410" on="1"/>
        <pt x="809" y="-410" on="0"/>
        <pt x="1077" y="-308" on="0"/>
        <pt x="1196" y="-197" on="1"/>
        <pt x="1164" y="-127" on="0"/>
        <pt x="1092" y="5" on="0"/>
        <pt x="1032" y="119" on="0"/>
        <pt x="993" y="212" on="0"/>
        <pt x="993" y="244" on="1"/>
        <pt x="993" y="446" on="0"/>
        <pt x="1237" y="561" on="1"/>
        <pt x="1250" y="462" on="0"/>
        <pt x="1276" y="307" on="1"/>
        <pt x="1350" y="285" on="1"/>
        <pt x="1601" y="615" on="0"/>
        <pt x="1979" y="922" on="0"/>
        <pt x="2116" y="922" on="1"/>
        <pt x="2200" y="922" on="0"/>
        <pt x="2425" y="783" on="0"/>
        <pt x="2603" y="573" on="0"/>
        <pt x="2603" y="502" on="1"/>
        <pt x="2603" y="346" on="0"/>
        <pt x="2405" y="105" on="0"/>
        <pt x="2000" y="-41" on="0"/>
        <pt x="1786" y="-41" on="1"/>
        <pt x="1676" y="-41" on="0"/>
        <pt x="1428" y="-12" on="0"/>
        <pt x="1323" y="16" on="1"/>
        <pt x="1331" y="-69" on="0"/>
        <pt x="1331" y="-106" on="1"/>
        <pt x="1331" y="-266" on="0"/>
        <pt x="1139" y="-540" on="0"/>
        <pt x="806" y="-696" on="0"/>
      </contour>
      <contour>
        <pt x="2056" y="639" on="1"/>
        <pt x="1848" y="639" on="0"/>
        <pt x="1511" y="248" on="1"/>
        <pt x="1659" y="225" on="0"/>
        <pt x="1810" y="225" on="1"/>
        <pt x="1971" y="225" on="0"/>
        <pt x="2262" y="295" on="0"/>
        <pt x="2464" y="391" on="1"/>
        <pt x="2249" y="639" on="0"/>
      </contour>
    </TTGlyph>
    <TTGlyph name="uni0635.fina" xMin="164" yMin="-696" xMax="2900" yMax="922">
      <contour>
        <pt x="2879" y="-20" on="1"/>
        <pt x="2764" y="-20" on="0"/>
        <pt x="2540" y="84" on="0"/>
        <pt x="2458" y="176" on="1"/>
        <pt x="2382" y="107" on="0"/>
        <pt x="2164" y="11" on="0"/>
        <pt x="1907" y="-41" on="0"/>
        <pt x="1786" y="-41" on="1"/>
        <pt x="1676" y="-41" on="0"/>
        <pt x="1428" y="-12" on="0"/>
        <pt x="1323" y="16" on="1"/>
        <pt x="1331" y="-69" on="0"/>
        <pt x="1331" y="-106" on="1"/>
        <pt x="1331" y="-266" on="0"/>
        <pt x="1139" y="-540" on="0"/>
        <pt x="806" y="-696" on="0"/>
        <pt x="606" y="-696" on="1"/>
        <pt x="390" y="-696" on="0"/>
        <pt x="164" y="-443" on="0"/>
        <pt x="164" y="-201" on="1"/>
        <pt x="164" y="-76" on="0"/>
        <pt x="223" y="147" on="1"/>
        <pt x="330" y="121" on="1"/>
        <pt x="297" y="10" on="0"/>
        <pt x="297" y="-70" on="1"/>
        <pt x="297" y="-243" on="0"/>
        <pt x="451" y="-410" on="0"/>
        <pt x="612" y="-410" on="1"/>
        <pt x="809" y="-410" on="0"/>
        <pt x="1077" y="-308" on="0"/>
        <pt x="1196" y="-197" on="1"/>
        <pt x="1164" y="-127" on="0"/>
        <pt x="1092" y="5" on="0"/>
        <pt x="1032" y="119" on="0"/>
        <pt x="993" y="212" on="0"/>
        <pt x="993" y="244" on="1"/>
        <pt x="993" y="446" on="0"/>
        <pt x="1237" y="561" on="1"/>
        <pt x="1250" y="462" on="0"/>
        <pt x="1276" y="307" on="1"/>
        <pt x="1350" y="285" on="1"/>
        <pt x="1601" y="615" on="0"/>
        <pt x="1979" y="922" on="0"/>
        <pt x="2116" y="922" on="1"/>
        <pt x="2200" y="922" on="0"/>
        <pt x="2425" y="783" on="0"/>
        <pt x="2603" y="573" on="0"/>
        <pt x="2603" y="502" on="1"/>
        <pt x="2603" y="424" on="0"/>
        <pt x="2580" y="358" on="1"/>
        <pt x="2638" y="317" on="0"/>
        <pt x="2778" y="266" on="0"/>
        <pt x="2879" y="266" on="1"/>
        <pt x="2900" y="266" on="0"/>
        <pt x="2900" y="246" on="1"/>
        <pt x="2900" y="0" on="1"/>
        <pt x="2900" y="-20" on="0"/>
      </contour>
      <contour>
        <pt x="2056" y="639" on="1"/>
        <pt x="1848" y="639" on="0"/>
        <pt x="1511" y="248" on="1"/>
        <pt x="1659" y="225" on="0"/>
        <pt x="1810" y="225" on="1"/>
        <pt x="1971" y="225" on="0"/>
        <pt x="2262" y="295" on="0"/>
        <pt x="2464" y="391" on="1"/>
        <pt x="2249" y="639" on="0"/>
      </contour>
    </TTGlyph>
    <TTGlyph name="uni0635.init" xMin="-20" yMin="-41" xMax="1792" yMax="922">
      <contour>
        <pt x="461" y="575" on="1"/>
        <pt x="500" y="575" on="0"/>
        <pt x="537" y="551" on="1"/>
        <pt x="492" y="436" on="1"/>
        <pt x="442" y="315" on="1"/>
        <pt x="487" y="298" on="0"/>
        <pt x="539" y="285" on="1"/>
        <pt x="790" y="615" on="0"/>
        <pt x="1168" y="922" on="0"/>
        <pt x="1305" y="922" on="1"/>
        <pt x="1389" y="922" on="0"/>
        <pt x="1614" y="783" on="0"/>
        <pt x="1792" y="573" on="0"/>
        <pt x="1792" y="502" on="1"/>
        <pt x="1792" y="346" on="0"/>
        <pt x="1594" y="105" on="0"/>
        <pt x="1189" y="-41" on="0"/>
        <pt x="975" y="-41" on="1"/>
        <pt x="787" y="-41" on="0"/>
        <pt x="433" y="29" on="0"/>
        <pt x="322" y="88" on="1"/>
        <pt x="305" y="68" on="1"/>
        <pt x="267" y="30" on="0"/>
        <pt x="96" y="-20" on="0"/>
        <pt x="0" y="-20" on="1"/>
        <pt x="-20" y="-20" on="0"/>
        <pt x="-20" y="0" on="1"/>
        <pt x="-20" y="246" on="1"/>
        <pt x="-20" y="266" on="0"/>
        <pt x="0" y="266" on="1"/>
        <pt x="102" y="266" on="0"/>
        <pt x="196" y="290" on="0"/>
        <pt x="267" y="357" on="0"/>
        <pt x="315" y="444" on="1"/>
        <pt x="352" y="510" on="1"/>
        <pt x="368" y="539" on="0"/>
        <pt x="425" y="575" on="0"/>
      </contour>
      <contour>
        <pt x="1245" y="639" on="1"/>
        <pt x="1037" y="639" on="0"/>
        <pt x="700" y="248" on="1"/>
        <pt x="848" y="225" on="0"/>
        <pt x="999" y="225" on="1"/>
        <pt x="1160" y="225" on="0"/>
        <pt x="1451" y="295" on="0"/>
        <pt x="1653" y="391" on="1"/>
        <pt x="1438" y="639" on="0"/>
      </contour>
    </TTGlyph>
    <TTGlyph name="uni0635.medi" xMin="-20" yMin="-41" xMax="2079" yMax="922">
      <contour>
        <pt x="2058" y="-20" on="1"/>
        <pt x="1940" y="-20" on="0"/>
        <pt x="1721" y="82" on="0"/>
        <pt x="1640" y="170" on="1"/>
        <pt x="1533" y="75" on="0"/>
        <pt x="1167" y="-41" on="0"/>
        <pt x="975" y="-41" on="1"/>
        <pt x="787" y="-41" on="0"/>
        <pt x="433" y="29" on="0"/>
        <pt x="322" y="88" on="1"/>
        <pt x="305" y="68" on="1"/>
        <pt x="267" y="30" on="0"/>
        <pt x="96" y="-20" on="0"/>
        <pt x="0" y="-20" on="1"/>
        <pt x="-20" y="-20" on="0"/>
        <pt x="-20" y="0" on="1"/>
        <pt x="-20" y="246" on="1"/>
        <pt x="-20" y="266" on="0"/>
        <pt x="0" y="266" on="1"/>
        <pt x="102" y="266" on="0"/>
        <pt x="196" y="290" on="0"/>
        <pt x="267" y="357" on="0"/>
        <pt x="315" y="444" on="1"/>
        <pt x="352" y="510" on="1"/>
        <pt x="368" y="539" on="0"/>
        <pt x="425" y="575" on="0"/>
        <pt x="461" y="575" on="1"/>
        <pt x="500" y="575" on="0"/>
        <pt x="537" y="551" on="1"/>
        <pt x="492" y="436" on="1"/>
        <pt x="442" y="315" on="1"/>
        <pt x="487" y="298" on="0"/>
        <pt x="539" y="285" on="1"/>
        <pt x="790" y="615" on="0"/>
        <pt x="1168" y="922" on="0"/>
        <pt x="1305" y="922" on="1"/>
        <pt x="1389" y="922" on="0"/>
        <pt x="1614" y="783" on="0"/>
        <pt x="1792" y="573" on="0"/>
        <pt x="1792" y="502" on="1"/>
        <pt x="1792" y="429" on="0"/>
        <pt x="1767" y="352" on="1"/>
        <pt x="1824" y="314" on="0"/>
        <pt x="1961" y="266" on="0"/>
        <pt x="2058" y="266" on="1"/>
        <pt x="2079" y="266" on="0"/>
        <pt x="2079" y="246" on="1"/>
        <pt x="2079" y="0" on="1"/>
        <pt x="2079" y="-20" on="0"/>
      </contour>
      <contour>
        <pt x="1245" y="639" on="1"/>
        <pt x="1037" y="639" on="0"/>
        <pt x="700" y="248" on="1"/>
        <pt x="848" y="225" on="0"/>
        <pt x="999" y="225" on="1"/>
        <pt x="1160" y="225" on="0"/>
        <pt x="1451" y="295" on="0"/>
        <pt x="1653" y="391" on="1"/>
        <pt x="1438" y="639" on="0"/>
      </contour>
    </TTGlyph>
    <TTGlyph name="uni0636" xMin="164" yMin="-696" xMax="2603" yMax="1439">
      <component glyphName="uni0635" x="0" y="0" flags="0x204"/>
      <component glyphName="onedot.above" x="1171" y="225" flags="0x4"/>
    </TTGlyph>
    <TTGlyph name="uni0636.fina" xMin="164" yMin="-696" xMax="2900" yMax="1439">
      <component glyphName="uni0635.fina" x="0" y="0" flags="0x4"/>
      <component glyphName="onedot.above" x="1171" y="225" flags="0x4"/>
    </TTGlyph>
    <TTGlyph name="uni0636.init" xMin="-20" yMin="-41" xMax="1792" yMax="1439">
      <component glyphName="uni0635.init" x="0" y="0" flags="0x204"/>
      <component glyphName="onedot.above" x="326" y="225" flags="0x4"/>
    </TTGlyph>
    <TTGlyph name="uni0636.medi" xMin="-20" yMin="-41" xMax="2079" yMax="1439">
      <component glyphName="uni0635.medi" x="0" y="0" flags="0x4"/>
      <component glyphName="onedot.above" x="336" y="225" flags="0x4"/>
    </TTGlyph>
    <TTGlyph name="uni0637" xMin="82" yMin="-41" xMax="1786" yMax="1597">
      <contour>
        <pt x="969" y="-41" on="1"/>
        <pt x="832" y="-41" on="0"/>
        <pt x="480" y="-20" on="0"/>
        <pt x="422" y="-2" on="1"/>
        <pt x="370" y="13" on="0"/>
        <pt x="155" y="162" on="0"/>
        <pt x="82" y="231" on="1"/>
        <pt x="119" y="334" on="1"/>
        <pt x="378" y="273" on="0"/>
        <pt x="512" y="256" on="1"/>
        <pt x="558" y="320" on="0"/>
        <pt x="608" y="379" on="1"/>
        <pt x="530" y="716" on="0"/>
        <pt x="420" y="1305" on="1"/>
        <pt x="415" y="1333" on="0"/>
        <pt x="415" y="1360" on="1"/>
        <pt x="415" y="1461" on="0"/>
        <pt x="556" y="1597" on="0"/>
        <pt x="659" y="1597" on="1"/>
        <pt x="701" y="1445" on="0"/>
        <pt x="756" y="1300" on="1"/>
        <pt x="680" y="1241" on="1"/>
        <pt x="733" y="530" on="1"/>
        <pt x="913" y="733" on="0"/>
        <pt x="1188" y="922" on="0"/>
        <pt x="1298" y="922" on="1"/>
        <pt x="1381" y="922" on="0"/>
        <pt x="1607" y="784" on="0"/>
        <pt x="1786" y="573" on="0"/>
        <pt x="1786" y="502" on="1"/>
        <pt x="1786" y="346" on="0"/>
        <pt x="1588" y="105" on="0"/>
        <pt x="1183" y="-41" on="0"/>
      </contour>
      <contour>
        <pt x="1239" y="639" on="1"/>
        <pt x="1032" y="639" on="0"/>
        <pt x="684" y="236" on="1"/>
        <pt x="792" y="225" on="0"/>
        <pt x="993" y="225" on="1"/>
        <pt x="1154" y="225" on="0"/>
        <pt x="1445" y="295" on="0"/>
        <pt x="1647" y="391" on="1"/>
        <pt x="1432" y="639" on="0"/>
      </contour>
    </TTGlyph>
    <TTGlyph name="uni0637.fina" xMin="164" yMin="-41" xMax="2148" yMax="1597">
      <contour>
        <pt x="1051" y="-41" on="1"/>
        <pt x="914" y="-41" on="0"/>
        <pt x="562" y="-20" on="0"/>
        <pt x="504" y="-2" on="1"/>
        <pt x="452" y="13" on="0"/>
        <pt x="237" y="162" on="0"/>
        <pt x="164" y="231" on="1"/>
        <pt x="201" y="334" on="1"/>
        <pt x="460" y="273" on="0"/>
        <pt x="594" y="256" on="1"/>
        <pt x="640" y="320" on="0"/>
        <pt x="690" y="379" on="1"/>
        <pt x="612" y="716" on="0"/>
        <pt x="502" y="1305" on="1"/>
        <pt x="497" y="1333" on="0"/>
        <pt x="497" y="1360" on="1"/>
        <pt x="497" y="1461" on="0"/>
        <pt x="638" y="1597" on="0"/>
        <pt x="741" y="1597" on="1"/>
        <pt x="783" y="1445" on="0"/>
        <pt x="838" y="1300" on="1"/>
        <pt x="762" y="1241" on="1"/>
        <pt x="815" y="530" on="1"/>
        <pt x="995" y="733" on="0"/>
        <pt x="1270" y="922" on="0"/>
        <pt x="1380" y="922" on="1"/>
        <pt x="1463" y="922" on="0"/>
        <pt x="1689" y="784" on="0"/>
        <pt x="1868" y="573" on="0"/>
        <pt x="1868" y="502" on="1"/>
        <pt x="1868" y="421" on="0"/>
        <pt x="1841" y="350" on="1"/>
        <pt x="1898" y="312" on="0"/>
        <pt x="2033" y="266" on="0"/>
        <pt x="2128" y="266" on="1"/>
        <pt x="2148" y="266" on="0"/>
        <pt x="2148" y="246" on="1"/>
        <pt x="2148" y="0" on="1"/>
        <pt x="2148" y="-20" on="0"/>
        <pt x="2128" y="-20" on="1"/>
        <pt x="2015" y="-20" on="0"/>
        <pt x="1798" y="77" on="0"/>
        <pt x="1712" y="168" on="1"/>
        <pt x="1598" y="69" on="0"/>
        <pt x="1234" y="-41" on="0"/>
      </contour>
      <contour>
        <pt x="1321" y="639" on="1"/>
        <pt x="1114" y="639" on="0"/>
        <pt x="766" y="236" on="1"/>
        <pt x="874" y="225" on="0"/>
        <pt x="1075" y="225" on="1"/>
        <pt x="1236" y="225" on="0"/>
        <pt x="1527" y="295" on="0"/>
        <pt x="1729" y="391" on="1"/>
        <pt x="1514" y="639" on="0"/>
      </contour>
    </TTGlyph>
    <TTGlyph name="uni0637.init" xMin="-20" yMin="-20" xMax="1546" yMax="1597">
      <contour>
        <pt x="0" y="-20" on="1"/>
        <pt x="-20" y="-20" on="0"/>
        <pt x="-20" y="0" on="1"/>
        <pt x="-20" y="246" on="1"/>
        <pt x="-20" y="266" on="0"/>
        <pt x="0" y="266" on="1"/>
        <pt x="107" y="266" on="1"/>
        <pt x="246" y="268" on="1"/>
        <pt x="346" y="403" on="1"/>
        <pt x="320" y="515" on="0"/>
        <pt x="277" y="719" on="0"/>
        <pt x="164" y="1305" on="1"/>
        <pt x="159" y="1333" on="0"/>
        <pt x="159" y="1360" on="1"/>
        <pt x="159" y="1461" on="0"/>
        <pt x="300" y="1597" on="0"/>
        <pt x="403" y="1597" on="1"/>
        <pt x="445" y="1445" on="0"/>
        <pt x="500" y="1300" on="1"/>
        <pt x="424" y="1241" on="1"/>
        <pt x="475" y="565" on="1"/>
        <pt x="815" y="963" on="0"/>
        <pt x="1057" y="963" on="1"/>
        <pt x="1133" y="963" on="0"/>
        <pt x="1294" y="894" on="0"/>
        <pt x="1447" y="763" on="0"/>
        <pt x="1546" y="615" on="0"/>
        <pt x="1546" y="571" on="1"/>
        <pt x="1546" y="381" on="0"/>
        <pt x="1217" y="119" on="0"/>
        <pt x="552" y="-20" on="0"/>
      </contour>
      <contour>
        <pt x="997" y="670" on="1"/>
        <pt x="778" y="670" on="0"/>
        <pt x="436" y="272" on="1"/>
        <pt x="692" y="285" on="1"/>
        <pt x="907" y="297" on="0"/>
        <pt x="1204" y="381" on="1"/>
        <pt x="1389" y="432" on="1"/>
        <pt x="1309" y="523" on="0"/>
        <pt x="1185" y="625" on="0"/>
        <pt x="1072" y="670" on="0"/>
      </contour>
    </TTGlyph>
    <TTGlyph name="uni0637.medi" xMin="-20" yMin="-20" xMax="1741" yMax="1597">
      <contour>
        <pt x="0" y="-20" on="1"/>
        <pt x="-20" y="-20" on="0"/>
        <pt x="-20" y="0" on="1"/>
        <pt x="-20" y="246" on="1"/>
        <pt x="-20" y="266" on="0"/>
        <pt x="0" y="266" on="1"/>
        <pt x="107" y="266" on="1"/>
        <pt x="246" y="268" on="1"/>
        <pt x="346" y="403" on="1"/>
        <pt x="320" y="515" on="0"/>
        <pt x="277" y="719" on="0"/>
        <pt x="164" y="1305" on="1"/>
        <pt x="159" y="1333" on="0"/>
        <pt x="159" y="1360" on="1"/>
        <pt x="159" y="1461" on="0"/>
        <pt x="300" y="1597" on="0"/>
        <pt x="403" y="1597" on="1"/>
        <pt x="445" y="1445" on="0"/>
        <pt x="500" y="1300" on="1"/>
        <pt x="424" y="1241" on="1"/>
        <pt x="475" y="565" on="1"/>
        <pt x="815" y="963" on="0"/>
        <pt x="1057" y="963" on="1"/>
        <pt x="1133" y="963" on="0"/>
        <pt x="1294" y="894" on="0"/>
        <pt x="1447" y="763" on="0"/>
        <pt x="1546" y="615" on="0"/>
        <pt x="1546" y="571" on="1"/>
        <pt x="1546" y="435" on="0"/>
        <pt x="1464" y="332" on="1"/>
        <pt x="1573" y="266" on="0"/>
        <pt x="1720" y="266" on="1"/>
        <pt x="1741" y="266" on="0"/>
        <pt x="1741" y="246" on="1"/>
        <pt x="1741" y="0" on="1"/>
        <pt x="1741" y="-20" on="0"/>
        <pt x="1720" y="-20" on="1"/>
        <pt x="1597" y="-20" on="0"/>
        <pt x="1366" y="93" on="0"/>
        <pt x="1288" y="186" on="1"/>
        <pt x="1106" y="86" on="0"/>
        <pt x="486" y="-20" on="0"/>
      </contour>
      <contour>
        <pt x="997" y="670" on="1"/>
        <pt x="778" y="670" on="0"/>
        <pt x="436" y="272" on="1"/>
        <pt x="692" y="285" on="1"/>
        <pt x="907" y="297" on="0"/>
        <pt x="1204" y="381" on="1"/>
        <pt x="1389" y="432" on="1"/>
        <pt x="1309" y="523" on="0"/>
        <pt x="1185" y="625" on="0"/>
        <pt x="1072" y="670" on="0"/>
      </contour>
    </TTGlyph>
    <TTGlyph name="uni0638" xMin="82" yMin="-41" xMax="1786" yMax="1597">
      <component glyphName="uni0637" x="0" y="0" flags="0x204"/>
      <component glyphName="onedot.above" x="604" y="250" flags="0x4"/>
    </TTGlyph>
    <TTGlyph name="uni0638.fina" xMin="164" yMin="-41" xMax="2148" yMax="1597">
      <component glyphName="uni0637.fina" x="0" y="0" flags="0x4"/>
      <component glyphName="onedot.above" x="686" y="250" flags="0x4"/>
    </TTGlyph>
    <TTGlyph name="uni0638.init" xMin="-20" yMin="-20" xMax="1546" yMax="1597">
      <component glyphName="uni0637.init" x="0" y="0" flags="0x204"/>
      <component glyphName="onedot.above" x="326" y="250" flags="0x4"/>
    </TTGlyph>
    <TTGlyph name="uni0638.medi" xMin="-20" yMin="-20" xMax="1741" yMax="1597">
      <component glyphName="uni0637.medi" x="0" y="0" flags="0x4"/>
      <component glyphName="onedot.above" x="324" y="250" flags="0x4"/>
    </TTGlyph>
    <TTGlyph name="uni0639" xMin="164" yMin="-696" xMax="1538" yMax="1315">
      <contour>
        <pt x="920" y="-696" on="1"/>
        <pt x="603" y="-696" on="0"/>
        <pt x="274" y="-379" on="0"/>
        <pt x="274" y="-68" on="1"/>
        <pt x="274" y="212" on="0"/>
        <pt x="492" y="444" on="1"/>
        <pt x="395" y="470" on="0"/>
        <pt x="246" y="580" on="0"/>
        <pt x="164" y="728" on="0"/>
        <pt x="164" y="799" on="1"/>
        <pt x="164" y="912" on="0"/>
        <pt x="292" y="1170" on="0"/>
        <pt x="472" y="1315" on="0"/>
        <pt x="567" y="1315" on="1"/>
        <pt x="736" y="1315" on="0"/>
        <pt x="934" y="1092" on="1"/>
        <pt x="883" y="995" on="1"/>
        <pt x="738" y="1051" on="0"/>
        <pt x="629" y="1051" on="1"/>
        <pt x="546" y="1051" on="0"/>
        <pt x="417" y="1016" on="0"/>
        <pt x="336" y="973" on="1"/>
        <pt x="344" y="831" on="0"/>
        <pt x="542" y="659" on="0"/>
        <pt x="725" y="639" on="1"/>
        <pt x="918" y="763" on="0"/>
        <pt x="1155" y="838" on="1"/>
        <pt x="1184" y="803" on="0"/>
        <pt x="1184" y="717" on="1"/>
        <pt x="1184" y="647" on="0"/>
        <pt x="1108" y="552" on="0"/>
        <pt x="1025" y="516" on="1"/>
        <pt x="775" y="410" on="0"/>
        <pt x="519" y="232" on="0"/>
        <pt x="397" y="49" on="0"/>
        <pt x="397" y="-41" on="1"/>
        <pt x="397" y="-216" on="0"/>
        <pt x="696" y="-420" on="0"/>
        <pt x="926" y="-420" on="1"/>
        <pt x="1054" y="-420" on="0"/>
        <pt x="1316" y="-387" on="0"/>
        <pt x="1505" y="-344" on="1"/>
        <pt x="1538" y="-446" on="1"/>
        <pt x="1378" y="-539" on="0"/>
        <pt x="1008" y="-696" on="0"/>
      </contour>
    </TTGlyph>
    <TTGlyph name="uni0639.fina" xMin="165" yMin="-860" xMax="1419" yMax="963">
      <contour>
        <pt x="1165" y="-20" on="1"/>
        <pt x="994" y="-20" on="0"/>
        <pt x="745" y="54" on="0"/>
        <pt x="651" y="135" on="1"/>
        <pt x="524" y="59" on="0"/>
        <pt x="385" y="-121" on="0"/>
        <pt x="385" y="-205" on="1"/>
        <pt x="385" y="-322" on="0"/>
        <pt x="522" y="-492" on="0"/>
        <pt x="765" y="-584" on="0"/>
        <pt x="913" y="-584" on="1"/>
        <pt x="1099" y="-584" on="0"/>
        <pt x="1386" y="-518" on="1"/>
        <pt x="1419" y="-621" on="1"/>
        <pt x="1329" y="-673" on="1"/>
        <pt x="1017" y="-860" on="0"/>
        <pt x="907" y="-860" on="1"/>
        <pt x="590" y="-860" on="0"/>
        <pt x="262" y="-551" on="0"/>
        <pt x="262" y="-240" on="1"/>
        <pt x="262" y="32" on="0"/>
        <pt x="539" y="254" on="1"/>
        <pt x="484" y="324" on="1"/>
        <pt x="387" y="455" on="0"/>
        <pt x="272" y="547" on="1"/>
        <pt x="229" y="518" on="1"/>
        <pt x="165" y="589" on="0"/>
        <pt x="165" y="672" on="1"/>
        <pt x="165" y="751" on="0"/>
        <pt x="304" y="872" on="0"/>
        <pt x="554" y="963" on="0"/>
        <pt x="674" y="963" on="1"/>
        <pt x="778" y="963" on="0"/>
        <pt x="966" y="870" on="0"/>
        <pt x="1075" y="712" on="0"/>
        <pt x="1075" y="621" on="1"/>
        <pt x="1075" y="448" on="0"/>
        <pt x="874" y="281" on="1"/>
        <pt x="958" y="266" on="0"/>
        <pt x="1165" y="266" on="1"/>
        <pt x="1190" y="266" on="0"/>
        <pt x="1190" y="244" on="1"/>
        <pt x="1190" y="2" on="1"/>
        <pt x="1190" y="-20" on="0"/>
      </contour>
      <contour>
        <pt x="682" y="696" on="1"/>
        <pt x="554" y="696" on="0"/>
        <pt x="428" y="637" on="1"/>
        <pt x="508" y="572" on="0"/>
        <pt x="632" y="433" on="1"/>
        <pt x="694" y="369" on="1"/>
        <pt x="771" y="423" on="0"/>
        <pt x="834" y="514" on="0"/>
        <pt x="834" y="567" on="1"/>
        <pt x="834" y="625" on="0"/>
        <pt x="747" y="696" on="0"/>
      </contour>
    </TTGlyph>
    <TTGlyph name="uni0639.init" xMin="-20" yMin="-20" xMax="1183" yMax="930">
      <contour>
        <pt x="0" y="-20" on="1"/>
        <pt x="-20" y="-20" on="0"/>
        <pt x="-20" y="0" on="1"/>
        <pt x="-20" y="246" on="1"/>
        <pt x="-20" y="266" on="0"/>
        <pt x="0" y="266" on="1"/>
        <pt x="128" y="265" on="1"/>
        <pt x="188" y="266" on="1"/>
        <pt x="137" y="334" on="0"/>
        <pt x="137" y="414" on="1"/>
        <pt x="137" y="527" on="0"/>
        <pt x="265" y="785" on="0"/>
        <pt x="446" y="930" on="0"/>
        <pt x="541" y="930" on="1"/>
        <pt x="709" y="930" on="0"/>
        <pt x="907" y="707" on="1"/>
        <pt x="856" y="610" on="1"/>
        <pt x="711" y="666" on="0"/>
        <pt x="602" y="666" on="1"/>
        <pt x="519" y="666" on="0"/>
        <pt x="390" y="631" on="0"/>
        <pt x="309" y="588" on="1"/>
        <pt x="314" y="488" on="0"/>
        <pt x="407" y="322" on="0"/>
        <pt x="504" y="274" on="1"/>
        <pt x="855" y="291" on="0"/>
        <pt x="1145" y="408" on="1"/>
        <pt x="1161" y="393" on="0"/>
        <pt x="1183" y="328" on="0"/>
        <pt x="1183" y="290" on="1"/>
        <pt x="1183" y="234" on="0"/>
        <pt x="1135" y="147" on="0"/>
        <pt x="1050" y="94" on="0"/>
        <pt x="678" y="15" on="0"/>
        <pt x="274" y="-20" on="0"/>
      </contour>
    </TTGlyph>
    <TTGlyph name="uni0639.medi" xMin="-20" yMin="-20" xMax="1120" yMax="963">
      <contour>
        <pt x="1096" y="-20" on="1"/>
        <pt x="763" y="-20" on="0"/>
        <pt x="575" y="127" on="1"/>
        <pt x="433" y="48" on="0"/>
        <pt x="152" y="-20" on="0"/>
        <pt x="2" y="-20" on="1"/>
        <pt x="-20" y="-20" on="0"/>
        <pt x="-20" y="2" on="1"/>
        <pt x="-20" y="244" on="1"/>
        <pt x="-20" y="266" on="0"/>
        <pt x="2" y="266" on="1"/>
        <pt x="110" y="266" on="0"/>
        <pt x="331" y="271" on="0"/>
        <pt x="424" y="287" on="1"/>
        <pt x="375" y="349" on="1"/>
        <pt x="286" y="464" on="0"/>
        <pt x="182" y="547" on="1"/>
        <pt x="139" y="518" on="1"/>
        <pt x="75" y="589" on="0"/>
        <pt x="75" y="672" on="1"/>
        <pt x="75" y="751" on="0"/>
        <pt x="214" y="872" on="0"/>
        <pt x="464" y="963" on="0"/>
        <pt x="584" y="963" on="1"/>
        <pt x="688" y="963" on="0"/>
        <pt x="876" y="870" on="0"/>
        <pt x="985" y="712" on="0"/>
        <pt x="985" y="621" on="1"/>
        <pt x="985" y="449" on="0"/>
        <pt x="797" y="281" on="1"/>
        <pt x="887" y="266" on="0"/>
        <pt x="1096" y="266" on="1"/>
        <pt x="1120" y="266" on="0"/>
        <pt x="1120" y="244" on="1"/>
        <pt x="1120" y="2" on="1"/>
        <pt x="1120" y="-20" on="0"/>
      </contour>
      <contour>
        <pt x="592" y="696" on="1"/>
        <pt x="464" y="696" on="0"/>
        <pt x="338" y="637" on="1"/>
        <pt x="417" y="570" on="0"/>
        <pt x="487" y="493" on="1"/>
        <pt x="574" y="395" on="0"/>
        <pt x="614" y="358" on="1"/>
        <pt x="743" y="451" on="0"/>
        <pt x="743" y="567" on="1"/>
        <pt x="743" y="624" on="0"/>
        <pt x="658" y="696" on="0"/>
      </contour>
    </TTGlyph>
    <TTGlyph name="uni063A" xMin="164" yMin="-696" xMax="1538" yMax="1882">
      <component glyphName="uni0639" x="0" y="0" flags="0x4"/>
      <component glyphName="onedot.above" x="8" y="668" flags="0x4"/>
    </TTGlyph>
    <TTGlyph name="uni063A.fina" xMin="165" yMin="-860" xMax="1419" yMax="1566">
      <component glyphName="uni0639.fina" x="0" y="0" flags="0x204"/>
      <component glyphName="onedot.above" x="98" y="352" flags="0x4"/>
    </TTGlyph>
    <TTGlyph name="uni063A.init" xMin="-20" yMin="-20" xMax="1183" yMax="1519">
      <component glyphName="uni0639.init" x="0" y="0" flags="0x204"/>
      <component glyphName="onedot.above" x="-175" y="305" flags="0x4"/>
    </TTGlyph>
    <TTGlyph name="uni063A.medi" xMin="-20" yMin="-20" xMax="1120" yMax="1570">
      <component glyphName="uni0639.medi" x="0" y="0" flags="0x204"/>
      <component glyphName="onedot.above" x="33" y="356" flags="0x4"/>
    </TTGlyph>
    <TTGlyph name="uni0640" xMin="-20" yMin="-20" xMax="281" yMax="266">
      <contour>
        <pt x="0" y="-20" on="1"/>
        <pt x="-20" y="-20" on="0"/>
        <pt x="-20" y="0" on="1"/>
        <pt x="-20" y="246" on="1"/>
        <pt x="-20" y="266" on="0"/>
        <pt x="0" y="266" on="1"/>
        <pt x="260" y="266" on="1"/>
        <pt x="281" y="266" on="0"/>
        <pt x="281" y="246" on="1"/>
        <pt x="281" y="0" on="1"/>
        <pt x="281" y="-20" on="0"/>
        <pt x="260" y="-20" on="1"/>
      </contour>
    </TTGlyph>
    <TTGlyph name="uni0641" xMin="164" yMin="-41" xMax="1954" yMax="1767">
      <component glyphName="feh_dotless.isol" x="12" y="0" flags="0x4"/>
      <component glyphName="onedot.above" x="956" y="553" flags="0x4"/>
    </TTGlyph>
    <TTGlyph name="uni0641.fina" xMin="164" yMin="-41" xMax="2044" yMax="1517">
      <component glyphName="uni06A1.fina" x="12" y="0" flags="0x4"/>
      <component glyphName="onedot.above" x="1026" y="303" flags="0x4"/>
    </TTGlyph>
    <TTGlyph name="uni0641.init" xMin="-20" yMin="-20" xMax="907" yMax="1767">
      <component glyphName="uni066F.init" x="0" y="0" flags="0x4"/>
      <component glyphName="onedot.above" x="-151" y="553" flags="0x4"/>
    </TTGlyph>
    <TTGlyph name="uni0641.medi" xMin="-20" yMin="-20" xMax="1034" yMax="1527">
      <component glyphName="uni066F.medi" x="0" y="0" flags="0x204"/>
      <component glyphName="onedot.above" x="-7" y="313" flags="0x4"/>
    </TTGlyph>
    <TTGlyph name="uni0642" xMin="164" yMin="-696" xMax="1448" yMax="1456">
      <component glyphName="uni066F" x="0" y="0" flags="0x204"/>
      <component glyphName="twodots.above" x="362" y="205" flags="0x4"/>
    </TTGlyph>
    <TTGlyph name="uni0642.fina" xMin="164" yMin="-696" xMax="1565" yMax="1499">
      <component glyphName="uni066F.fina" x="0" y="0" flags="0x204"/>
      <component glyphName="twodots.above" x="383" y="248" flags="0x4"/>
    </TTGlyph>
    <TTGlyph name="uni0642.init" xMin="-58" yMin="-20" xMax="907" yMax="1749">
      <component glyphName="uni066F.init" x="0" y="0" flags="0x4"/>
      <component glyphName="twodots.above" x="-140" y="498" flags="0x4"/>
    </TTGlyph>
    <TTGlyph name="uni0642.medi" xMin="-20" yMin="-20" xMax="1034" yMax="1505">
      <component glyphName="uni066F.medi" x="0" y="0" flags="0x204"/>
      <component glyphName="twodots.above" x="-7" y="254" flags="0x4"/>
    </TTGlyph>
    <TTGlyph name="uni0643" xMin="82" yMin="-41" xMax="1346" yMax="1597">
      <contour>
        <pt x="637" y="-41" on="1"/>
        <pt x="461" y="-41" on="0"/>
        <pt x="82" y="-11" on="0"/>
        <pt x="82" y="6" on="1"/>
        <pt x="82" y="71" on="0"/>
        <pt x="118" y="245" on="0"/>
        <pt x="143" y="295" on="1"/>
        <pt x="243" y="272" on="0"/>
        <pt x="561" y="246" on="0"/>
        <pt x="682" y="246" on="1"/>
        <pt x="955" y="246" on="0"/>
        <pt x="1223" y="293" on="1"/>
        <pt x="1131" y="665" on="1"/>
        <pt x="1055" y="963" on="0"/>
        <pt x="989" y="1313" on="0"/>
        <pt x="989" y="1351" on="1"/>
        <pt x="989" y="1452" on="0"/>
        <pt x="1141" y="1597" on="0"/>
        <pt x="1249" y="1597" on="1"/>
        <pt x="1291" y="1445" on="0"/>
        <pt x="1346" y="1300" on="1"/>
        <pt x="1270" y="1243" on="1"/>
        <pt x="1292" y="1003" on="1"/>
        <pt x="1346" y="460" on="0"/>
        <pt x="1346" y="272" on="1"/>
        <pt x="1346" y="207" on="0"/>
        <pt x="1291" y="50" on="0"/>
        <pt x="1253" y="0" on="1"/>
        <pt x="1136" y="-18" on="0"/>
        <pt x="782" y="-41" on="0"/>
      </contour>
      <contour>
        <pt x="693" y="848" on="1"/>
        <pt x="694" y="858" on="1"/>
        <pt x="694" y="872" on="0"/>
        <pt x="677" y="893" on="0"/>
        <pt x="660" y="893" on="1"/>
        <pt x="593" y="893" on="0"/>
        <pt x="543" y="798" on="1"/>
        <pt x="597" y="749" on="0"/>
        <pt x="685" y="749" on="1"/>
        <pt x="744" y="749" on="0"/>
        <pt x="826" y="768" on="1"/>
        <pt x="814" y="616" on="1"/>
        <pt x="660" y="574" on="0"/>
        <pt x="502" y="511" on="0"/>
        <pt x="424" y="469" on="1"/>
        <pt x="418" y="606" on="1"/>
        <pt x="477" y="647" on="0"/>
        <pt x="523" y="669" on="1"/>
        <pt x="471" y="695" on="0"/>
        <pt x="429" y="754" on="0"/>
        <pt x="429" y="794" on="1"/>
        <pt x="429" y="856" on="0"/>
        <pt x="497" y="969" on="0"/>
        <pt x="608" y="1040" on="0"/>
        <pt x="660" y="1040" on="1"/>
        <pt x="714" y="1040" on="0"/>
        <pt x="775" y="972" on="0"/>
        <pt x="775" y="921" on="1"/>
        <pt x="775" y="898" on="0"/>
        <pt x="758" y="848" on="0"/>
        <pt x="750" y="835" on="1"/>
      </contour>
    </TTGlyph>
    <TTGlyph name="uni0643.fina" xMin="164" yMin="-41" xMax="1835" yMax="1638">
      <contour>
        <pt x="813" y="246" on="1"/>
        <pt x="986" y="246" on="0"/>
        <pt x="1272" y="277" on="0"/>
        <pt x="1427" y="311" on="1"/>
        <pt x="1355" y="780" on="0"/>
        <pt x="1284" y="1479" on="1"/>
        <pt x="1571" y="1638" on="1"/>
        <pt x="1550" y="714" on="0"/>
        <pt x="1550" y="334" on="1"/>
        <pt x="1602" y="299" on="0"/>
        <pt x="1724" y="266" on="0"/>
        <pt x="1815" y="266" on="1"/>
        <pt x="1835" y="266" on="0"/>
        <pt x="1835" y="246" on="1"/>
        <pt x="1835" y="0" on="1"/>
        <pt x="1835" y="-20" on="0"/>
        <pt x="1815" y="-20" on="1"/>
        <pt x="1564" y="-20" on="0"/>
        <pt x="1481" y="109" on="1"/>
        <pt x="1237" y="23" on="0"/>
        <pt x="906" y="-41" on="0"/>
        <pt x="762" y="-41" on="1"/>
        <pt x="528" y="-41" on="0"/>
        <pt x="285" y="36" on="0"/>
        <pt x="164" y="205" on="0"/>
        <pt x="164" y="346" on="1"/>
        <pt x="164" y="395" on="0"/>
        <pt x="187" y="560" on="0"/>
        <pt x="197" y="600" on="1"/>
        <pt x="305" y="596" on="1"/>
        <pt x="297" y="543" on="0"/>
        <pt x="297" y="506" on="1"/>
        <pt x="297" y="404" on="0"/>
        <pt x="394" y="294" on="0"/>
        <pt x="606" y="246" on="0"/>
      </contour>
      <contour>
        <pt x="953" y="865" on="1"/>
        <pt x="954" y="875" on="1"/>
        <pt x="954" y="889" on="0"/>
        <pt x="937" y="910" on="0"/>
        <pt x="920" y="910" on="1"/>
        <pt x="853" y="910" on="0"/>
        <pt x="803" y="815" on="1"/>
        <pt x="857" y="766" on="0"/>
        <pt x="945" y="766" on="1"/>
        <pt x="1004" y="766" on="0"/>
        <pt x="1086" y="785" on="1"/>
        <pt x="1074" y="633" on="1"/>
        <pt x="920" y="591" on="0"/>
        <pt x="762" y="528" on="0"/>
        <pt x="684" y="486" on="1"/>
        <pt x="678" y="623" on="1"/>
        <pt x="737" y="664" on="0"/>
        <pt x="783" y="686" on="1"/>
        <pt x="731" y="712" on="0"/>
        <pt x="689" y="771" on="0"/>
        <pt x="689" y="811" on="1"/>
        <pt x="689" y="873" on="0"/>
        <pt x="757" y="986" on="0"/>
        <pt x="868" y="1057" on="0"/>
        <pt x="920" y="1057" on="1"/>
        <pt x="974" y="1057" on="0"/>
        <pt x="1035" y="989" on="0"/>
        <pt x="1035" y="938" on="1"/>
        <pt x="1035" y="915" on="0"/>
        <pt x="1018" y="865" on="0"/>
        <pt x="1010" y="852" on="1"/>
      </contour>
    </TTGlyph>
    <TTGlyph name="uni0643.init" xMin="-20" yMin="-20" xMax="1024" yMax="1597">
      <contour>
        <pt x="0" y="-20" on="1"/>
        <pt x="-20" y="-20" on="0"/>
        <pt x="-20" y="0" on="1"/>
        <pt x="-20" y="246" on="1"/>
        <pt x="-20" y="266" on="0"/>
        <pt x="0" y="266" on="1"/>
        <pt x="293" y="266" on="0"/>
        <pt x="636" y="302" on="0"/>
        <pt x="735" y="346" on="1"/>
        <pt x="691" y="436" on="0"/>
        <pt x="444" y="650" on="0"/>
        <pt x="270" y="748" on="1"/>
        <pt x="238" y="739" on="0"/>
        <pt x="209" y="739" on="1"/>
        <pt x="144" y="739" on="0"/>
        <pt x="43" y="831" on="0"/>
        <pt x="43" y="895" on="1"/>
        <pt x="43" y="944" on="0"/>
        <pt x="93" y="1190" on="0"/>
        <pt x="106" y="1198" on="1"/>
        <pt x="449" y="1368" on="0"/>
        <pt x="650" y="1460" on="0"/>
        <pt x="904" y="1568" on="0"/>
        <pt x="977" y="1597" on="1"/>
        <pt x="1024" y="1552" on="0"/>
        <pt x="1024" y="1477" on="1"/>
        <pt x="1024" y="1417" on="0"/>
        <pt x="957" y="1308" on="0"/>
        <pt x="839" y="1246" on="0"/>
        <pt x="593" y="1138" on="0"/>
        <pt x="351" y="1053" on="0"/>
        <pt x="182" y="1006" on="1"/>
        <pt x="362" y="959" on="0"/>
        <pt x="673" y="754" on="0"/>
        <pt x="858" y="491" on="0"/>
        <pt x="858" y="375" on="1"/>
        <pt x="858" y="252" on="0"/>
        <pt x="671" y="74" on="0"/>
        <pt x="279" y="-20" on="0"/>
      </contour>
    </TTGlyph>
    <TTGlyph name="uni0643.medi" xMin="-20" yMin="-20" xMax="1167" yMax="1597">
      <contour>
        <pt x="358" y="313" on="1"/>
        <pt x="324" y="408" on="0"/>
        <pt x="293" y="469" on="1"/>
        <pt x="152" y="627" on="0"/>
        <pt x="23" y="887" on="0"/>
        <pt x="23" y="1004" on="1"/>
        <pt x="23" y="1060" on="0"/>
        <pt x="86" y="1176" on="0"/>
        <pt x="139" y="1202" on="1"/>
        <pt x="354" y="1307" on="0"/>
        <pt x="741" y="1478" on="0"/>
        <pt x="1034" y="1597" on="1"/>
        <pt x="1085" y="1548" on="0"/>
        <pt x="1085" y="1477" on="1"/>
        <pt x="1085" y="1414" on="0"/>
        <pt x="1011" y="1309" on="0"/>
        <pt x="954" y="1282" on="1"/>
        <pt x="767" y="1191" on="0"/>
        <pt x="420" y="1058" on="0"/>
        <pt x="139" y="965" on="1"/>
        <pt x="388" y="684" on="0"/>
        <pt x="602" y="482" on="0"/>
        <pt x="813" y="330" on="0"/>
        <pt x="1023" y="266" on="0"/>
        <pt x="1147" y="266" on="1"/>
        <pt x="1167" y="266" on="0"/>
        <pt x="1167" y="246" on="1"/>
        <pt x="1167" y="0" on="1"/>
        <pt x="1167" y="-20" on="0"/>
        <pt x="1147" y="-20" on="1"/>
        <pt x="1031" y="-20" on="0"/>
        <pt x="850" y="12" on="0"/>
        <pt x="701" y="79" on="0"/>
        <pt x="578" y="182" on="0"/>
        <pt x="489" y="268" on="1"/>
        <pt x="478" y="183" on="0"/>
        <pt x="434" y="113" on="1"/>
        <pt x="326" y="49" on="0"/>
        <pt x="115" y="-20" on="0"/>
        <pt x="0" y="-20" on="1"/>
        <pt x="-20" y="-20" on="0"/>
        <pt x="-20" y="0" on="1"/>
        <pt x="-20" y="246" on="1"/>
        <pt x="-20" y="266" on="0"/>
        <pt x="0" y="266" on="1"/>
        <pt x="178" y="266" on="0"/>
      </contour>
    </TTGlyph>
    <TTGlyph name="uni0644" xMin="164" yMin="-696" xMax="1331" yMax="1597">
      <contour>
        <pt x="1196" y="-197" on="1"/>
        <pt x="1140" y="107" on="1"/>
        <pt x="1075" y="463" on="1"/>
        <pt x="1027" y="745" on="1"/>
        <pt x="934" y="1305" on="1"/>
        <pt x="930" y="1352" on="1"/>
        <pt x="930" y="1454" on="0"/>
        <pt x="1083" y="1597" on="0"/>
        <pt x="1190" y="1597" on="1"/>
        <pt x="1220" y="1486" on="0"/>
        <pt x="1250" y="1393" on="0"/>
        <pt x="1286" y="1300" on="1"/>
        <pt x="1210" y="1241" on="1"/>
        <pt x="1239" y="856" on="0"/>
        <pt x="1282" y="492" on="1"/>
        <pt x="1301" y="315" on="0"/>
        <pt x="1331" y="14" on="0"/>
        <pt x="1331" y="-106" on="1"/>
        <pt x="1331" y="-266" on="0"/>
        <pt x="1139" y="-540" on="0"/>
        <pt x="806" y="-696" on="0"/>
        <pt x="606" y="-696" on="1"/>
        <pt x="390" y="-696" on="0"/>
        <pt x="164" y="-443" on="0"/>
        <pt x="164" y="-201" on="1"/>
        <pt x="164" y="-76" on="0"/>
        <pt x="223" y="147" on="1"/>
        <pt x="330" y="121" on="1"/>
        <pt x="297" y="10" on="0"/>
        <pt x="297" y="-70" on="1"/>
        <pt x="297" y="-243" on="0"/>
        <pt x="451" y="-410" on="0"/>
        <pt x="612" y="-410" on="1"/>
        <pt x="809" y="-410" on="0"/>
        <pt x="1077" y="-308" on="0"/>
      </contour>
    </TTGlyph>
    <TTGlyph name="uni0644.fina" xMin="164" yMin="-696" xMax="1528" yMax="1597">
      <contour>
        <pt x="1507" y="-20" on="1"/>
        <pt x="1410" y="-20" on="0"/>
        <pt x="1327" y="27" on="1"/>
        <pt x="1331" y="-106" on="1"/>
        <pt x="1331" y="-266" on="0"/>
        <pt x="1139" y="-540" on="0"/>
        <pt x="806" y="-696" on="0"/>
        <pt x="606" y="-696" on="1"/>
        <pt x="390" y="-696" on="0"/>
        <pt x="164" y="-443" on="0"/>
        <pt x="164" y="-201" on="1"/>
        <pt x="164" y="-76" on="0"/>
        <pt x="223" y="147" on="1"/>
        <pt x="330" y="121" on="1"/>
        <pt x="297" y="10" on="0"/>
        <pt x="297" y="-70" on="1"/>
        <pt x="297" y="-243" on="0"/>
        <pt x="451" y="-410" on="0"/>
        <pt x="612" y="-410" on="1"/>
        <pt x="809" y="-410" on="0"/>
        <pt x="1077" y="-308" on="0"/>
        <pt x="1196" y="-197" on="1"/>
        <pt x="1140" y="107" on="1"/>
        <pt x="1075" y="463" on="1"/>
        <pt x="1027" y="745" on="1"/>
        <pt x="934" y="1305" on="1"/>
        <pt x="930" y="1352" on="1"/>
        <pt x="930" y="1454" on="0"/>
        <pt x="1083" y="1597" on="0"/>
        <pt x="1190" y="1597" on="1"/>
        <pt x="1220" y="1486" on="0"/>
        <pt x="1250" y="1393" on="0"/>
        <pt x="1286" y="1300" on="1"/>
        <pt x="1210" y="1241" on="1"/>
        <pt x="1239" y="856" on="0"/>
        <pt x="1282" y="492" on="1"/>
        <pt x="1300" y="326" on="1"/>
        <pt x="1355" y="288" on="0"/>
        <pt x="1455" y="266" on="0"/>
        <pt x="1507" y="266" on="1"/>
        <pt x="1528" y="266" on="0"/>
        <pt x="1528" y="246" on="1"/>
        <pt x="1528" y="0" on="1"/>
        <pt x="1528" y="-20" on="0"/>
      </contour>
    </TTGlyph>
    <TTGlyph name="uni0644.init" xMin="-20" yMin="-20" xMax="381" yMax="1597">
      <contour>
        <pt x="254" y="319" on="1"/>
        <pt x="216" y="610" on="0"/>
        <pt x="115" y="1167" on="0"/>
        <pt x="66" y="1438" on="1"/>
        <pt x="352" y="1597" on="1"/>
        <pt x="360" y="1199" on="0"/>
        <pt x="381" y="583" on="0"/>
        <pt x="381" y="362" on="1"/>
        <pt x="381" y="282" on="0"/>
        <pt x="337" y="133" on="0"/>
        <pt x="287" y="55" on="1"/>
        <pt x="264" y="21" on="0"/>
        <pt x="112" y="-20" on="0"/>
        <pt x="0" y="-20" on="1"/>
        <pt x="-20" y="-20" on="0"/>
        <pt x="-20" y="0" on="1"/>
        <pt x="-20" y="246" on="1"/>
        <pt x="-20" y="266" on="0"/>
        <pt x="0" y="266" on="1"/>
        <pt x="49" y="266" on="0"/>
        <pt x="188" y="295" on="0"/>
      </contour>
    </TTGlyph>
    <TTGlyph name="uni0644.medi" xMin="-20" yMin="-20" xMax="631" yMax="1597">
      <contour>
        <pt x="0" y="-20" on="1"/>
        <pt x="-20" y="-20" on="0"/>
        <pt x="-20" y="0" on="1"/>
        <pt x="-20" y="246" on="1"/>
        <pt x="-20" y="266" on="0"/>
        <pt x="0" y="266" on="1"/>
        <pt x="119" y="266" on="0"/>
        <pt x="225" y="311" on="1"/>
        <pt x="140" y="845" on="0"/>
        <pt x="80" y="1438" on="1"/>
        <pt x="367" y="1597" on="1"/>
        <pt x="357" y="1142" on="1"/>
        <pt x="346" y="722" on="0"/>
        <pt x="346" y="334" on="1"/>
        <pt x="403" y="296" on="0"/>
        <pt x="526" y="266" on="0"/>
        <pt x="610" y="266" on="1"/>
        <pt x="631" y="266" on="0"/>
        <pt x="631" y="246" on="1"/>
        <pt x="631" y="0" on="1"/>
        <pt x="631" y="-20" on="0"/>
        <pt x="610" y="-20" on="1"/>
        <pt x="407" y="-20" on="0"/>
        <pt x="315" y="63" on="1"/>
        <pt x="230" y="18" on="0"/>
        <pt x="85" y="-20" on="0"/>
      </contour>
    </TTGlyph>
    <TTGlyph name="uni06440622.fina" xMin="82" yMin="-33" xMax="1561" yMax="1671">
      <component glyphName="uni06440627.fina" x="0" y="0" flags="0x204"/>
      <component glyphName="uni0653" x="373" y="123" flags="0x4"/>
    </TTGlyph>
    <TTGlyph name="uni06440622.isol" xMin="82" yMin="-41" xMax="1305" yMax="1687">
      <component glyphName="uni06440627.isol" x="111" y="0" flags="0x4"/>
      <component glyphName="uni0653" x="324" y="139" flags="0x4"/>
    </TTGlyph>
    <TTGlyph name="uni06440623.fina" xMin="82" yMin="-33" xMax="1561" yMax="1954">
      <component glyphName="uni06440627.fina" x="0" y="0" flags="0x204"/>
      <component glyphName="uni0654" x="125" y="295" flags="0x4"/>
    </TTGlyph>
    <TTGlyph name="uni06440623.isol" xMin="82" yMin="-41" xMax="1194" yMax="1954">
      <component glyphName="uni06440627.isol" x="0" y="0" flags="0x204"/>
      <component glyphName="uni0654" x="125" y="295" flags="0x4"/>
    </TTGlyph>
    <TTGlyph name="uni06440625.fina" xMin="82" yMin="-620" xMax="1561" yMax="1597">
      <component glyphName="uni06440627.fina" x="0" y="0" flags="0x204"/>
      <component glyphName="uni0654" x="772" y="-1734" flags="0x4"/>
    </TTGlyph>
    <TTGlyph name="uni06440625.isol" xMin="82" yMin="-661" xMax="1194" yMax="1638">
      <component glyphName="uni06440627.isol" x="0" y="0" flags="0x204"/>
      <component glyphName="uni0654" x="715" y="-1775" flags="0x4"/>
    </TTGlyph>
    <TTGlyph name="uni06440627.fina" xMin="82" yMin="-33" xMax="1561" yMax="1597">
      <contour>
        <pt x="797" y="422" on="1"/>
        <pt x="863" y="511" on="0"/>
        <pt x="960" y="784" on="0"/>
        <pt x="1006" y="1160" on="0"/>
        <pt x="1008" y="1436" on="1"/>
        <pt x="1063" y="1468" on="0"/>
        <pt x="1132" y="1515" on="1"/>
        <pt x="1200" y="1560" on="0"/>
        <pt x="1264" y="1597" on="1"/>
        <pt x="1264" y="959" on="0"/>
        <pt x="1274" y="334" on="1"/>
        <pt x="1331" y="296" on="0"/>
        <pt x="1455" y="266" on="0"/>
        <pt x="1540" y="266" on="1"/>
        <pt x="1561" y="266" on="0"/>
        <pt x="1561" y="246" on="1"/>
        <pt x="1561" y="0" on="1"/>
        <pt x="1561" y="-20" on="0"/>
        <pt x="1540" y="-20" on="1"/>
        <pt x="1381" y="-20" on="0"/>
        <pt x="1192" y="90" on="0"/>
        <pt x="1174" y="197" on="1"/>
        <pt x="1149" y="342" on="0"/>
        <pt x="1127" y="716" on="1"/>
        <pt x="1112" y="891" on="1"/>
        <pt x="1100" y="764" on="1"/>
        <pt x="1078" y="527" on="0"/>
        <pt x="1047" y="420" on="1"/>
        <pt x="984" y="208" on="0"/>
        <pt x="826" y="19" on="0"/>
        <pt x="707" y="4" on="1"/>
        <pt x="440" y="-27" on="0"/>
        <pt x="154" y="-33" on="1"/>
        <pt x="141" y="74" on="1"/>
        <pt x="373" y="134" on="0"/>
        <pt x="627" y="243" on="0"/>
        <pt x="707" y="317" on="1"/>
        <pt x="546" y="641" on="0"/>
        <pt x="279" y="897" on="1"/>
        <pt x="190" y="897" on="1"/>
        <pt x="126" y="964" on="0"/>
        <pt x="82" y="1059" on="0"/>
        <pt x="82" y="1116" on="1"/>
        <pt x="82" y="1187" on="0"/>
        <pt x="151" y="1270" on="0"/>
        <pt x="238" y="1298" on="1"/>
        <pt x="336" y="1235" on="0"/>
        <pt x="540" y="976" on="0"/>
        <pt x="738" y="596" on="0"/>
      </contour>
    </TTGlyph>
    <TTGlyph name="uni06440627.isol" xMin="82" yMin="-41" xMax="1194" yMax="1638">
      <contour>
        <pt x="338" y="-41" on="1"/>
        <pt x="332" y="-41" on="0"/>
        <pt x="332" y="-4" on="1"/>
        <pt x="332" y="51" on="0"/>
        <pt x="359" y="225" on="0"/>
        <pt x="369" y="225" on="1"/>
        <pt x="433" y="224" on="1"/>
        <pt x="467" y="225" on="1"/>
        <pt x="691" y="403" on="0"/>
        <pt x="784" y="553" on="1"/>
        <pt x="596" y="741" on="0"/>
        <pt x="313" y="915" on="1"/>
        <pt x="225" y="909" on="1"/>
        <pt x="82" y="982" on="0"/>
        <pt x="82" y="1126" on="1"/>
        <pt x="82" y="1192" on="0"/>
        <pt x="155" y="1295" on="0"/>
        <pt x="215" y="1329" on="1"/>
        <pt x="350" y="1233" on="0"/>
        <pt x="726" y="886" on="0"/>
        <pt x="864" y="727" on="1"/>
        <pt x="887" y="805" on="0"/>
        <pt x="887" y="891" on="1"/>
        <pt x="887" y="958" on="0"/>
        <pt x="837" y="1243" on="1"/>
        <pt x="811" y="1389" on="0"/>
        <pt x="811" y="1427" on="1"/>
        <pt x="811" y="1519" on="0"/>
        <pt x="949" y="1636" on="0"/>
        <pt x="1065" y="1638" on="1"/>
        <pt x="1087" y="1553" on="0"/>
        <pt x="1119" y="1451" on="0"/>
        <pt x="1161" y="1341" on="1"/>
        <pt x="1083" y="1282" on="1"/>
        <pt x="1092" y="1010" on="1"/>
        <pt x="1092" y="794" on="0"/>
        <pt x="979" y="586" on="1"/>
        <pt x="1087" y="440" on="0"/>
        <pt x="1152" y="340" on="0"/>
        <pt x="1194" y="263" on="0"/>
        <pt x="1194" y="246" on="1"/>
        <pt x="1194" y="199" on="0"/>
        <pt x="1112" y="2" on="0"/>
        <pt x="1098" y="0" on="1"/>
        <pt x="1010" y="-17" on="0"/>
        <pt x="631" y="-41" on="0"/>
      </contour>
      <contour>
        <pt x="1036" y="272" on="1"/>
        <pt x="887" y="446" on="1"/>
        <pt x="798" y="337" on="0"/>
        <pt x="672" y="233" on="1"/>
        <pt x="870" y="244" on="0"/>
      </contour>
    </TTGlyph>
    <TTGlyph name="uni06440671.fina" xMin="82" yMin="-33" xMax="1561" yMax="1612">
      <component glyphName="uni06440627.fina" x="0" y="0" flags="0x204"/>
      <component glyphName="wasla" x="549" y="25" flags="0x4"/>
    </TTGlyph>
    <TTGlyph name="uni06440671.isol" xMin="82" yMin="-41" xMax="1194" yMax="1734">
      <component glyphName="uni06440627.isol" x="0" y="0" flags="0x204"/>
      <component glyphName="wasla" x="385" y="147" flags="0x4"/>
    </TTGlyph>
    <TTGlyph name="uni06440672.fina" xMin="82" yMin="-33" xMax="1561" yMax="1849">
      <component glyphName="uni06440627.fina" x="0" y="0" flags="0x204"/>
      <component glyphName="wavyhamza_above" x="563" y="190" flags="0x4"/>
    </TTGlyph>
    <TTGlyph name="uni06440672.isol" xMin="82" yMin="-41" xMax="1194" yMax="1903">
      <component glyphName="uni06440627.isol" x="0" y="0" flags="0x204"/>
      <component glyphName="wavyhamza_above" x="397" y="244" flags="0x4"/>
    </TTGlyph>
    <TTGlyph name="uni06440673.fina" xMin="82" yMin="-632" xMax="1561" yMax="1597">
      <component glyphName="uni06440627.fina" x="0" y="0" flags="0x204"/>
      <component glyphName="wavyhamza_above" x="811" y="-1750" flags="0x4"/>
    </TTGlyph>
    <TTGlyph name="uni06440673.isol" xMin="82" yMin="-685" xMax="1194" yMax="1638">
      <component glyphName="uni06440627.isol" x="0" y="0" flags="0x204"/>
      <component glyphName="wavyhamza_above" x="674" y="-1803" flags="0x4"/>
    </TTGlyph>
    <TTGlyph name="uni06440675.fina" xMin="82" yMin="-33" xMax="1561" yMax="1788">
      <component glyphName="uni06440627.fina" x="0" y="0" flags="0x204"/>
      <component glyphName="uni0654" x="530" y="129" flags="0x4"/>
    </TTGlyph>
    <TTGlyph name="uni06440675.isol" xMin="82" yMin="-41" xMax="1194" yMax="1852">
      <component glyphName="uni06440627.isol" x="0" y="0" flags="0x204"/>
      <component glyphName="uni0654" x="395" y="193" flags="0x4"/>
    </TTGlyph>
    <TTGlyph name="uni0645" xMin="123" yMin="-831" xMax="1128" yMax="881">
      <contour>
        <pt x="178" y="-831" on="1"/>
        <pt x="178" y="-695" on="0"/>
        <pt x="161" y="-468" on="0"/>
        <pt x="140" y="-277" on="0"/>
        <pt x="123" y="-114" on="0"/>
        <pt x="123" y="-41" on="1"/>
        <pt x="123" y="-6" on="0"/>
        <pt x="178" y="147" on="0"/>
        <pt x="225" y="244" on="1"/>
        <pt x="233" y="259" on="0"/>
        <pt x="463" y="309" on="0"/>
        <pt x="735" y="341" on="0"/>
        <pt x="827" y="342" on="1"/>
        <pt x="785" y="385" on="0"/>
        <pt x="717" y="477" on="0"/>
        <pt x="654" y="552" on="0"/>
        <pt x="592" y="600" on="0"/>
        <pt x="557" y="600" on="1"/>
        <pt x="501" y="600" on="0"/>
        <pt x="395" y="518" on="0"/>
        <pt x="336" y="436" on="1"/>
        <pt x="238" y="487" on="1"/>
        <pt x="310" y="670" on="0"/>
        <pt x="505" y="881" on="0"/>
        <pt x="602" y="881" on="1"/>
        <pt x="659" y="881" on="0"/>
        <pt x="769" y="792" on="0"/>
        <pt x="838" y="692" on="1"/>
        <pt x="919" y="574" on="0"/>
        <pt x="1056" y="418" on="0"/>
        <pt x="1128" y="369" on="1"/>
        <pt x="1018" y="82" on="1"/>
        <pt x="834" y="82" on="0"/>
        <pt x="398" y="31" on="0"/>
        <pt x="279" y="-4" on="1"/>
        <pt x="313" y="-187" on="0"/>
        <pt x="388" y="-531" on="1"/>
        <pt x="422" y="-696" on="1"/>
        <pt x="301" y="-785" on="0"/>
      </contour>
    </TTGlyph>
    <TTGlyph name="uni0645.fina" xMin="164" yMin="-696" xMax="1378" yMax="840">
      <contour>
        <pt x="1102" y="-41" on="1"/>
        <pt x="926" y="-41" on="0"/>
        <pt x="623" y="34" on="0"/>
        <pt x="467" y="164" on="0"/>
        <pt x="467" y="250" on="1"/>
        <pt x="467" y="331" on="0"/>
        <pt x="494" y="416" on="1"/>
        <pt x="422" y="372" on="0"/>
        <pt x="309" y="285" on="1"/>
        <pt x="332" y="116" on="0"/>
        <pt x="372" y="-87" on="1"/>
        <pt x="410" y="-286" on="0"/>
        <pt x="451" y="-561" on="1"/>
        <pt x="326" y="-652" on="0"/>
        <pt x="207" y="-696" on="1"/>
        <pt x="207" y="-476" on="0"/>
        <pt x="186" y="-183" on="1"/>
        <pt x="164" y="110" on="0"/>
        <pt x="164" y="203" on="1"/>
        <pt x="164" y="243" on="0"/>
        <pt x="233" y="421" on="0"/>
        <pt x="266" y="487" on="1"/>
        <pt x="275" y="505" on="0"/>
        <pt x="479" y="657" on="0"/>
        <pt x="683" y="772" on="0"/>
        <pt x="864" y="840" on="0"/>
        <pt x="932" y="840" on="1"/>
        <pt x="965" y="840" on="0"/>
        <pt x="1019" y="789" on="0"/>
        <pt x="1067" y="700" on="0"/>
        <pt x="1123" y="553" on="1"/>
        <pt x="1187" y="384" on="0"/>
        <pt x="1290" y="266" on="0"/>
        <pt x="1352" y="266" on="1"/>
        <pt x="1378" y="266" on="0"/>
        <pt x="1378" y="242" on="1"/>
        <pt x="1378" y="6" on="1"/>
        <pt x="1378" y="-20" on="0"/>
        <pt x="1352" y="-20" on="1"/>
        <pt x="1229" y="-20" on="0"/>
        <pt x="1135" y="72" on="1"/>
      </contour>
      <contour>
        <pt x="604" y="367" on="1"/>
        <pt x="736" y="260" on="0"/>
        <pt x="1026" y="227" on="1"/>
        <pt x="988" y="303" on="0"/>
        <pt x="933" y="495" on="0"/>
        <pt x="924" y="586" on="1"/>
        <pt x="836" y="554" on="0"/>
        <pt x="660" y="436" on="0"/>
      </contour>
    </TTGlyph>
    <TTGlyph name="uni0645.init" xMin="-20" yMin="-41" xMax="1026" yMax="840">
      <contour>
        <pt x="883" y="-41" on="1"/>
        <pt x="731" y="-41" on="0"/>
        <pt x="407" y="29" on="0"/>
        <pt x="285" y="94" on="1"/>
        <pt x="226" y="31" on="0"/>
        <pt x="88" y="-20" on="0"/>
        <pt x="0" y="-20" on="1"/>
        <pt x="-20" y="-20" on="0"/>
        <pt x="-20" y="0" on="1"/>
        <pt x="-20" y="246" on="1"/>
        <pt x="-20" y="266" on="0"/>
        <pt x="0" y="266" on="1"/>
        <pt x="199" y="266" on="0"/>
        <pt x="291" y="444" on="1"/>
        <pt x="379" y="618" on="0"/>
        <pt x="486" y="764" on="0"/>
        <pt x="600" y="840" on="0"/>
        <pt x="668" y="840" on="1"/>
        <pt x="751" y="840" on="0"/>
        <pt x="915" y="668" on="0"/>
        <pt x="1026" y="367" on="0"/>
        <pt x="1026" y="231" on="1"/>
        <pt x="1026" y="167" on="0"/>
        <pt x="937" y="3" on="0"/>
      </contour>
      <contour>
        <pt x="631" y="557" on="1"/>
        <pt x="575" y="557" on="0"/>
        <pt x="490" y="461" on="0"/>
        <pt x="424" y="322" on="1"/>
        <pt x="578" y="248" on="0"/>
        <pt x="805" y="225" on="1"/>
        <pt x="794" y="314" on="0"/>
        <pt x="740" y="464" on="0"/>
        <pt x="664" y="557" on="0"/>
      </contour>
    </TTGlyph>
    <TTGlyph name="uni0645.medi" xMin="-20" yMin="-41" xMax="1036" yMax="840">
      <contour>
        <pt x="1010" y="-20" on="1"/>
        <pt x="887" y="-20" on="0"/>
        <pt x="793" y="72" on="1"/>
        <pt x="760" y="-41" on="1"/>
        <pt x="614" y="-41" on="0"/>
        <pt x="342" y="14" on="0"/>
        <pt x="258" y="61" on="1"/>
        <pt x="143" y="-20" on="0"/>
        <pt x="0" y="-20" on="1"/>
        <pt x="-20" y="-20" on="0"/>
        <pt x="-20" y="0" on="1"/>
        <pt x="-20" y="246" on="1"/>
        <pt x="-20" y="266" on="0"/>
        <pt x="0" y="266" on="1"/>
        <pt x="63" y="266" on="0"/>
        <pt x="125" y="281" on="1"/>
        <pt x="135" y="411" on="0"/>
        <pt x="276" y="679" on="0"/>
        <pt x="486" y="840" on="0"/>
        <pt x="590" y="840" on="1"/>
        <pt x="623" y="840" on="0"/>
        <pt x="677" y="789" on="0"/>
        <pt x="725" y="700" on="0"/>
        <pt x="781" y="553" on="1"/>
        <pt x="845" y="384" on="0"/>
        <pt x="948" y="266" on="0"/>
        <pt x="1010" y="266" on="1"/>
        <pt x="1036" y="266" on="0"/>
        <pt x="1036" y="242" on="1"/>
        <pt x="1036" y="6" on="1"/>
        <pt x="1036" y="-20" on="0"/>
      </contour>
      <contour>
        <pt x="262" y="367" on="1"/>
        <pt x="394" y="260" on="0"/>
        <pt x="684" y="227" on="1"/>
        <pt x="646" y="303" on="0"/>
        <pt x="591" y="495" on="0"/>
        <pt x="582" y="586" on="1"/>
        <pt x="494" y="554" on="0"/>
        <pt x="318" y="436" on="0"/>
      </contour>
    </TTGlyph>
    <TTGlyph name="uni0646" xMin="164" yMin="-696" xMax="1331" yMax="758">
      <component glyphName="uni06BA" x="0" y="0" flags="0x204"/>
      <component glyphName="onedot.above" x="180" y="-456" flags="0x4"/>
    </TTGlyph>
    <TTGlyph name="uni0646.fina" xMin="164" yMin="-696" xMax="1485" yMax="758">
      <component glyphName="uni06BA.fina" x="0" y="0" flags="0x4"/>
      <component glyphName="onedot.above" x="160" y="-456" flags="0x4"/>
    </TTGlyph>
    <TTGlyph name="uni0646.init" xMin="-20" yMin="-20" xMax="571" yMax="1523">
      <component glyphName="uni066E.init" x="0" y="0" flags="0x4"/>
      <component glyphName="onedot.above" x="-204" y="309" flags="0x4"/>
    </TTGlyph>
    <TTGlyph name="uni0646.medi" xMin="-20" yMin="-20" xMax="745" yMax="1220">
      <component glyphName="uni066E.medi" x="0" y="0" flags="0x204"/>
      <component glyphName="onedot.above" x="-159" y="6" flags="0x4"/>
    </TTGlyph>
    <TTGlyph name="uni0647" xMin="164" yMin="-41" xMax="901" yMax="995">
      <contour>
        <pt x="164" y="283" on="1"/>
        <pt x="164" y="488" on="0"/>
        <pt x="381" y="705" on="1"/>
        <pt x="371" y="713" on="1"/>
        <pt x="319" y="748" on="0"/>
        <pt x="319" y="838" on="1"/>
        <pt x="319" y="887" on="0"/>
        <pt x="359" y="976" on="0"/>
        <pt x="393" y="995" on="1"/>
        <pt x="528" y="952" on="0"/>
        <pt x="762" y="758" on="0"/>
        <pt x="901" y="512" on="0"/>
        <pt x="901" y="403" on="1"/>
        <pt x="901" y="359" on="0"/>
        <pt x="844" y="190" on="0"/>
        <pt x="764" y="50" on="0"/>
        <pt x="731" y="27" on="1"/>
        <pt x="685" y="-4" on="0"/>
        <pt x="551" y="-41" on="0"/>
        <pt x="479" y="-41" on="1"/>
        <pt x="343" y="-41" on="0"/>
        <pt x="164" y="141" on="0"/>
      </contour>
      <contour>
        <pt x="743" y="279" on="1"/>
        <pt x="707" y="388" on="0"/>
        <pt x="586" y="553" on="0"/>
        <pt x="483" y="633" on="1"/>
        <pt x="344" y="489" on="0"/>
        <pt x="344" y="365" on="1"/>
        <pt x="344" y="295" on="0"/>
        <pt x="436" y="213" on="0"/>
        <pt x="506" y="213" on="1"/>
        <pt x="638" y="213" on="0"/>
      </contour>
    </TTGlyph>
    <TTGlyph name="uni0647.fina" xMin="164" yMin="-20" xMax="1163" yMax="1139">
      <contour>
        <pt x="684" y="51" on="1"/>
        <pt x="581" y="59" on="0"/>
        <pt x="482" y="78" on="0"/>
        <pt x="426" y="96" on="1"/>
        <pt x="328" y="134" on="0"/>
        <pt x="164" y="251" on="0"/>
        <pt x="164" y="293" on="1"/>
        <pt x="164" y="325" on="0"/>
        <pt x="244" y="551" on="0"/>
        <pt x="302" y="630" on="0"/>
        <pt x="424" y="734" on="0"/>
        <pt x="572" y="831" on="0"/>
        <pt x="649" y="868" on="1"/>
        <pt x="642" y="915" on="1"/>
        <pt x="637" y="963" on="1"/>
        <pt x="723" y="1033" on="0"/>
        <pt x="814" y="1095" on="0"/>
        <pt x="887" y="1139" on="1"/>
        <pt x="885" y="676" on="1"/>
        <pt x="887" y="330" on="1"/>
        <pt x="1004" y="266" on="0"/>
        <pt x="1143" y="266" on="1"/>
        <pt x="1163" y="266" on="0"/>
        <pt x="1163" y="246" on="1"/>
        <pt x="1163" y="0" on="1"/>
        <pt x="1163" y="-20" on="0"/>
        <pt x="1143" y="-20" on="1"/>
        <pt x="999" y="-20" on="0"/>
        <pt x="819" y="73" on="0"/>
        <pt x="801" y="158" on="1"/>
        <pt x="780" y="248" on="1"/>
      </contour>
      <contour>
        <pt x="758" y="336" on="1"/>
        <pt x="716" y="508" on="0"/>
        <pt x="688" y="651" on="1"/>
        <pt x="557" y="606" on="0"/>
        <pt x="397" y="513" on="0"/>
        <pt x="336" y="453" on="1"/>
        <pt x="396" y="410" on="0"/>
        <pt x="520" y="366" on="0"/>
        <pt x="675" y="339" on="0"/>
      </contour>
    </TTGlyph>
    <TTGlyph name="uni0647.init" xMin="-20" yMin="-63" xMax="1120" yMax="1112">
      <contour>
        <pt x="0" y="-20" on="1"/>
        <pt x="-20" y="-20" on="0"/>
        <pt x="-20" y="0" on="1"/>
        <pt x="-20" y="250" on="1"/>
        <pt x="-20" y="266" on="0"/>
        <pt x="0" y="266" on="1"/>
        <pt x="91" y="266" on="1"/>
        <pt x="182" y="268" on="1"/>
        <pt x="106" y="371" on="0"/>
        <pt x="106" y="479" on="1"/>
        <pt x="106" y="574" on="0"/>
        <pt x="221" y="805" on="0"/>
        <pt x="303" y="864" on="1"/>
        <pt x="373" y="1112" on="1"/>
        <pt x="569" y="1064" on="0"/>
        <pt x="913" y="803" on="0"/>
        <pt x="1120" y="440" on="0"/>
        <pt x="1120" y="260" on="1"/>
        <pt x="1120" y="147" on="0"/>
        <pt x="997" y="-63" on="1"/>
        <pt x="832" y="-58" on="0"/>
        <pt x="537" y="16" on="0"/>
        <pt x="422" y="76" on="1"/>
        <pt x="247" y="-20" on="0"/>
      </contour>
      <contour>
        <pt x="229" y="481" on="1"/>
        <pt x="315" y="387" on="0"/>
        <pt x="442" y="328" on="1"/>
        <pt x="444" y="330" on="1"/>
        <pt x="490" y="354" on="0"/>
        <pt x="553" y="467" on="0"/>
        <pt x="553" y="537" on="1"/>
        <pt x="553" y="592" on="0"/>
        <pt x="476" y="684" on="0"/>
        <pt x="432" y="684" on="1"/>
        <pt x="310" y="684" on="0"/>
      </contour>
      <contour>
        <pt x="709" y="530" on="1"/>
        <pt x="709" y="379" on="0"/>
        <pt x="633" y="262" on="1"/>
        <pt x="749" y="231" on="0"/>
        <pt x="985" y="199" on="1"/>
        <pt x="927" y="362" on="0"/>
        <pt x="781" y="588" on="0"/>
        <pt x="682" y="672" on="1"/>
        <pt x="709" y="600" on="0"/>
      </contour>
    </TTGlyph>
    <TTGlyph name="uni0647.medi" xMin="-20" yMin="-512" xMax="999" yMax="1040">
      <contour>
        <pt x="805" y="-33" on="1"/>
        <pt x="857" y="-61" on="0"/>
        <pt x="928" y="-158" on="0"/>
        <pt x="928" y="-207" on="1"/>
        <pt x="928" y="-243" on="0"/>
        <pt x="862" y="-417" on="0"/>
        <pt x="846" y="-436" on="1"/>
        <pt x="821" y="-465" on="0"/>
        <pt x="713" y="-512" on="0"/>
        <pt x="635" y="-512" on="1"/>
        <pt x="447" y="-512" on="0"/>
        <pt x="196" y="-289" on="0"/>
        <pt x="162" y="-88" on="1"/>
        <pt x="88" y="-123" on="1"/>
        <pt x="63" y="-12" on="1"/>
        <pt x="0" y="-20" on="1"/>
        <pt x="-20" y="-20" on="0"/>
        <pt x="-20" y="0" on="1"/>
        <pt x="-20" y="246" on="1"/>
        <pt x="-20" y="266" on="0"/>
        <pt x="0" y="266" on="1"/>
        <pt x="82" y="266" on="0"/>
        <pt x="174" y="272" on="1"/>
        <pt x="215" y="475" on="0"/>
        <pt x="445" y="867" on="0"/>
        <pt x="629" y="1040" on="1"/>
        <pt x="735" y="1016" on="1"/>
        <pt x="743" y="917" on="0"/>
        <pt x="779" y="712" on="1"/>
        <pt x="809" y="537" on="0"/>
        <pt x="809" y="461" on="1"/>
        <pt x="809" y="338" on="0"/>
        <pt x="696" y="236" on="1"/>
        <pt x="852" y="266" on="0"/>
        <pt x="973" y="266" on="1"/>
        <pt x="999" y="266" on="0"/>
        <pt x="999" y="242" on="1"/>
        <pt x="999" y="6" on="1"/>
        <pt x="999" y="-20" on="0"/>
        <pt x="973" y="-20" on="1"/>
        <pt x="887" y="-20" on="0"/>
      </contour>
      <contour>
        <pt x="557" y="711" on="1"/>
        <pt x="463" y="578" on="0"/>
        <pt x="367" y="366" on="0"/>
        <pt x="350" y="244" on="1"/>
        <pt x="544" y="268" on="0"/>
        <pt x="662" y="365" on="1"/>
        <pt x="632" y="457" on="1"/>
        <pt x="576" y="605" on="0"/>
      </contour>
      <contour>
        <pt x="412" y="-20" on="1"/>
        <pt x="356" y="-27" on="1"/>
        <pt x="381" y="-154" on="0"/>
        <pt x="527" y="-281" on="0"/>
        <pt x="655" y="-281" on="1"/>
        <pt x="700" y="-281" on="0"/>
        <pt x="760" y="-260" on="0"/>
        <pt x="795" y="-238" on="1"/>
        <pt x="724" y="-134" on="0"/>
        <pt x="520" y="-20" on="0"/>
      </contour>
    </TTGlyph>
    <TTGlyph name="uni0648" xMin="123" yMin="-512" xMax="1073" yMax="840">
      <contour>
        <pt x="1073" y="174" on="1"/>
        <pt x="1073" y="-7" on="0"/>
        <pt x="913" y="-327" on="0"/>
        <pt x="633" y="-512" on="0"/>
        <pt x="471" y="-512" on="1"/>
        <pt x="423" y="-512" on="0"/>
        <pt x="208" y="-388" on="0"/>
        <pt x="123" y="-315" on="1"/>
        <pt x="162" y="-215" on="1"/>
        <pt x="291" y="-248" on="0"/>
        <pt x="426" y="-248" on="1"/>
        <pt x="614" y="-248" on="0"/>
        <pt x="894" y="-61" on="0"/>
        <pt x="946" y="98" on="1"/>
        <pt x="944" y="108" on="1"/>
        <pt x="944" y="117" on="1"/>
        <pt x="860" y="33" on="0"/>
        <pt x="706" y="-41" on="0"/>
        <pt x="627" y="-41" on="1"/>
        <pt x="480" y="-41" on="0"/>
        <pt x="313" y="132" on="0"/>
        <pt x="313" y="291" on="1"/>
        <pt x="313" y="427" on="0"/>
        <pt x="412" y="683" on="0"/>
        <pt x="576" y="840" on="0"/>
        <pt x="666" y="840" on="1"/>
        <pt x="769" y="840" on="0"/>
        <pt x="951" y="654" on="0"/>
        <pt x="1073" y="326" on="0"/>
      </contour>
      <contour>
        <pt x="674" y="223" on="1"/>
        <pt x="780" y="223" on="0"/>
        <pt x="903" y="266" on="1"/>
        <pt x="852" y="402" on="0"/>
        <pt x="706" y="551" on="0"/>
        <pt x="623" y="551" on="1"/>
        <pt x="544" y="551" on="0"/>
        <pt x="442" y="443" on="0"/>
        <pt x="442" y="371" on="1"/>
        <pt x="442" y="299" on="0"/>
        <pt x="562" y="223" on="0"/>
      </contour>
    </TTGlyph>
    <TTGlyph name="uni0648.fina" xMin="123" yMin="-512" xMax="1217" yMax="891">
      <contour>
        <pt x="1049" y="-20" on="1"/>
        <pt x="990" y="-239" on="0"/>
        <pt x="671" y="-512" on="0"/>
        <pt x="471" y="-512" on="1"/>
        <pt x="423" y="-512" on="0"/>
        <pt x="208" y="-388" on="0"/>
        <pt x="123" y="-315" on="1"/>
        <pt x="162" y="-215" on="1"/>
        <pt x="291" y="-248" on="0"/>
        <pt x="426" y="-248" on="1"/>
        <pt x="575" y="-248" on="0"/>
        <pt x="824" y="-124" on="0"/>
        <pt x="893" y="-16" on="1"/>
        <pt x="638" y="-5" on="0"/>
        <pt x="420" y="68" on="0"/>
        <pt x="315" y="223" on="0"/>
        <pt x="315" y="342" on="1"/>
        <pt x="315" y="480" on="0"/>
        <pt x="420" y="738" on="0"/>
        <pt x="582" y="891" on="0"/>
        <pt x="666" y="891" on="1"/>
        <pt x="760" y="891" on="0"/>
        <pt x="929" y="731" on="0"/>
        <pt x="1051" y="436" on="0"/>
        <pt x="1067" y="266" on="1"/>
        <pt x="1196" y="266" on="1"/>
        <pt x="1217" y="266" on="0"/>
        <pt x="1217" y="246" on="1"/>
        <pt x="1217" y="0" on="1"/>
        <pt x="1217" y="-20" on="0"/>
        <pt x="1196" y="-20" on="1"/>
      </contour>
      <contour>
        <pt x="909" y="268" on="1"/>
        <pt x="861" y="429" on="0"/>
        <pt x="705" y="604" on="0"/>
        <pt x="612" y="604" on="1"/>
        <pt x="543" y="604" on="0"/>
        <pt x="442" y="508" on="0"/>
        <pt x="442" y="446" on="1"/>
        <pt x="442" y="313" on="0"/>
        <pt x="680" y="281" on="1"/>
        <pt x="720" y="273" on="0"/>
      </contour>
    </TTGlyph>
    <TTGlyph name="uni0649" xMin="164" yMin="-696" xMax="1450" yMax="840">
      <contour>
        <pt x="1438" y="-133" on="1"/>
        <pt x="1438" y="-214" on="0"/>
        <pt x="1292" y="-415" on="0"/>
        <pt x="1038" y="-595" on="0"/>
        <pt x="744" y="-696" on="0"/>
        <pt x="606" y="-696" on="1"/>
        <pt x="390" y="-696" on="0"/>
        <pt x="164" y="-443" on="0"/>
        <pt x="164" y="-201" on="1"/>
        <pt x="164" y="-76" on="0"/>
        <pt x="223" y="147" on="1"/>
        <pt x="330" y="121" on="1"/>
        <pt x="297" y="10" on="0"/>
        <pt x="297" y="-70" on="1"/>
        <pt x="297" y="-237" on="0"/>
        <pt x="465" y="-410" on="0"/>
        <pt x="633" y="-410" on="1"/>
        <pt x="790" y="-410" on="0"/>
        <pt x="1160" y="-274" on="0"/>
        <pt x="1315" y="-156" on="1"/>
        <pt x="996" y="-156" on="0"/>
        <pt x="729" y="19" on="0"/>
        <pt x="729" y="199" on="1"/>
        <pt x="729" y="331" on="0"/>
        <pt x="886" y="635" on="0"/>
        <pt x="1131" y="840" on="0"/>
        <pt x="1239" y="840" on="1"/>
        <pt x="1322" y="840" on="0"/>
        <pt x="1431" y="676" on="0"/>
        <pt x="1450" y="530" on="1"/>
        <pt x="1343" y="506" on="1"/>
        <pt x="1308" y="553" on="0"/>
        <pt x="1268" y="553" on="1"/>
        <pt x="1203" y="553" on="0"/>
        <pt x="1037" y="457" on="0"/>
        <pt x="893" y="295" on="0"/>
        <pt x="852" y="197" on="1"/>
        <pt x="926" y="166" on="0"/>
        <pt x="1070" y="144" on="0"/>
        <pt x="1137" y="135" on="1"/>
        <pt x="1199" y="126" on="0"/>
        <pt x="1310" y="100" on="0"/>
        <pt x="1392" y="39" on="0"/>
        <pt x="1438" y="-74" on="0"/>
      </contour>
    </TTGlyph>
    <TTGlyph name="uni0649.fina" xMin="164" yMin="-696" xMax="1704" yMax="305">
      <contour>
        <pt x="1468" y="-240" on="1"/>
        <pt x="1341" y="-189" on="0"/>
        <pt x="1026" y="5" on="0"/>
        <pt x="1026" y="41" on="1"/>
        <pt x="1026" y="66" on="0"/>
        <pt x="1068" y="173" on="0"/>
        <pt x="1143" y="305" on="0"/>
        <pt x="1153" y="305" on="1"/>
        <pt x="1366" y="266" on="0"/>
        <pt x="1677" y="266" on="1"/>
        <pt x="1704" y="266" on="0"/>
        <pt x="1704" y="240" on="1"/>
        <pt x="1704" y="4" on="1"/>
        <pt x="1704" y="-20" on="0"/>
        <pt x="1677" y="-20" on="1"/>
        <pt x="1609" y="-20" on="0"/>
        <pt x="1395" y="0" on="0"/>
        <pt x="1311" y="20" on="1"/>
        <pt x="1385" y="-16" on="1"/>
        <pt x="1485" y="-61" on="0"/>
        <pt x="1560" y="-104" on="0"/>
        <pt x="1591" y="-171" on="0"/>
        <pt x="1591" y="-236" on="1"/>
        <pt x="1591" y="-337" on="0"/>
        <pt x="1317" y="-553" on="0"/>
        <pt x="884" y="-696" on="0"/>
        <pt x="688" y="-696" on="1"/>
        <pt x="431" y="-696" on="0"/>
        <pt x="164" y="-442" on="0"/>
        <pt x="164" y="-201" on="1"/>
        <pt x="164" y="-76" on="0"/>
        <pt x="223" y="147" on="1"/>
        <pt x="330" y="121" on="1"/>
        <pt x="297" y="10" on="0"/>
        <pt x="297" y="-70" on="1"/>
        <pt x="297" y="-240" on="0"/>
        <pt x="502" y="-410" on="0"/>
        <pt x="715" y="-410" on="1"/>
        <pt x="926" y="-410" on="0"/>
        <pt x="1344" y="-319" on="0"/>
      </contour>
    </TTGlyph>
    <TTGlyph name="uni0649.init" xMin="-20" yMin="-20" xMax="571" yMax="963">
      <component glyphName="uni066E.init" x="0" y="0" flags="0x4"/>
    </TTGlyph>
    <TTGlyph name="uni0649.medi" xMin="-20" yMin="-20" xMax="745" yMax="610">
      <component glyphName="uni066E.medi" x="0" y="0" flags="0x204"/>
    </TTGlyph>
    <TTGlyph name="uni064A" xMin="164" yMin="-1228" xMax="1450" yMax="840">
      <component glyphName="uni0649" x="0" y="0" flags="0x204"/>
      <component glyphName="twodots.above" x="381" y="-2037" flags="0x4"/>
    </TTGlyph>
    <TTGlyph name="uni064A.fina" xMin="164" yMin="-1228" xMax="1704" yMax="305">
      <component glyphName="uni0649.fina" x="0" y="0" flags="0x204"/>
      <component glyphName="twodots.above" x="524" y="-2037" flags="0x4"/>
    </TTGlyph>
    <TTGlyph name="uni064A.init" xMin="-105" yMin="-644" xMax="724" yMax="963">
      <component glyphName="beh_dotless_alt.init" x="-11" y="0" flags="0x4"/>
      <component glyphName="twodots.above" x="-187" y="-1453" flags="0x4"/>
    </TTGlyph>
    <TTGlyph name="uni064A.medi" xMin="-20" yMin="-644" xMax="909" yMax="610">
      <component glyphName="beh_dotless_alt.medi" x="0" y="0" flags="0x204"/>
      <component glyphName="twodots.above" x="-46" y="-1453" flags="0x4"/>
    </TTGlyph>
    <TTGlyph name="uni064B" xMin="-88" yMin="987" xMax="498" yMax="1542">
      <contour>
        <pt x="492" y="1321" on="1"/>
        <pt x="498" y="1294" on="0"/>
        <pt x="498" y="1271" on="1"/>
        <pt x="498" y="1197" on="0"/>
        <pt x="426" y="1163" on="1"/>
        <pt x="242" y="1078" on="0"/>
        <pt x="-57" y="987" on="1"/>
        <pt x="-41" y="1135" on="1"/>
        <pt x="223" y="1210" on="0"/>
      </contour>
      <contour>
        <pt x="457" y="1542" on="1"/>
        <pt x="462" y="1522" on="0"/>
        <pt x="462" y="1503" on="1"/>
        <pt x="462" y="1460" on="0"/>
        <pt x="418" y="1391" on="0"/>
        <pt x="381" y="1374" on="1"/>
        <pt x="182" y="1290" on="0"/>
        <pt x="-88" y="1214" on="1"/>
        <pt x="-76" y="1356" on="1"/>
        <pt x="229" y="1449" on="0"/>
      </contour>
    </TTGlyph>
    <TTGlyph name="uni064C" xMin="-193" yMin="936" xMax="473" yMax="1489">
      <contour>
        <pt x="45" y="936" on="1"/>
        <pt x="38" y="936" on="0"/>
        <pt x="-53" y="998" on="0"/>
        <pt x="-53" y="1004" on="1"/>
        <pt x="-50" y="1015" on="1"/>
        <pt x="-35" y="1065" on="0"/>
        <pt x="-35" y="1092" on="1"/>
        <pt x="-35" y="1124" on="0"/>
        <pt x="-66" y="1124" on="1"/>
        <pt x="-88" y="1124" on="0"/>
        <pt x="-156" y="1083" on="1"/>
        <pt x="-193" y="1126" on="1"/>
        <pt x="-145" y="1189" on="0"/>
        <pt x="-58" y="1253" on="0"/>
        <pt x="-27" y="1253" on="1"/>
        <pt x="12" y="1253" on="0"/>
        <pt x="66" y="1196" on="0"/>
        <pt x="66" y="1155" on="1"/>
        <pt x="66" y="1109" on="0"/>
        <pt x="57" y="1075" on="1"/>
        <pt x="157" y="1103" on="0"/>
        <pt x="207" y="1135" on="1"/>
        <pt x="162" y="1158" on="0"/>
        <pt x="98" y="1233" on="0"/>
        <pt x="98" y="1282" on="1"/>
        <pt x="98" y="1354" on="0"/>
        <pt x="220" y="1489" on="0"/>
        <pt x="285" y="1489" on="1"/>
        <pt x="335" y="1489" on="0"/>
        <pt x="403" y="1368" on="0"/>
        <pt x="403" y="1276" on="1"/>
        <pt x="403" y="1236" on="0"/>
        <pt x="391" y="1196" on="1"/>
        <pt x="418" y="1192" on="0"/>
        <pt x="473" y="1192" on="1"/>
        <pt x="473" y="1098" on="0"/>
        <pt x="348" y="1098" on="1"/>
        <pt x="322" y="1098" on="1"/>
        <pt x="251" y="1030" on="0"/>
        <pt x="92" y="936" on="0"/>
      </contour>
      <contour>
        <pt x="193" y="1319" on="1"/>
        <pt x="193" y="1255" on="0"/>
        <pt x="295" y="1221" on="1"/>
        <pt x="307" y="1248" on="0"/>
        <pt x="307" y="1268" on="1"/>
        <pt x="307" y="1303" on="0"/>
        <pt x="272" y="1364" on="0"/>
        <pt x="248" y="1364" on="1"/>
        <pt x="230" y="1364" on="0"/>
        <pt x="193" y="1333" on="0"/>
      </contour>
    </TTGlyph>
    <TTGlyph name="uni064D" xMin="-88" yMin="-676" xMax="498" yMax="-121">
      <contour>
        <pt x="492" y="-342" on="1"/>
        <pt x="498" y="-369" on="0"/>
        <pt x="498" y="-392" on="1"/>
        <pt x="498" y="-466" on="0"/>
        <pt x="426" y="-500" on="1"/>
        <pt x="242" y="-585" on="0"/>
        <pt x="-57" y="-676" on="1"/>
        <pt x="-41" y="-528" on="1"/>
        <pt x="223" y="-453" on="0"/>
      </contour>
      <contour>
        <pt x="457" y="-121" on="1"/>
        <pt x="462" y="-141" on="0"/>
        <pt x="462" y="-160" on="1"/>
        <pt x="462" y="-203" on="0"/>
        <pt x="418" y="-272" on="0"/>
        <pt x="381" y="-289" on="1"/>
        <pt x="182" y="-373" on="0"/>
        <pt x="-88" y="-449" on="1"/>
        <pt x="-76" y="-307" on="1"/>
        <pt x="229" y="-214" on="0"/>
      </contour>
    </TTGlyph>
    <TTGlyph name="uni064E" xMin="-57" yMin="1006" xMax="498" yMax="1350">
      <contour>
        <pt x="492" y="1350" on="1"/>
        <pt x="498" y="1323" on="0"/>
        <pt x="498" y="1299" on="1"/>
        <pt x="498" y="1267" on="0"/>
        <pt x="466" y="1200" on="0"/>
        <pt x="426" y="1182" on="1"/>
        <pt x="253" y="1101" on="0"/>
        <pt x="-57" y="1006" on="1"/>
        <pt x="-39" y="1163" on="1"/>
        <pt x="210" y="1234" on="0"/>
      </contour>
    </TTGlyph>
    <TTGlyph name="uni064F" xMin="-104" yMin="936" xMax="432" yMax="1489">
      <contour>
        <pt x="-104" y="1044" on="1"/>
        <pt x="55" y="1070" on="0"/>
        <pt x="164" y="1135" on="1"/>
        <pt x="57" y="1192" on="0"/>
        <pt x="57" y="1282" on="1"/>
        <pt x="57" y="1354" on="0"/>
        <pt x="179" y="1489" on="0"/>
        <pt x="244" y="1489" on="1"/>
        <pt x="294" y="1489" on="0"/>
        <pt x="362" y="1368" on="0"/>
        <pt x="362" y="1276" on="1"/>
        <pt x="362" y="1236" on="0"/>
        <pt x="350" y="1196" on="1"/>
        <pt x="377" y="1192" on="0"/>
        <pt x="432" y="1192" on="1"/>
        <pt x="432" y="1098" on="0"/>
        <pt x="307" y="1098" on="1"/>
        <pt x="281" y="1098" on="1"/>
        <pt x="210" y="1030" on="0"/>
        <pt x="51" y="936" on="0"/>
        <pt x="4" y="936" on="1"/>
        <pt x="-104" y="936" on="0"/>
      </contour>
      <contour>
        <pt x="152" y="1319" on="1"/>
        <pt x="152" y="1255" on="0"/>
        <pt x="254" y="1221" on="1"/>
        <pt x="266" y="1248" on="0"/>
        <pt x="266" y="1268" on="1"/>
        <pt x="266" y="1308" on="0"/>
        <pt x="229" y="1364" on="0"/>
        <pt x="207" y="1364" on="1"/>
        <pt x="189" y="1364" on="0"/>
        <pt x="152" y="1333" on="0"/>
      </contour>
    </TTGlyph>
    <TTGlyph name="uni0650" xMin="-57" yMin="-526" xMax="498" yMax="-182">
      <contour>
        <pt x="492" y="-182" on="1"/>
        <pt x="498" y="-209" on="0"/>
        <pt x="498" y="-233" on="1"/>
        <pt x="498" y="-265" on="0"/>
        <pt x="466" y="-332" on="0"/>
        <pt x="426" y="-350" on="1"/>
        <pt x="253" y="-431" on="0"/>
        <pt x="-57" y="-526" on="1"/>
        <pt x="-39" y="-369" on="1"/>
        <pt x="210" y="-298" on="0"/>
      </contour>
    </TTGlyph>
    <TTGlyph name="uni0651" xMin="-78" yMin="977" xMax="438" yMax="1409">
      <contour>
        <pt x="385" y="1409" on="1"/>
        <pt x="407" y="1366" on="0"/>
        <pt x="438" y="1255" on="0"/>
        <pt x="438" y="1219" on="1"/>
        <pt x="438" y="1150" on="0"/>
        <pt x="345" y="1036" on="0"/>
        <pt x="279" y="1036" on="1"/>
        <pt x="229" y="1036" on="0"/>
        <pt x="190" y="1077" on="1"/>
        <pt x="166" y="1031" on="0"/>
        <pt x="93" y="977" on="0"/>
        <pt x="53" y="977" on="1"/>
        <pt x="-4" y="977" on="0"/>
        <pt x="-78" y="1050" on="0"/>
        <pt x="-78" y="1118" on="1"/>
        <pt x="-78" y="1184" on="0"/>
        <pt x="-41" y="1251" on="1"/>
        <pt x="10" y="1241" on="1"/>
        <pt x="2" y="1199" on="0"/>
        <pt x="2" y="1163" on="1"/>
        <pt x="2" y="1096" on="0"/>
        <pt x="59" y="1096" on="1"/>
        <pt x="87" y="1096" on="0"/>
        <pt x="123" y="1135" on="0"/>
        <pt x="123" y="1169" on="1"/>
        <pt x="119" y="1268" on="1"/>
        <pt x="199" y="1317" on="1"/>
        <pt x="209" y="1226" on="0"/>
        <pt x="255" y="1155" on="0"/>
        <pt x="299" y="1155" on="1"/>
        <pt x="313" y="1155" on="0"/>
        <pt x="339" y="1171" on="0"/>
        <pt x="344" y="1182" on="1"/>
        <pt x="330" y="1224" on="0"/>
        <pt x="301" y="1282" on="1"/>
        <pt x="296" y="1294" on="0"/>
        <pt x="296" y="1307" on="1"/>
        <pt x="296" y="1342" on="0"/>
        <pt x="353" y="1406" on="0"/>
      </contour>
    </TTGlyph>
    <TTGlyph name="uni0651064B" xMin="-175" yMin="977" xMax="438" yMax="1919">
      <component glyphName="uni0651" x="0" y="0" flags="0x204"/>
      <component glyphName="uni064B" x="-87" y="377" flags="0x4"/>
    </TTGlyph>
    <TTGlyph name="uni0651064C" xMin="-276" yMin="977" xMax="438" yMax="1897">
      <component glyphName="uni0651" x="0" y="0" flags="0x204"/>
      <component glyphName="uni064C" x="-83" y="408" flags="0x4"/>
    </TTGlyph>
    <TTGlyph name="uni0651064D" xMin="-78" yMin="459" xMax="555" yMax="1409">
      <component glyphName="uni0651" x="0" y="0" flags="0x204"/>
      <component glyphName="uni064D" x="57" y="1135" flags="0x4"/>
    </TTGlyph>
    <TTGlyph name="uni0651064E" xMin="-160" yMin="977" xMax="438" yMax="1680">
      <component glyphName="uni0651" x="0" y="0" flags="0x204"/>
      <component glyphName="uni064E" x="-103" y="330" flags="0x4"/>
    </TTGlyph>
    <TTGlyph name="uni0651064F" xMin="-166" yMin="977" xMax="438" yMax="1905">
      <component glyphName="uni0651" x="0" y="0" flags="0x204"/>
      <component glyphName="uni064F" x="-62" y="416" flags="0x4"/>
    </TTGlyph>
    <TTGlyph name="uni06510650" xMin="-78" yMin="670" xMax="506" yMax="1409">
      <component glyphName="uni0651" x="0" y="0" flags="0x204"/>
      <component glyphName="uni0650" x="8" y="1196" flags="0x4"/>
    </TTGlyph>
    <TTGlyph name="uni0652" xMin="16" yMin="1010" xMax="348" yMax="1403">
      <contour>
        <pt x="176" y="1010" on="1"/>
        <pt x="106" y="1010" on="0"/>
        <pt x="16" y="1115" on="0"/>
        <pt x="16" y="1194" on="1"/>
        <pt x="16" y="1256" on="0"/>
        <pt x="64" y="1350" on="0"/>
        <pt x="141" y="1403" on="0"/>
        <pt x="180" y="1403" on="1"/>
        <pt x="220" y="1403" on="0"/>
        <pt x="299" y="1350" on="0"/>
        <pt x="348" y="1256" on="0"/>
        <pt x="348" y="1192" on="1"/>
        <pt x="348" y="1115" on="0"/>
        <pt x="241" y="1010" on="0"/>
      </contour>
      <contour>
        <pt x="266" y="1194" on="1"/>
        <pt x="266" y="1207" on="0"/>
        <pt x="239" y="1248" on="0"/>
        <pt x="196" y="1276" on="0"/>
        <pt x="166" y="1276" on="1"/>
        <pt x="140" y="1276" on="0"/>
        <pt x="96" y="1236" on="0"/>
        <pt x="96" y="1210" on="1"/>
        <pt x="96" y="1179" on="0"/>
        <pt x="141" y="1139" on="0"/>
        <pt x="182" y="1139" on="1"/>
        <pt x="214" y="1139" on="0"/>
        <pt x="266" y="1176" on="0"/>
      </contour>
    </TTGlyph>
    <TTGlyph name="uni0653" xMin="-242" yMin="1305" xMax="582" yMax="1548">
      <contour>
        <pt x="301" y="1317" on="1"/>
        <pt x="220" y="1317" on="0"/>
        <pt x="73" y="1350" on="0"/>
        <pt x="-10" y="1378" on="1"/>
        <pt x="-109" y="1346" on="0"/>
        <pt x="-188" y="1305" on="1"/>
        <pt x="-242" y="1380" on="1"/>
        <pt x="-170" y="1457" on="0"/>
        <pt x="-36" y="1544" on="0"/>
        <pt x="6" y="1544" on="1"/>
        <pt x="25" y="1544" on="0"/>
        <pt x="88" y="1528" on="0"/>
        <pt x="168" y="1509" on="0"/>
        <pt x="261" y="1493" on="0"/>
        <pt x="311" y="1493" on="1"/>
        <pt x="359" y="1493" on="0"/>
        <pt x="481" y="1523" on="0"/>
        <pt x="535" y="1548" on="1"/>
        <pt x="582" y="1479" on="1"/>
        <pt x="514" y="1405" on="0"/>
        <pt x="357" y="1317" on="0"/>
      </contour>
    </TTGlyph>
    <TTGlyph name="uni0654" xMin="-41" yMin="1114" xMax="346" yMax="1659">
      <contour>
        <pt x="221" y="1462" on="1"/>
        <pt x="222" y="1469" on="1"/>
        <pt x="222" y="1497" on="0"/>
        <pt x="184" y="1497" on="1"/>
        <pt x="118" y="1497" on="0"/>
        <pt x="80" y="1423" on="1"/>
        <pt x="135" y="1368" on="0"/>
        <pt x="228" y="1368" on="1"/>
        <pt x="279" y="1368" on="0"/>
        <pt x="346" y="1382" on="1"/>
        <pt x="334" y="1249" on="1"/>
        <pt x="230" y="1225" on="0"/>
        <pt x="78" y="1172" on="0"/>
        <pt x="-33" y="1114" on="1"/>
        <pt x="-41" y="1239" on="1"/>
        <pt x="68" y="1303" on="1"/>
        <pt x="-29" y="1340" on="0"/>
        <pt x="-29" y="1419" on="1"/>
        <pt x="-29" y="1471" on="0"/>
        <pt x="38" y="1586" on="0"/>
        <pt x="139" y="1659" on="0"/>
        <pt x="182" y="1659" on="1"/>
        <pt x="293" y="1659" on="0"/>
        <pt x="293" y="1524" on="1"/>
        <pt x="293" y="1485" on="0"/>
        <pt x="279" y="1452" on="1"/>
      </contour>
    </TTGlyph>
    <TTGlyph name="uni0654064B" xMin="-218" yMin="1114" xMax="368" yMax="2208">
      <component glyphName="uni0654" x="0" y="0" flags="0x204"/>
      <component glyphName="uni064B" x="-130" y="666" flags="0x4"/>
    </TTGlyph>
    <TTGlyph name="uni0654064C" xMin="-317" yMin="1114" xMax="349" yMax="2198">
      <component glyphName="uni0654" x="0" y="0" flags="0x204"/>
      <component glyphName="uni064C" x="-124" y="709" flags="0x4"/>
    </TTGlyph>
    <TTGlyph name="uni0654064E" xMin="-185" yMin="1114" xMax="370" yMax="2003">
      <component glyphName="uni0654" x="0" y="0" flags="0x204"/>
      <component glyphName="uni064E" x="-128" y="653" flags="0x4"/>
    </TTGlyph>
    <TTGlyph name="uni0654064F" xMin="-201" yMin="1114" xMax="346" yMax="2212">
      <component glyphName="uni0654" x="0" y="0" flags="0x204"/>
      <component glyphName="uni064F" x="-97" y="723" flags="0x4"/>
    </TTGlyph>
    <TTGlyph name="uni06540652" xMin="-104" yMin="1114" xMax="346" yMax="2108">
      <component glyphName="uni0654" x="0" y="0" flags="0x204"/>
      <component glyphName="uni0652" x="-120" y="705" flags="0x4"/>
    </TTGlyph>
    <TTGlyph name="uni0655" xMin="41" yMin="-581" xMax="428" yMax="-36">
      <component glyphName="uni0654" x="82" y="-1695" flags="0x4"/>
    </TTGlyph>
    <TTGlyph name="uni0655064D" xMin="-14" yMin="-1060" xMax="572" yMax="-36">
      <component glyphName="uni0654" x="82" y="-1695" flags="0x4"/>
      <component glyphName="uni064D" x="74" y="-384" flags="0x4"/>
    </TTGlyph>
    <TTGlyph name="uni06550650" xMin="-8" yMin="-849" xMax="547" yMax="-36">
      <component glyphName="uni0654" x="82" y="-1695" flags="0x4"/>
      <component glyphName="uni0650" x="49" y="-323" flags="0x4"/>
    </TTGlyph>
    <TTGlyph name="uni0656" xMin="-68" yMin="-801" xMax="98" yMax="-186">
      <contour>
        <pt x="59" y="-186" on="1"/>
        <pt x="82" y="-306" on="0"/>
        <pt x="98" y="-468" on="0"/>
        <pt x="98" y="-573" on="1"/>
        <pt x="98" y="-632" on="0"/>
        <pt x="53" y="-753" on="0"/>
        <pt x="12" y="-801" on="1"/>
        <pt x="-14" y="-791" on="1"/>
        <pt x="-14" y="-570" on="0"/>
        <pt x="-59" y="-390" on="1"/>
        <pt x="-68" y="-357" on="0"/>
        <pt x="-68" y="-332" on="1"/>
        <pt x="-68" y="-289" on="0"/>
        <pt x="4" y="-207" on="0"/>
      </contour>
    </TTGlyph>
    <TTGlyph name="uni0657" xMin="-92" yMin="934" xMax="497" yMax="1520">
      <contour>
        <pt x="207" y="1303" on="1"/>
        <pt x="319" y="1242" on="0"/>
        <pt x="319" y="1147" on="1"/>
        <pt x="319" y="1096" on="0"/>
        <pt x="258" y="995" on="0"/>
        <pt x="163" y="934" on="0"/>
        <pt x="119" y="934" on="1"/>
        <pt x="63" y="934" on="0"/>
        <pt x="-4" y="1057" on="0"/>
        <pt x="-4" y="1155" on="1"/>
        <pt x="-4" y="1191" on="0"/>
        <pt x="6" y="1229" on="1"/>
        <pt x="-34" y="1237" on="0"/>
        <pt x="-92" y="1237" on="1"/>
        <pt x="-86" y="1297" on="0"/>
        <pt x="-20" y="1346" on="0"/>
        <pt x="49" y="1346" on="1"/>
        <pt x="84" y="1343" on="1"/>
        <pt x="167" y="1426" on="0"/>
        <pt x="339" y="1520" on="0"/>
        <pt x="399" y="1520" on="1"/>
        <pt x="447" y="1520" on="0"/>
        <pt x="497" y="1471" on="0"/>
        <pt x="497" y="1432" on="1"/>
        <pt x="496" y="1415" on="1"/>
        <pt x="335" y="1388" on="0"/>
      </contour>
      <contour>
        <pt x="219" y="1100" on="1"/>
        <pt x="219" y="1165" on="0"/>
        <pt x="109" y="1206" on="1"/>
        <pt x="98" y="1184" on="0"/>
        <pt x="98" y="1161" on="1"/>
        <pt x="98" y="1114" on="0"/>
        <pt x="132" y="1059" on="0"/>
        <pt x="158" y="1059" on="1"/>
        <pt x="182" y="1059" on="0"/>
        <pt x="219" y="1087" on="0"/>
      </contour>
    </TTGlyph>
</ttFont>
